<svg xmlns="http://www.w3.org/2000/svg" viewBox="0 0 315.41 115.08"><g id="a9061459-dc12-423d-927b-bf11e92f2b20" data-name="stars"><path d="M35.83,19.23a1.49,1.49,0,0,1-1.12,1.56c-5.86,2.05-9.6,5.95-10.79,12.12-.11.57-.42,1.3-1.19,1.11a1.68,1.68,0,0,1-.85-1c-1.26-4-3.32-7.28-7.24-9.52-3.94-2-2.92-2.8.69-4.8A17.86,17.86,0,0,0,21.72,9,2.33,2.33,0,0,1,22.8,7.52C23.46,7.28,23.89,8,24,8.6c1.23,5.57,4.78,8.7,10.31,9.81A5.35,5.35,0,0,1,35.83,19.23Z" transform="translate(-12.12 -7.47)" fill="#a9a8a9"/><path d="M303,105.54a1.47,1.47,0,0,1-1.13,1.49c-4.26,1.7-7.18,4.59-8.35,9.1-.16.6-.38,1.28-1.11,1.4-1.05.17-1.39-.72-1.58-1.42-1.1-4.13-3.94-6.31-7.93-7.39-1.88-.51-2-1.71-.19-2.42A12.82,12.82,0,0,0,291,97.18a2.23,2.23,0,0,1,1.12-1.39c.68-.24,1.16.44,1.33,1.06a10.5,10.5,0,0,0,8.57,8C302.37,104.9,302.69,105.33,303,105.54Z" transform="translate(-12.12 -7.47)" fill="#a9a8a9"/><path d="M327.53,38.15a1,1,0,0,1-.64,1,8.37,8.37,0,0,0-4.72,6.19c-.09.41-.21.86-.62.95-.6.12-.79-.49-.9-1a6.3,6.3,0,0,0-4.49-5c-1.06-.35-1.12-1.16-.1-1.64a8.34,8.34,0,0,0,4.69-6.21,1.51,1.51,0,0,1,.63-.94c.38-.16.66.3.75.72.69,3,2.32,4.76,4.85,5.41C327.2,37.71,327.38,38,327.53,38.15Z" transform="translate(-12.12 -7.47)" fill="#a9a8a9"/><path d="M56.07,101a2,2,0,0,1-1.35,1.67,10.24,10.24,0,0,0-6.34,6.63c-.61,1.83-1.76,2.59-2.65.27a9,9,0,0,0-6-5.57c-1.88-.63-1.77-1.77-.17-2.54A11.78,11.78,0,0,0,46,94.21c.36-1.07,1.51-1.6,2-.29a10.08,10.08,0,0,0,7.08,6.44A3.61,3.61,0,0,1,56.07,101Z" transform="translate(-12.12 -7.47)" fill="#a9a8a9"/><path d="M58.61,38.53a1.35,1.35,0,0,0-.75-1.17,6.69,6.69,0,0,1-3.53-4.64c-.34-1.28-1-1.81-1.47-.19a5.63,5.63,0,0,1-3.35,3.9c-1,.44-1,1.24-.09,1.78A7.88,7.88,0,0,1,53,43.27c.2.75.84,1.12,1.13.2A6.33,6.33,0,0,1,58.06,39C58.3,38.88,58.49,38.62,58.61,38.53Z" transform="translate(-12.12 -7.47)" fill="#a9a8a9"/><path d="M112.64,116.73a.69.69,0,0,1-.49.72,6.06,6.06,0,0,0-3.56,4.42c-.07.29-.16.61-.47.67s-.6-.34-.68-.68a4.6,4.6,0,0,0-3.38-3.59c-.8-.25-.85-.82-.08-1.17a6,6,0,0,0,3.54-4.42A1.11,1.11,0,0,1,108,112c.29-.11.5.22.57.52a4.77,4.77,0,0,0,3.66,3.86C112.39,116.42,112.52,116.63,112.64,116.73Z" transform="translate(-12.12 -7.47)" fill="#a9a8a9"/><path d="M322.66,103a.94.94,0,0,0-.6-.81,4.76,4.76,0,0,1-2.8-3.22c-.27-.9-.78-1.26-1.18-.14a4.1,4.1,0,0,1-2.66,2.71c-.84.31-.79.86-.08,1.24a5.58,5.58,0,0,1,2.85,3.51c.16.53.67.78.9.15a4.67,4.67,0,0,1,3.13-3.14A1.3,1.3,0,0,0,322.66,103Z" transform="translate(-12.12 -7.47)" fill="#a9a8a9"/></g><g id="b0dbcf17-0ee1-46be-8562-defec1b9ccc1" data-name="MallAds"><path d="M46,78.74l26.8-39.9H85.2L73.54,91.51H63l8-36.25L46.9,91.51H39.47L31.4,55.26l-8,36.25H12.92L24.58,38.84H37Z" transform="translate(-12.12 -7.47)" fill="#a9a8a9"/><path d="M92.36,64.91a12.7,12.7,0,0,1,2.51-4.44,16.66,16.66,0,0,1,4.41-3.65,24.24,24.24,0,0,1,6.16-2.47,30.64,30.64,0,0,1,7.73-.91,26.09,26.09,0,0,1,8.35,1.1,10.26,10.26,0,0,1,4.84,3.15,8.94,8.94,0,0,1,1.88,4.94,21.41,21.41,0,0,1-.56,6.39L124,86a24.52,24.52,0,0,0-.5,2.86c-.06.73-.12,1.3-.17,1.71a2.43,2.43,0,0,0,0,1h-9a3.84,3.84,0,0,1-.13-1,14.7,14.7,0,0,1,.08-1.6,24.56,24.56,0,0,1,.51-2.74,12,12,0,0,1-2.63,2.47,18.86,18.86,0,0,1-3.38,1.9A21,21,0,0,1,105,91.82a16.6,16.6,0,0,1-3.71.45,28.88,28.88,0,0,1-6.17-.64,15.68,15.68,0,0,1-5.13-2,7.87,7.87,0,0,1-3.53-9,10.5,10.5,0,0,1,2.67-5.13A17.55,17.55,0,0,1,94,71.83a25.27,25.27,0,0,1,6-2.17,33.24,33.24,0,0,1,6.26-.8l11.56-.37.4-1.68q.63-3.19-1.08-4.75t-5.57-1.56a13.29,13.29,0,0,0-5.83,1.22,5.67,5.67,0,0,0-3.2,3.27Zm24.06,10.41-11.1.38a12.47,12.47,0,0,0-6,1.49,5.36,5.36,0,0,0-2.63,3.53,2.62,2.62,0,0,0,1.47,2.93,9.8,9.8,0,0,0,5.19,1.17,15.1,15.1,0,0,0,4.57-.68,13.88,13.88,0,0,0,3.88-1.9,12.79,12.79,0,0,0,2.84-2.74,8.49,8.49,0,0,0,1.54-3.26Z" transform="translate(-12.12 -7.47)" fill="#a9a8a9"/><path d="M180.83,34.36,166.89,91.51H154.82l13.94-57.15Z" transform="translate(-12.12 -7.47)" fill="#a9a8a9"/><path d="M156.3,34.36,142.36,91.51H130.29l13.94-57.15Z" transform="translate(-12.12 -7.47)" fill="#a9a8a9"/><path d="M220.76,91.51l-3.12-13.07H193.11l-8.82,13.07h-11.2l36.46-52.67h9.37l13.32,52.67Zm-9.07-41.42L198.53,70.46H215.7Z" transform="translate(-12.12 -7.47)" fill="#a9a8a9"/><path d="M268.1,86.84a14.1,14.1,0,0,1-3.4,2.71,19.27,19.27,0,0,1-4.21,1.9,18.24,18.24,0,0,1-5.72.82q-9.45,0-13.67-5.48t-2.16-15.61a31,31,0,0,1,3-8.52,22.65,22.65,0,0,1,12.82-11,30,30,0,0,1,9.87-1.52,11.62,11.62,0,0,1,2.68.33,16,16,0,0,1,2.69.9,11.92,11.92,0,0,1,2.43,1.45,7.3,7.3,0,0,1,1.81,1.93l4.21-20.43h10L276.79,91.45h-9.55Zm-5.07-29A12.25,12.25,0,0,0,257.74,59a12.81,12.81,0,0,0-4.08,3,16.88,16.88,0,0,0-2.85,4.32,21.12,21.12,0,0,0-1.58,5,16.8,16.8,0,0,0-.39,4.94,10.58,10.58,0,0,0,1.1,4.2,7.16,7.16,0,0,0,2.85,2.93,9.54,9.54,0,0,0,4.85,1.11,11.24,11.24,0,0,0,5-1.11,13.54,13.54,0,0,0,3.9-2.85,15.93,15.93,0,0,0,2.73-3.87,18.94,18.94,0,0,0,1.56-4.28l.31-1.73a17.3,17.3,0,0,0,.26-4.78,10.3,10.3,0,0,0-1.19-4.08,7.45,7.45,0,0,0-2.76-2.84A8.49,8.49,0,0,0,263,57.84Z" transform="translate(-12.12 -7.47)" fill="#a9a8a9"/><path d="M298.65,81a3,3,0,0,0,2,3,11.67,11.67,0,0,0,5.13,1,18.92,18.92,0,0,0,2.66-.19,8.77,8.77,0,0,0,2.54-.72,6.35,6.35,0,0,0,2-1.4,4.82,4.82,0,0,0,1.17-2.17,2.13,2.13,0,0,0-.3-1.79,3.67,3.67,0,0,0-1.64-1.17,14,14,0,0,0-2.65-.76c-1-.21-2.11-.39-3.28-.54-1.85-.3-3.69-.63-5.54-1a16.22,16.22,0,0,1-4.84-1.67,7.12,7.12,0,0,1-3.05-3.19,8.3,8.3,0,0,1-.19-5.47,11.5,11.5,0,0,1,2.48-5.21,15.65,15.65,0,0,1,4.47-3.57,20.75,20.75,0,0,1,5.85-2.05,33.9,33.9,0,0,1,6.64-.65q7.06,0,11,2.78T326,64.38h-9.46a2.93,2.93,0,0,0-1.75-2.77,8.39,8.39,0,0,0-4.36-1.11,12.67,12.67,0,0,0-5,1,4.09,4.09,0,0,0-2.7,2.74,2.49,2.49,0,0,0,.34,2,4.23,4.23,0,0,0,1.79,1.33,12.72,12.72,0,0,0,2.84.84c1.07.2,2.23.38,3.46.53q2.76.38,5.45,1a14.09,14.09,0,0,1,4.61,1.79A7.15,7.15,0,0,1,324.06,75a9.2,9.2,0,0,1,.11,5.62,11.61,11.61,0,0,1-2.79,5.51,16.16,16.16,0,0,1-4.93,3.61,23.1,23.1,0,0,1-6.08,1.94,36.38,36.38,0,0,1-6.28.57,35,35,0,0,1-6.95-.64,16.13,16.13,0,0,1-5.4-2,8.11,8.11,0,0,1-3.2-3.49,8,8,0,0,1-.36-5.09Z" transform="translate(-12.12 -7.47)" fill="#a9a8a9"/></g></svg>