<svg xmlns="http://www.w3.org/2000/svg" width="604" height="192" fill="none" viewBox="0 0 604 192">
  <path fill="#000" d="M569.583 122.31c0-1.073-.916-1.464-1.853-1.464h-1.755v4.993h.898v-2.088h.643l1.17 2.087h1.092l-1.346-2.186c.702-.156 1.15-.624 1.15-1.345l.001.003Zm-2.71.72v-1.423h.818c.47 0 .996.136.996.682 0 .604-.585.74-1.092.74h-.72l-.002.001Zm.837-4.095a4.424 4.424 0 0 0-4.106 2.729 4.417 4.417 0 0 0-.339 1.698c0 2.457 1.988 4.388 4.445 4.388 2.457 0 4.447-1.93 4.447-4.388a4.426 4.426 0 0 0-4.447-4.427Zm0 8.17a3.758 3.758 0 0 1-3.744-3.743 3.748 3.748 0 0 1 3.744-3.64 3.747 3.747 0 0 1 3.745 3.64 3.76 3.76 0 0 1-3.745 3.744v-.001Zm-286.037-7.422c-6.503 0-9.782-5.81-9.782-11.43 0-5.618 3.558-11.182 9.47-11.182 2.77 0 6.27 1.39 7.645 3.343l6.885-6.86c-3.332-3.512-8.645-5.608-14.53-5.608-11.973 0-20.664 8.593-20.664 20.432 0 12.03 8.594 20.433 20.9 20.433 5.854 0 11.265-1.714 14.473-5.163l-6.697-7.187c-1.547 1.884-4.79 3.223-7.7 3.223v-.001Zm-38.506 8.037h10.683V89.034h-10.683v38.686Zm-19.425-17.476c0 4.546-2.963 9.44-8.486 9.44-4.258 0-6.53-3.037-6.53-9.284V89.034H198.04v24.01c0 7.99 3.987 15.766 14.647 15.766 5.027 0 9.238-3.958 11.36-6.88h.16v5.79h10.215V89.034h-10.683v21.21h.003ZM178.77 93.946h-.237c-1.51-1.67-5.597-6-12.236-6-10.892 0-19.285 8.526-19.285 20.276 0 11.93 7.745 20.588 18.773 20.588 5.007 0 9.71-2.654 12.437-5.74h.158v23.7h10.683V89.034H178.77v4.912Zm-10.372 25.737c-6.606 0-10.36-5.766-10.36-11.46 0-5.447 3.447-11.308 10.36-11.308 6.358 0 10.293 5.95 10.293 11.462 0 5.557-3.85 11.306-10.292 11.306h-.001Zm243.33-31.738c-12.156 0-20.978 8.527-20.978 20.277 0 12.158 9.018 20.692 20.977 20.692 11.958 0 20.977-8.616 20.977-20.692 0-11.75-8.822-20.277-20.977-20.277h.001Zm0 31.738c-6.967 0-10.14-5.94-10.14-11.46 0-5.447 3.173-11.308 10.14-11.308 6.966 0 10.138 5.86 10.138 11.307 0 5.52-3.172 11.46-10.14 11.46l.002.001Zm133.555-15.774c-5.498-1.313-7.435-2.02-7.435-4.245 0-3.07 3.89-3.744 5.65-3.744 3.315 0 7.06 1.98 8.468 3.86l6.3-6.044c-2.914-3.66-8.642-5.79-14.69-5.79-7.732 0-15.85 3.887-15.85 12.574 0 7.46 5.847 9.71 11.568 11.08 6.03 1.405 8.18 2.43 8.18 4.86 0 3.58-4.063 4.165-5.46 4.165-3.495 0-7.545-2-9.73-4.594l-6.485 6.575c3.542 3.93 9.606 6.293 15.825 6.293 10.443 0 16.64-4.978 16.64-13.193 0-7.86-7.585-10.503-12.982-11.796l.001-.001Zm-20.196-14.876H511.31l-13.792 16.053h-.238V67.714h-10.682v60.005h10.682v-19.08h.238l14.31 19.08h14.057l-16.63-21.142 15.832-17.544Zm-158.41-1.09c-4.886 0-8.485 2.136-11.884 5.32h-.2v-25.55h-10.68v60.006h10.214v-5.468h.16c2.408 3.95 7.194 6.558 12.157 6.558 11.027 0 19.387-8.66 19.387-20.588 0-11.75-8.26-20.277-19.153-20.277l-.001-.001Zm-2.1 31.74c-6.444 0-10.295-5.75-10.295-11.307 0-5.512 3.936-11.462 10.295-11.462 6.912 0 10.35 5.86 10.35 11.307 0 5.695-3.745 11.46-10.35 11.46v.002Zm-24.684-30.65h-13.778l-13.792 16.053h-.238V67.714h-10.682v60.005h10.682v-19.08h.238l14.31 19.08h14.057l-16.63-21.142 15.833-17.544Zm118.776-1.09c-12.156 0-20.978 8.528-20.978 20.278 0 12.158 9.018 20.692 20.977 20.692 11.957 0 20.976-8.616 20.976-20.692 0-11.75-8.822-20.277-20.977-20.277l.002-.001Zm0 31.74c-6.967 0-10.14-5.942-10.14-11.462 0-5.446 3.173-11.307 10.14-11.307 6.965 0 10.138 5.86 10.138 11.307 0 5.52-3.173 11.46-10.14 11.46l.002.002Z"/>
  <path fill="#2CA01C" d="M90 135.226c24.853 0 45-20.147 45-45s-20.147-45-45-45-45 20.147-45 45 20.147 45 45 45Z"/>
  <path fill="#fff" d="M57.496 90.224c0 9.665 7.835 17.5 17.5 17.5h2.5v-6.5h-2.5c-6.066 0-11-4.934-11-11 0-6.065 4.934-11 11-11h6.007v34a6.5 6.5 0 0 0 6.5 6.5v-47H74.996c-9.665 0-17.5 7.836-17.5 17.5Zm47.51-17.497h-2.5v6.5h2.5c6.064 0 11 4.935 11 11s-4.936 11-11 11h-6.01v-34a6.5 6.5 0 0 0-6.5-6.5v47h12.51c9.664 0 17.5-7.835 17.5-17.5s-7.836-17.5-17.5-17.5Z"/>
  <path fill="#000" d="M203.731 69.4c0 5.06 4.05 8.76 9.19 8.76s9.2-3.69 9.2-8.76V57.79h-4.98v11.02c0 2.73-1.82 4.56-4.23 4.56-2.4 0-4.23-1.83-4.23-4.56V57.79h-4.98l.03 11.61Zm31.71-6.96h5.94v15.3h4.98v-15.3h5.94v-4.66h-16.86v4.66Zm-3.22-4.66h-4.98v19.96h4.98V57.78Zm-42.67 4.66v15.3h4.98v-15.3h5.94v-4.66h-16.87v4.66h5.95Zm-32.07-4.66h-4.98v19.96h4.98V57.78Zm23.51 8.36c0-5.06-4.05-8.76-9.2-8.76-5.14 0-9.2 3.69-9.2 8.76v11.61h4.98V66.73c0-2.73 1.83-4.56 4.23-4.56 2.4 0 4.23 1.83 4.23 4.56v11.02h4.98l-.02-11.61Z"/>
</svg>
