<?xml version="1.0" encoding="utf-8"?>
<!-- Generator: Adobe Illustrator 25.0.1, SVG Export Plug-In . SVG Version: 6.00 Build 0)  -->
<svg version="1.1" xmlns="http://www.w3.org/2000/svg" xmlns:xlink="http://www.w3.org/1999/xlink" x="0px" y="0px"
	 viewBox="0 0 178.7 148.8" style="enable-background:new 0 0 178.7 148.8;" xml:space="preserve">
<style type="text/css">
	.st0{fill:#E2DFD8;}
	.st1{fill:#D2656E;}
	.st2{fill:#BD5B62;}
	.st3{fill:#FFD87A;}
	.st4{fill:#E9C26D;}
	.st5{fill:#387D90;}
	.st6{fill:#317082;}
	.st7{fill:#7BDEC0;}
	.st8{fill:#6FC7AC;}
	.st9{fill:#BFBDB7;}
	.st10{fill:#3E7376;}
	.st11{display:none;fill:#E2DFD8;}
	.st12{fill:#00C3FF;stroke:#000000;stroke-width:2;stroke-linecap:round;stroke-linejoin:round;stroke-miterlimit:10;}
	.st13{fill:none;stroke:#000000;stroke-width:2;stroke-linecap:round;stroke-linejoin:round;stroke-miterlimit:10;}
	.st14{fill:#FFFFFF;}
	.st15{fill:#00C3FF;}
	.st16{fill:none;stroke:#CCCCCC;stroke-width:0.7087;stroke-linecap:round;stroke-linejoin:round;stroke-miterlimit:10;}
	.st17{fill:#FFFFFF;stroke:#000000;stroke-width:2;stroke-linecap:round;stroke-linejoin:round;stroke-miterlimit:10;}
	.st18{fill:#CCCCCC;}
	.st19{fill:none;stroke:#000000;stroke-width:2.5;stroke-linecap:round;stroke-linejoin:round;stroke-miterlimit:10;}
	.st20{fill:#EFF163;}
	.st21{fill:none;stroke:#000000;stroke-linecap:round;stroke-miterlimit:10;}
	.st22{fill:none;stroke:#CCCCCC;stroke-width:0.75;stroke-linecap:round;stroke-linejoin:round;stroke-miterlimit:10;}
</style>
<g id="stats">
	<g>
		<rect x="144.8" y="61.2" class="st0" width="12.6" height="19.9"/>
		<rect x="144.1" y="60.4" class="st1" width="12.6" height="19.9"/>
		<polygon class="st2" points="144.1,72.8 144.1,80.3 156.7,80.3 156.7,75 		"/>
		<rect x="105.5" y="51.9" class="st0" width="12.6" height="29.2"/>
		<rect x="104.9" y="51.2" class="st3" width="12.6" height="29.2"/>
		<polygon class="st4" points="104.9,65.8 104.9,80.3 117.4,80.3 117.4,68 		"/>
		<rect x="164.4" y="23.5" class="st0" width="12.6" height="57.5"/>
		<rect x="163.7" y="22.8" class="st5" width="12.6" height="57.5"/>
		<polygon class="st6" points="163.7,76.2 163.7,80.3 176.3,80.3 176.3,78.5 		"/>
		<rect x="125.1" y="35.1" class="st0" width="12.6" height="45.9"/>
		<rect x="124.5" y="34.4" class="st7" width="12.6" height="45.9"/>
		<polygon class="st8" points="124.5,69.3 124.5,80.3 137,80.3 137,71.5 		"/>
		<polygon class="st9" points="169.6,8.2 152.8,29 150.7,30.7 133.7,18.8 129.1,18.9 112.9,31.9 113.4,32.5 129.5,19.5 133.3,19.4 
			150.2,31.3 153.3,29.4 170.2,8.7 		"/>
		<path class="st9" d="M167.6,7.2c0-1.9,1.5-3.4,3.4-3.4s3.4,1.5,3.4,3.4s-1.5,3.4-3.4,3.4S167.6,9.1,167.6,7.2L167.6,7.2z"/>
		<path class="st9" d="M147.8,31.5c0-1.9,1.5-3.4,3.4-3.4s3.4,1.5,3.4,3.4s-1.5,3.4-3.4,3.4S147.8,33.3,147.8,31.5L147.8,31.5z"/>
		<path class="st9" d="M128,17.6c0-1.9,1.5-3.4,3.4-3.4s3.4,1.5,3.4,3.4c0,1.9-1.5,3.4-3.4,3.4S128,19.4,128,17.6L128,17.6z"/>
		<path class="st9" d="M108.1,33.5c0-1.9,1.5-3.4,3.4-3.4c1.9,0,3.4,1.5,3.4,3.4c0,1.9-1.5,3.4-3.4,3.4
			C109.6,36.9,108.1,35.4,108.1,33.5L108.1,33.5z"/>
		<polygon class="st10" points="168.9,7 152,27.8 149.9,29.5 133,17.6 128.3,17.7 112.2,30.7 112.7,31.3 128.8,18.3 132.6,18.2 
			149.5,30.1 152.6,28.2 169.5,7.5 		"/>
		<path class="st3" d="M107.4,32.3c0-1.9,1.5-3.4,3.4-3.4s3.4,1.5,3.4,3.4s-1.5,3.4-3.4,3.4S107.4,34.2,107.4,32.3L107.4,32.3z"/>
		<path class="st7" d="M127.3,16.4c0-1.9,1.5-3.4,3.4-3.4s3.4,1.5,3.4,3.4s-1.5,3.4-3.4,3.4S127.3,18.2,127.3,16.4L127.3,16.4z"/>
		<path class="st1" d="M147.1,30.2c0-1.9,1.5-3.4,3.4-3.4s3.4,1.5,3.4,3.4s-1.5,3.4-3.4,3.4S147.1,32.1,147.1,30.2L147.1,30.2z"/>
		<path class="st5" d="M166.9,6c0-1.9,1.5-3.4,3.4-3.4s3.4,1.5,3.4,3.4s-1.5,3.4-3.4,3.4S166.9,7.8,166.9,6L166.9,6z"/>
		<path id="bottom_shadow" class="st11" d="M102.8,87.9c0,1.7,18,3.1,40.2,3.1c22.2,0.1,40.2-1.3,40.2-2.9s-18-3.1-40.2-3.1
			C120.9,84.9,102.8,86.3,102.8,87.9L102.8,87.9z"/>
	</g>
</g>
<g id="big_bird">
	<g>
		<path class="st12" d="M23.5,113.3c-18.1,9.9-18.6,10.4-19,10.9S4.1,125,4,125.3s-0.1,0.6,0,0.9c0,0.3,0.1,0.6,0.3,1
			c0.2,0.4,0.6,0.7,1.2,0.9c0.6,0.2,1.3,0.2,2.1,0.1s1.6-0.3,2.2-0.5c0.7-0.3,1.3-0.6,1.7-0.8c0.4-0.2,0.5-0.2,1-0.2
			c0.4,0,1.2,0.1,2,0.1c0.8,0,1.7-0.1,2.4-0.4c0.7-0.3,1.3-0.7,1.6-0.9c0.3-0.2,0.4-0.3,0.6-0.3c0.1,0,0.3,0,0.8,0
			c0.5,0,1.2,0.1,2,0c0.8-0.2,1.7-0.6,6.9-3.9l0.6-0.4l-1.8-2.4l-1.8-2.6l-1.3-2.4l-0.4-0.7L23.5,113.3z"/>
		<line class="st13" x1="77.3" y1="137.7" x2="77.3" y2="132.5"/>
		<path class="st13" d="M74.3,131.3c0.8,1,2.8,1.1,3.3,1.1c0.6-0.1,0.9-0.5,1.2-0.8c0.6-0.6,1.2-2.2,1.2-2.2"/>
		<path class="st13" d="M69.9,138.3c4-0.9,6.3-0.7,8.3-0.4c1.9,0.3,3.5,0.6,5.1,1.1c1.6,0.5,3.1,1.1,5.3,2.9"/>
		<path class="st13" d="M74,136.3c4.6,1.8,5.8,2.9,7.2,4.3c1.3,1.4,2.8,3.2,3.2,4.1"/>
		<polygon class="st14" points="25,114.1 29.6,115.2 36.6,112.7 59.4,92.3 87,96 97.5,98.2 96.7,112.4 102.8,98.2 104.5,87.3 
			103.6,72 98.9,54.3 91.7,44.9 78.1,39.2 65.2,38.7 58.2,40.5 50.9,43.9 47.1,47.5 41.2,56.2 35.2,72 31,79 23.6,91.9 22.1,96.9 
			21.6,103.8 22.8,109.5 		"/>
		<path class="st15" d="M23.5,110.4c2.9,3.4,5.8,3.3,7.3,2.8c0.7-0.2,1.1-0.6,1.5-1c1.1-1.3,1.9-3.4,2.5-7.1c5.1-1,7.8-2.2,10.4-3.7
			s4.9-3.3,6.7-5.4c1.8-2.1,3-4.5,3.7-7.1s1-5.2,1-5.2c5.4,6.1,10.2,7.5,15,8.3s9.7,1.1,14.6-0.1c4.9-1.2,9.9-3.8,14-8.7
			c1.3,12.5-1,20.9-2.2,25.4c-1.2,4.5-1.2,5-2,6.5c-0.9,1.5-2.5,3.9-4.4,6.1c-1.9,2.2-4,4-6.7,5.6c-2.8,1.6-6.2,2.9-9.6,3.8
			s-7,1.2-10.3,1.4c-2.2,0.1-4.2,0.2-6.3,0.1c-1.7,1.6-6.1,1.9-6.1,1.9s-3.6,0.2-5-3.6c-0.6-0.8-1.9-0.5-2.8-0.9
			c-3.9-1.3-7.9-3.4-11.6-6.1C29.2,120.9,25.9,117.5,23.5,110.4z"/>
		<path class="st16" d="M50.9,67.6c-3.3-4.7-3.8-7.5-4.1-10.2c-0.3-2.7-0.4-5.3,0.1-9.1"/>
		<path class="st16" d="M46.9,70.4c-2.9-4.7-3.7-9-3.9-15.2"/>
		<path class="st16" d="M42.2,71.7c-1.8-1.8-3-3.9-3.8-6.4"/>
		<path class="st16" d="M44.2,96.2c-2.6-2.5-3.5-5.9-3.7-9.6"/>
		<path class="st16" d="M50.3,91.9c-1.9-2.3-2.5-4.7-2.4-7.3"/>
		<path class="st17" d="M103.3,67.7c0,0,10.3-5.3,13.5-6.8s8.3-3.6,10.5-1.5c1.9,2,0.3,5.4-2.7,7.4c-2.3,1.4-0.7,2.7-2.1,4.9
			c-1.5,1.6-3.1,1.4-4.3,2.7c-1.2,1.3-0.9,1.6-2.1,4.2c-1.6,3.4-3.6,3-4.9,4.4c-2,2.1-7.6,9.5-7.6,9.5"/>
		<path d="M104.2,69.4c-0.8-5.6-2.2-10.5-4.1-14.5s-4.1-7.3-7.4-10c-3.3-2.7-7.7-4.7-12.6-6s-10.2-1.8-14.6-1.5
			c-4.5,0.3-8.1,1.4-12.7,4.1c-4.6,2.7-10.2,7-16.1,23.9c-2.1,5-5,9.6-7.4,13.5c-2.4,4-4.3,7.3-5.9,10.7s-2.8,7-2.8,11.5
			c0,4.5,1.1,9.8,3.6,14.3s6.2,8.1,9.9,10.8c3.7,2.6,7.3,4.3,12.5,5.4s11.9,1.8,18.2,1.7s12-1.1,16.8-3.2s8.4-5.4,11.9-9.9
			c3.5-4.4,6.8-10,8.8-15.5s2.7-11.1,2.9-17.2C105.3,81.5,105.1,75,104.2,69.4z M102.7,86.6c-0.4,12.2-4.4,23.6-11.3,32.3
			c-6.9,8.7-15.5,12-28.1,12c-10.4,0-19.7-1.7-25.5-5.1s-11.9-9.9-13.9-17.7c-3.9-15.3,5.8-22.3,14-39.3c0.4-0.8,0.8-1.6,1.2-2.6
			c4.4-12.9,8.6-17.9,12.1-20.6c9.3-7.3,16.5-6.8,26.2-4.8s16.4,6.5,20.1,14S103.1,74.4,102.7,86.6z"/>
		<polygon class="st15" points="47,128.8 47.9,131.7 50.6,133.7 54.2,134.2 57.5,133.2 60.3,130.4 		"/>
		<g id="SPLINE_3_">
			<path class="st13" d="M46.2,125.7c0.1,5.5,2.8,7.3,4.4,7.9c0.7,0.3,1.2,0.4,1.6,0.4c3.8,0.4,6.8-1.3,9-4.9"/>
		</g>
		<g id="LINE_1_">
			<line class="st13" x1="52.4" y1="134" x2="52" y2="140.7"/>
		</g>
		<g id="SPLINE_2_">
			<path class="st13" d="M46.7,138.4c3.9,1.2,8.6,3.9,13,8.3"/>
		</g>
		<g id="SPLINE_1_">
			<path class="st13" d="M44.9,142.4c6.7-1.5,8.3-1.6,10.2-1.4c1.9,0.1,4,0.4,8,1.4"/>
		</g>
		<path class="st18" d="M66.2,84.5c0-0.8,0.6-1.4,1.4-1.4c0.8,0,1.4,0.6,1.4,1.4s-0.6,1.4-1.4,1.4C66.9,85.9,66.2,85.3,66.2,84.5
			L66.2,84.5z"/>
		<path class="st18" d="M59.8,81.6c0-0.7,0.6-1.3,1.3-1.3s1.3,0.6,1.3,1.3c0,0.7-0.6,1.3-1.3,1.3S59.8,82.3,59.8,81.6L59.8,81.6z"/>
		<path class="st18" d="M97.3,78.4c0-0.7,0.6-1.3,1.3-1.3s1.3,0.6,1.3,1.3c0,0.7-0.6,1.3-1.3,1.3S97.3,79.2,97.3,78.4L97.3,78.4z"/>
		<path class="st18" d="M67.3,74.2c0-0.6,0.5-1,1-1c0.6,0,1,0.5,1,1c0,0.6-0.5,1-1,1C67.7,75.3,67.3,74.8,67.3,74.2L67.3,74.2z"/>
		<path class="st18" d="M64.9,75.7c0-0.9,0.7-1.6,1.6-1.6s1.6,0.7,1.6,1.6c0,0.9-0.7,1.6-1.6,1.6S64.9,76.6,64.9,75.7L64.9,75.7z"/>
		<path class="st18" d="M95.3,67.8c0-0.3,0.2-0.5,0.5-0.5c0.3,0,0.5,0.2,0.5,0.5c0,0.3-0.2,0.5-0.5,0.5
			C95.6,68.4,95.3,68.1,95.3,67.8L95.3,67.8z"/>
		<path class="st18" d="M96.6,68.5c0-0.5,0.4-0.8,0.8-0.8s0.8,0.4,0.8,0.8s-0.4,0.8-0.8,0.8S96.6,69,96.6,68.5L96.6,68.5z"/>
		<path class="st18" d="M97.4,69.7c0-0.5,0.4-1,1-1c0.5,0,1,0.4,1,1c0,0.5-0.4,1-1,1C97.9,70.6,97.4,70.2,97.4,69.7L97.4,69.7z"/>
		<path class="st19" d="M40.8,83.4c6.9-1.5,9.2-1.4,10.7-1.1c1.5,0.4,2.2,0.9,2.8,1.7c0.6,0.8,1.2,1.7,1.2,3.2s-0.8,3.4-2.1,5.5
			c-1.3,2.1-3.2,4.5-5.4,6.2s-4.8,2.7-7,3.7c-2.2,0.9-4,1.8-6.4,1.9c-2.4,0.1-5.5-0.4-7.8-1.2s-3.9-1.9-4.6-3.4
			C21.6,98.4,22,96.6,23,95s2.8-2.7,6.5-5.4"/>
		<path d="M59.2,64.4c0-2.1,1.7-3.9,3.9-3.9c2.1,0,3.9,1.7,3.9,3.9s-1.7,3.9-3.9,3.9C61,68.3,59.2,66.6,59.2,64.4L59.2,64.4z"/>
		<path d="M91.6,56.9c0-1.9,1.5-3.4,3.4-3.4s3.4,1.5,3.4,3.4s-1.5,3.4-3.4,3.4S91.6,58.8,91.6,56.9L91.6,56.9z"/>
		<polygon class="st20" points="80.3,60.2 77.5,63.3 75.8,67.6 77.5,71.5 81.8,74.9 84.9,76.7 87,74.2 88.8,68.6 88.1,64.1 
			85.1,61.4 		"/>
		<path d="M87.5,62c-1-1.2-3-2.4-6.4-3.2c0-0.6-0.4-1.2-1-1.4s-1.2,0-1.6,0.5c-0.4,0.5-0.4,1.1-0.1,1.7c-1.4,1.5-2.1,2.3-2.7,3
			c-1.5,2.1-1.8,3.1-1.5,5.7c0.3,2.3,2.2,4.7,4,5.8c1.8,1.1,2.2,1.5,7,4.7c3.5-4.9,3.9-6.5,4.2-7.8C90.4,66.7,89.8,64.7,87.5,62z
			 M87.6,68.7c-0.1,0.9-0.2,1.8-0.8,3.2c-0.5,1.3-1.4,3-1.8,3.6c-1.7-1.2-2.7-1.8-3.6-2.4c-0.9-0.5-1.7-1-2.4-1.7
			c-0.7-0.7-1.4-1.6-1.8-2.5c-0.4-0.9-0.4-1.7-0.3-2.5s0.4-1.3,0.6-1.8c0.2-0.5,0.5-0.9,3.2-3.7c2.1,0.6,3.3,1.1,4.2,1.7
			c0.9,0.5,1.4,1.1,1.8,1.8s0.7,1.3,0.9,2C87.7,67.1,87.7,67.8,87.6,68.7z"/>
		<path class="st21" d="M86.3,61.2c0.8-1.4,0.2-3.3-1.2-3.9c-1.5-0.6-3,0.1-3.8,1.3"/>
		<path class="st21" d="M78.4,59.6c-1.2-0.9-2.9-1.2-3.9,0c-1,1.5-0.9,3,0.6,4"/>
		<path class="st22" d="M112.6,70.4c0,0,3,0.9,7.2-0.3"/>
		<path class="st22" d="M107.9,74.6c0,0,1.3,2.7,4.9,3.8"/>
	</g>
</g>
</svg>
