<?xml version="1.0" encoding="utf-8"?>
<!-- Generator: Adobe Illustrator 25.0.1, SVG Export Plug-In . SVG Version: 6.00 Build 0)  -->
<svg version="1.1" id="logo" xmlns="http://www.w3.org/2000/svg" xmlns:xlink="http://www.w3.org/1999/xlink" x="0px" y="0px"
	 viewBox="0 0 194.6 194.6" style="enable-background:new 0 0 194.6 194.6;" xml:space="preserve">
<style type="text/css">
	.st0{fill:#00C3FF;}
	.st1{fill:#808080;}
</style>
<g id="bird">
	<path class="st0" d="M162.3,71.1c-3.5-0.7-7.1-1.4-10.6-2.1c0.5-3.3,0.6-6.6,0.3-9.7c-0.9-8.6-4.7-15.5-9.6-20.9
		c-6.8-7.5-16.5-11.9-26-12.7c-5.7-0.5-11.4,0-16.8,2s-9.7,5.7-12,7.9c-2.2,2.2-3.1,3.8-4.3,5.7c-1,1.7-2.2,3.6-3.6,5.5
		c-0.7,1-1.5,1.9-2.3,2.9c-0.8,1-1.1,1.4-3.6,3.1c-2.5,1.8-6,3.7-9.3,4.9c-5.7,1.9-12.1,2-17.2,0.7c-3.1-0.8-6.3-2.1-10.3-4.3
		c-2-1.1-4.2-2.4-6.7-3.9c-1.2-0.7-2.4-1.5-3.7-2.2c-1.3-0.8-2.5-1.5-16.9-11.4c-2.7-1.8-4.2-1.1-4.7-0.7c-0.1,0.1-0.1,0.1-0.2,0.2
		c-0.9,0.8-1,1.4-1.1,1.8c-0.5,2-0.5,3-0.6,3.9c-0.7,10.1-0.4,15,0.2,20C4.3,70.4,6,77.8,7,81.6c1,3.9,1.8,5.5,2.6,7.4
		c1.2,2.8,2.6,5.5,4.1,8.1c6.2,10.7,14.6,19,23.6,24.3s17.8,8.1,25.9,9.5c16.9,3,31.2-0.1,42.2-4.6c10.9-4.5,18.8-10.6,24.9-16.5
		c7.1-6.9,12.1-14.4,16.1-23.2c1.5-3.3,2.7-6.7,3.7-10.1c3.6,0.7,7.2,1.4,10.8,2.1c1.9-0.1,3.4-1.3,3.7-3.2S164.1,71.9,162.3,71.1z
		 M118,73.3c-3.8,0-6.9-3.1-6.9-6.9c0-3.8,3.1-6.9,6.9-6.9c3.8,0,6.9,3.1,6.9,6.9C124.9,70.2,121.8,73.3,118,73.3z"/>
	<path class="st0" d="M69.8,162.1v-32.8h-7.7v32.8c0.5,2.1,2.6,3.4,4.7,3C68.3,164.7,69.4,163.6,69.8,162.1z"/>
	<path class="st0" d="M94.4,162.1v-33.6h-7.7v33.6c0.5,2.1,2.6,3.4,4.7,3C92.9,164.7,94,163.6,94.4,162.1z"/>
</g>
<g id="screen">
	<path class="st1" d="M171.6,165c-6.7-14.8-13.5-29.6-20.2-44.4c4,0,8,0,12,0c7.3,16,14.6,32,21.9,48c1.3,3,2,5.7-2.1,5.7
		c-15.1,0-30.2,0-45.3,0c0.7-1.4,1.4-2.9,2.1-4.3c9.8,0,19.5,0,29.3,0C172.2,170,172.7,167.4,171.6,165z"/>
	<path class="st1" d="M163.8,154.6c-17.3,0-34.6,0-52,0c-2.8,0-2.8-1.7-2.1-4.5c4.7-17.8,9.4-35.6,14-53.4c0.4-1.6,1.6-3.1,3.9-3.1
		c20.9,0,41.8,0,62.6,0c1.7-0.1,2.3,1.7,1.6,3.5c-4.4,16.8-8.8,33.6-13.3,50.5c-4.4-9.7-8.8-19.4-13.3-29.1c-6,0-12.1,0-18.1,0
		C152.8,130.4,158.3,142.5,163.8,154.6z"/>
</g>
</svg>
