<svg xmlns="http://www.w3.org/2000/svg" viewBox="0 0 494.99 81.89"><g id="af70781d-3d0e-4881-b375-c336fa819786" data-name="BIO-INTERNATIONAL"><path d="M125.14,31.92c0,1.84-1,3.61-3.59,4.59A5.89,5.89,0,0,1,126,41.82c0,5.3-4.62,7-10.36,7H102.48V25h13.13C121.07,25,125.14,27.13,125.14,31.92Zm-17.52,2.66h8c3.29,0,4.35-1.19,4.35-2.55,0-1.09-1-2.93-4.35-2.93h-8Zm0,10.06h8c2.14,0,5.18-.61,5.18-2.86s-3-3.26-5.18-3.26h-8Z" transform="translate(-10.08 -7.88)" fill="#a9a8a9"/><path d="M129.89,48.82V25h5.18v23.8Z" transform="translate(-10.08 -7.88)" fill="#a9a8a9"/><path d="M168.21,37.06c-.08,6.15-4.47,12.3-14.2,12.3s-14.24-6-14.24-12.27S144.44,24.55,154,24.55,168.29,30.84,168.21,37.06Zm-23.29.1c.11,3.91,2.57,8.09,9.09,8.09s9-4.21,9.06-8.12-2.53-8.5-9.06-8.5S144.8,33.15,144.92,37.16Z" transform="translate(-10.08 -7.88)" fill="#a9a8a9"/><path d="M171.69,35.83h14.59v3.81H171.69Z" transform="translate(-10.08 -7.88)" fill="#a9a8a9"/><path d="M190.59,48.82V25h5.18v23.8Z" transform="translate(-10.08 -7.88)" fill="#a9a8a9"/><path d="M219.07,25h5.22V48.82h-5.22v0L206.49,32.77v16h-5.22V25h5.18l12.62,14.76Z" transform="translate(-10.08 -7.88)" fill="#a9a8a9"/><path d="M236.43,29.1h-8.78V25h22.78V29.1h-8.78V48.82h-5.22Z" transform="translate(-10.08 -7.88)" fill="#a9a8a9"/><path d="M274.43,48.82H253.71V25h20.72v4.36H258.89v5.47h15V39h-15V44.4h15.54Z" transform="translate(-10.08 -7.88)" fill="#a9a8a9"/><path d="M303.22,48.82H297L289,39.51h-5v9.31H278.7V25c4.39,0,8.78,0,13.17,0,6.53,0,10,3.1,10,7.21,0,3.26-1.74,5.88-7,6.8l8.38,9.48ZM283.92,29.2v6.26h7.95c3.32,0,4.75-1.22,4.75-3.13s-1.47-3.13-4.75-3.13Z" transform="translate(-10.08 -7.88)" fill="#a9a8a9"/><path d="M323.75,25H329V48.82h-5.22v0L311.17,32.77v16H306V25h5.18l12.62,14.76Z" transform="translate(-10.08 -7.88)" fill="#a9a8a9"/><path d="M353.6,44.33H339.13l-2.37,4.49H331.1L343.52,25h5.7l12.41,23.8h-5.69ZM346.37,30l-5.15,10.13h10.29Z" transform="translate(-10.08 -7.88)" fill="#a9a8a9"/><path d="M366.81,29.1H358V25h22.78V29.1H372V48.82h-5.22Z" transform="translate(-10.08 -7.88)" fill="#a9a8a9"/><path d="M384.21,48.82V25h5.18v23.8Z" transform="translate(-10.08 -7.88)" fill="#a9a8a9"/><path d="M422.54,37.06c-.08,6.15-4.47,12.3-14.2,12.3s-14.24-6-14.24-12.27,4.66-12.54,14.24-12.54S422.61,30.84,422.54,37.06Zm-23.3.1c.12,3.91,2.57,8.09,9.1,8.09s9-4.21,9.05-8.12-2.53-8.5-9.05-8.5S399.12,33.15,399.24,37.16Z" transform="translate(-10.08 -7.88)" fill="#a9a8a9"/><path d="M444.76,25H450V48.82h-5.22v0L432.18,32.77v16H427V25h5.18l12.62,14.76Z" transform="translate(-10.08 -7.88)" fill="#a9a8a9"/><path d="M474.62,44.33H460.14l-2.37,4.49h-5.66L464.53,25h5.7l12.42,23.8H477ZM467.38,30l-5.14,10.13h10.28Z" transform="translate(-10.08 -7.88)" fill="#a9a8a9"/><path d="M490.83,25V44.67h14.24v4.15H485.61V25Z" transform="translate(-10.08 -7.88)" fill="#a9a8a9"/></g><g id="a86db85b-709e-48eb-a3d9-e47bece572fd" data-name="LASER CLINIC"><path d="M111.56,73.07h7.75v3.06H107.14V57.33h4.42Z" transform="translate(-10.08 -7.88)" fill="#a9a8a9"/><path d="M157.53,76.13h-3.39a1.72,1.72,0,0,1-.94-.23,1.4,1.4,0,0,1-.52-.59l-1.42-3.7H143l-1.39,3.69a1.42,1.42,0,0,1-.51.57,1.6,1.6,0,0,1-.94.26h-3.44l8.13-18.8h4.51ZM144,69h6.22l-2.27-6a10.62,10.62,0,0,1-.42-1c-.15-.4-.3-.82-.44-1.29q-.21.7-.42,1.29c-.15.4-.28.74-.41,1Z" transform="translate(-10.08 -7.88)" fill="#a9a8a9"/><path d="M188.16,60.87a1,1,0,0,1-.39.4,1.23,1.23,0,0,1-.57.12,1.41,1.41,0,0,1-.69-.2c-.24-.13-.53-.27-.86-.43a9.33,9.33,0,0,0-1.15-.43,5.38,5.38,0,0,0-1.52-.2,3.58,3.58,0,0,0-2.28.62,2,2,0,0,0-.76,1.63,1.46,1.46,0,0,0,.41,1.06,3.56,3.56,0,0,0,1.09.72,11.61,11.61,0,0,0,1.55.54l1.77.52a18,18,0,0,1,1.78.65,6.67,6.67,0,0,1,1.55.94,4.4,4.4,0,0,1,1.09,1.39,4.51,4.51,0,0,1,.41,2,5.82,5.82,0,0,1-.5,2.39,5.42,5.42,0,0,1-1.45,2,7.11,7.11,0,0,1-2.35,1.31,9.63,9.63,0,0,1-3.16.48,12.23,12.23,0,0,1-3.94-.68,12.06,12.06,0,0,1-1.75-.78,7.12,7.12,0,0,1-1.44-1l1.31-1.77a1.15,1.15,0,0,1,.41-.34,1.32,1.32,0,0,1,.56-.13,1.6,1.6,0,0,1,.84.27c.28.17.62.37,1,.58a9.14,9.14,0,0,0,1.32.58,5.7,5.7,0,0,0,1.8.26,3.81,3.81,0,0,0,2.36-.65,2.3,2.3,0,0,0,.84-1.93,1.69,1.69,0,0,0-.41-1.17,3.31,3.31,0,0,0-1.09-.76,8.94,8.94,0,0,0-1.54-.52l-1.76-.48a16.08,16.08,0,0,1-1.77-.61,5.79,5.79,0,0,1-1.54-1,4.6,4.6,0,0,1-1.08-1.47,5.2,5.2,0,0,1-.41-2.18,4.53,4.53,0,0,1,.47-2,5.1,5.1,0,0,1,1.38-1.75,6.76,6.76,0,0,1,2.22-1.22,9.08,9.08,0,0,1,3-.47,11.6,11.6,0,0,1,3.56.53,8.57,8.57,0,0,1,2.8,1.47Z" transform="translate(-10.08 -7.88)" fill="#a9a8a9"/><path d="M223,57.33v3h-9.18v5H221V68.1h-7.15v5.07h9.2l0,3H209.42V57.33Z" transform="translate(-10.08 -7.88)" fill="#a9a8a9"/><path d="M247.46,68.9v7.23H243V57.33h6.73a15.75,15.75,0,0,1,3.83.4,7.84,7.84,0,0,1,2.62,1.13,4.4,4.4,0,0,1,1.48,1.72,5.35,5.35,0,0,1,.17,4,5,5,0,0,1-.88,1.52,6.26,6.26,0,0,1-1.42,1.21,7.74,7.74,0,0,1-1.93.86,4.63,4.63,0,0,1,.79.48,3.58,3.58,0,0,1,.68.67l5,6.85h-4a1.93,1.93,0,0,1-1.63-.75l-4.07-5.86a1.33,1.33,0,0,0-.56-.48,2.1,2.1,0,0,0-.88-.14Zm0-2.65h2.26a6.34,6.34,0,0,0,1.85-.24,3.58,3.58,0,0,0,1.29-.67,2.76,2.76,0,0,0,.75-1,3.35,3.35,0,0,0,.24-1.28,2.49,2.49,0,0,0-1-2.12,5.25,5.25,0,0,0-3.09-.74h-2.29Z" transform="translate(-10.08 -7.88)" fill="#a9a8a9"/><path d="M343.63,71.57a.88.88,0,0,1,.6.23L346,73.4a7.83,7.83,0,0,1-3,2.18,11.33,11.33,0,0,1-4.33.75,11.19,11.19,0,0,1-4.08-.71,8.6,8.6,0,0,1-5-5.05,10.67,10.67,0,0,1-.68-3.85,10.19,10.19,0,0,1,.73-3.88,9,9,0,0,1,2.06-3,9.58,9.58,0,0,1,3.18-2,11.33,11.33,0,0,1,4.07-.7,10.89,10.89,0,0,1,4,.67,8.58,8.58,0,0,1,2.89,1.78l-1.48,1.74a1.88,1.88,0,0,1-.34.28,1,1,0,0,1-.55.13,1.21,1.21,0,0,1-.68-.23,8.3,8.3,0,0,0-.8-.49,6.14,6.14,0,0,0-1.21-.5,6.26,6.26,0,0,0-1.84-.23,5.77,5.77,0,0,0-2.24.43A4.71,4.71,0,0,0,334.87,62a5.57,5.57,0,0,0-1.12,2,8.81,8.81,0,0,0-.4,2.73,8,8,0,0,0,.44,2.74,6.05,6.05,0,0,0,1.19,2,4.87,4.87,0,0,0,1.75,1.27,5.64,5.64,0,0,0,2.17.43,9.49,9.49,0,0,0,1.25-.07,4.7,4.7,0,0,0,1-.22,4.63,4.63,0,0,0,.9-.42,5.2,5.2,0,0,0,.84-.64,2.9,2.9,0,0,1,.34-.19A1,1,0,0,1,343.63,71.57Z" transform="translate(-10.08 -7.88)" fill="#a9a8a9"/><path d="M369.39,73.07h7.75v3.06H365V57.33h4.42Z" transform="translate(-10.08 -7.88)" fill="#a9a8a9"/><path d="M401.33,76.13h-4.44V57.33h4.44Z" transform="translate(-10.08 -7.88)" fill="#a9a8a9"/><path d="M423.26,57.35a1.35,1.35,0,0,1,.36.08,1.49,1.49,0,0,1,.3.18,4.09,4.09,0,0,1,.33.3l11,12.2a15.85,15.85,0,0,1-.11-1.77v-11H439v18.8h-2.27a2.19,2.19,0,0,1-.87-.15,2.36,2.36,0,0,1-.68-.48l-11-12.14a13.8,13.8,0,0,1,.1,1.63V76.13h-3.9V57.33h2.32A3.62,3.62,0,0,1,423.26,57.35Z" transform="translate(-10.08 -7.88)" fill="#a9a8a9"/><path d="M462.73,76.13h-4.44V57.33h4.44Z" transform="translate(-10.08 -7.88)" fill="#a9a8a9"/><path d="M495.45,71.57a.88.88,0,0,1,.6.23l1.77,1.6a7.83,7.83,0,0,1-3,2.18,11.33,11.33,0,0,1-4.33.75,11.19,11.19,0,0,1-4.08-.71,8.6,8.6,0,0,1-5-5.05,10.67,10.67,0,0,1-.68-3.85,10.19,10.19,0,0,1,.73-3.88,9,9,0,0,1,2.06-3,9.58,9.58,0,0,1,3.18-2,11.33,11.33,0,0,1,4.07-.7,10.89,10.89,0,0,1,4,.67,8.58,8.58,0,0,1,2.89,1.78l-1.47,1.74a2.39,2.39,0,0,1-.35.28,1,1,0,0,1-.55.13,1.21,1.21,0,0,1-.68-.23,7.22,7.22,0,0,0-.8-.49,6.14,6.14,0,0,0-1.21-.5,6.26,6.26,0,0,0-1.84-.23,5.77,5.77,0,0,0-2.24.43A4.71,4.71,0,0,0,486.69,62a5.72,5.72,0,0,0-1.12,2,8.82,8.82,0,0,0-.39,2.73,8,8,0,0,0,.43,2.74,6.05,6.05,0,0,0,1.19,2,5,5,0,0,0,1.75,1.27,5.64,5.64,0,0,0,2.17.43,9.49,9.49,0,0,0,1.25-.07,4.7,4.7,0,0,0,1-.22,4.63,4.63,0,0,0,.9-.42,5.2,5.2,0,0,0,.84-.64,2.37,2.37,0,0,1,.35-.19A.86.86,0,0,1,495.45,71.57Z" transform="translate(-10.08 -7.88)" fill="#a9a8a9"/><g id="b07e4ee8-455d-473c-8702-4b0ca32fcbec" data-name="since 1996"><path d="M278.22,58.94a2.46,2.46,0,0,0-1.83-.66c-.87,0-1.35.27-1.35.73s.44.75,1.38.81c1.4.09,3.17.41,3.17,2.37,0,1.31-1.07,2.43-3.18,2.43A4.31,4.31,0,0,1,273,63.3l.9-1.3a4,4,0,0,0,2.55,1c.69,0,1.33-.34,1.33-.88s-.42-.72-1.47-.78c-1.39-.11-3.06-.62-3.06-2.3s1.77-2.31,3.12-2.31a4,4,0,0,1,2.88,1Z" transform="translate(-10.08 -7.88)" fill="#a9a8a9"/><path d="M283.82,53.94v1.73H282V53.94Zm-1.8,3v7.43h1.83V56.94Z" transform="translate(-10.08 -7.88)" fill="#a9a8a9"/><path d="M292.2,64.37V60.5a1.76,1.76,0,0,0-1.78-2,1.81,1.81,0,0,0-1.89,1.92v3.93h-1.82V57h1.76v.85a3.19,3.19,0,0,1,2.43-1c1.74,0,3.13,1.31,3.13,3.63v3.89Z" transform="translate(-10.08 -7.88)" fill="#a9a8a9"/><path d="M303.21,63.42a3.79,3.79,0,0,1-2.85,1.17,3.92,3.92,0,1,1,0-7.83,3.5,3.5,0,0,1,2.67,1.1l-1.15,1.21a2.26,2.26,0,0,0-1.49-.58,2.08,2.08,0,0,0-2.13,2.19,2,2,0,0,0,2.1,2.16,2.22,2.22,0,0,0,1.62-.62Z" transform="translate(-10.08 -7.88)" fill="#a9a8a9"/><path d="M307.14,61.32a2,2,0,0,0,2.21,1.58,3.09,3.09,0,0,0,2-.69l1.17,1.15a4.55,4.55,0,0,1-3.18,1.2,3.91,3.91,0,1,1-.14-7.81c2.48,0,4,1.53,3.74,4.57Zm4-1.51a1.69,1.69,0,0,0-1.92-1.44,2,2,0,0,0-2.07,1.44Z" transform="translate(-10.08 -7.88)" fill="#a9a8a9"/><path d="M275.07,75.69V66.87h2v10.5h-2Z" transform="translate(-10.08 -7.88)" fill="#a9a8a9"/><path d="M282,74.79a2.63,2.63,0,0,0,2.32,1,2.82,2.82,0,0,0,2.6-2.39v0a3.12,3.12,0,0,1-2.43,1.11c-2.12,0-4.34-1.19-4.34-3.8a4.37,4.37,0,0,1,8.73,0v2.67a4.57,4.57,0,0,1-8.38,2Zm.12-4.07a2.22,2.22,0,0,0,2.37,2.07,2.26,2.26,0,0,0,2.43-2.07,2.4,2.4,0,0,0-4.8,0Z" transform="translate(-10.08 -7.88)" fill="#a9a8a9"/><path d="M293.43,74.79a2.65,2.65,0,0,0,2.33,1,2.8,2.8,0,0,0,2.59-2.39v0a3.09,3.09,0,0,1-2.43,1.11c-2.11,0-4.33-1.19-4.33-3.8a4.37,4.37,0,0,1,8.73,0v2.67a4.58,4.58,0,0,1-8.39,2Zm.12-4.07a2.22,2.22,0,0,0,2.37,2.07,2.26,2.26,0,0,0,2.43-2.07,2.4,2.4,0,0,0-4.8,0Z" transform="translate(-10.08 -7.88)" fill="#a9a8a9"/><path d="M309.87,69.54a2.63,2.63,0,0,0-2.32-1A2.81,2.81,0,0,0,305,70.9v0a3.12,3.12,0,0,1,2.43-1.11c2.12,0,4.34,1.18,4.34,3.79,0,2.33-2.24,3.93-4.35,3.93a4.24,4.24,0,0,1-4.38-4V70.9a4.57,4.57,0,0,1,8.38-2Zm-.12,4.06a2.22,2.22,0,0,0-2.37-2.07A2.26,2.26,0,0,0,305,73.6a2.41,2.41,0,0,0,4.8,0Z" transform="translate(-10.08 -7.88)" fill="#a9a8a9"/></g></g><g id="ebacf475-6079-47c4-bdcd-77f2ba578f05" data-name="B"><g id="b8a4078c-5acd-481d-b8b4-988b7b09647f" data-name="LWPOLYLINE"><path d="M78.33,67.86A32.65,32.65,0,1,0,35,19.06,33.27,33.27,0,0,0,31.24,23,32.8,32.8,0,0,1,78.33,67.86Z" transform="translate(-10.08 -7.88)" fill="#a9a8a9"/></g><g id="f6ac3d0a-1d9d-45fb-8f81-7c7c7a850b26" data-name="LWPOLYLINE"><path d="M40.17,7.88A41.77,41.77,0,1,0,92.33,58.33,39.19,39.19,0,1,1,40.17,7.88Z" transform="translate(-10.08 -7.88)" fill="#a9a8a9"/></g><g id="eb557217-a33c-44ee-8156-663fcd18932f" data-name="LWPOLYLINE"><rect x="24.42" y="18.81" width="10.71" height="10.71" fill="#a9a8a9"/></g><path d="M71.13,53.5a12.48,12.48,0,0,0-2.87-6A12.51,12.51,0,0,0,61,27H46.75v9.79h13a3.16,3.16,0,0,1,0,6.08H45.36v-3.5H34.55V68H61A12.51,12.51,0,0,0,71.13,53.5ZM59.74,58.69H45.36V52.61H59.74a3.16,3.16,0,0,1,0,6.08Z" transform="translate(-10.08 -7.88)" fill="#a9a8a9"/></g></svg>