<svg id="Layer_1" height="512" viewBox="0 0 256 256" width="512" xmlns="http://www.w3.org/2000/svg"><path d="m158.01 227.923h-60.02l4.65-29.43 1.67-10.54h47.38l1.67 10.54z" fill="#afafaf"/><path d="m153.36 198.493h-50.72l1.67-10.54h47.38z" fill="#878787"/><path d="m251.04 45.76v132.2c0 5.52-4.48 10-10 10h-226.08c-5.52 0-10-4.48-10-10v-132.2c0-5.52 4.48-10 10-10h93.89v47.25h19.8v-47.25h112.39c5.52 0 10 4.48 10 10z" fill="#72c2e9"/><path d="m135.65 35.76v54.25h-33.8v-54.25h7v47.25h19.8v-47.25z" fill="#4ba5c8"/><path d="m234.04 56.76v110.2c0 2.21-1.79 4-4 4h-204.08c-2.21 0-4-1.79-4-4v-110.2c0-2.21 1.79-4 4-4h82.89v30.25h19.8v-30.25h101.39c2.21 0 4 1.79 4 4z" fill="#f0efed"/><path d="m101.85 52.76h7v30.25h-7z" fill="#d6c0b3"/><path d="m128.65 52.76h7v30.25h-7z" fill="#d6c0b3"/><path d="m57.745 117.64c-4.094-1.353-8.322-2.535-10.696-12.76-2.186 9.418-5.689 11.106-10.696 12.76 8.166 2.698 9.398 7.166 10.696 12.76 2.238-9.643 5.939-11.188 10.696-12.76z" fill="#f0c020"/><path d="m215.495 75.64c-4.094-1.353-8.322-2.535-10.696-12.76-2.186 9.418-5.689 11.106-10.696 12.76 8.166 2.698 9.398 7.166 10.696 12.76 2.238-9.643 5.939-11.188 10.696-12.76z" fill="#f0c020"/><path d="m180.925 239.902v4.678c0 2.761-2.239 5-5 5h-95.85c-2.761 0-5-2.239-5-5v-4.678c0-6.616 5.345-11.985 11.985-11.985h81.881c6.639 0 11.984 5.369 11.984 11.985z" fill="#72c2e9"/><path d="m128.65 16.333v66.68h-19.8v-66.68c0-5.47 4.44-9.91 9.91-9.91 5.54 0 9.89 4.51 9.89 9.91z" fill="#afafaf"/><path d="m163.76 127.213v8.95c0 7.45-6.05 13.5-13.5 13.5h-90.02c7.47 0 13.5-6.05 13.5-13.5v-32.72h79.61c-.35 1.56-.54 3.18-.54 4.84 0 8.1 4.4 15.16 10.95 18.93z" fill="#f1c020"/><path d="m162.25 90.303c-4.43 3.05-7.68 7.71-8.9 13.14h-79.61v-6.93c0-7.46 6.05-13.5 13.51-13.5h63.01c3.03 0 5.83 1 8.08 2.7 1.63 1.21 2.96 2.78 3.91 4.59z" fill="#fc5d3d"/><path d="m162.25 90.303c-4.43 3.05-7.68 7.71-8.9 13.14h-6.11c1.26-7.32 5.38-13.59 11.1-17.73 1.63 1.21 2.96 2.78 3.91 4.59z" fill="#b34f33"/><path d="m163.76 127.213v6.7c-9.96-4.26-16.95-14.16-16.95-25.63 0-1.66.14-3.27.43-4.84h6.11c-.35 1.56-.54 3.18-.54 4.84 0 8.1 4.4 15.16 10.95 18.93z" fill="#e8a61c"/><path d="m196.55 108.283c0 12.07-9.79 21.86-21.87 21.86-3.98 0-7.71-1.06-10.92-2.93-6.55-3.77-10.95-10.83-10.95-18.93 0-1.66.19-3.28.54-4.84 1.22-5.43 4.47-10.09 8.9-13.14 3.53-2.46 7.81-3.89 12.43-3.89 12.08 0 21.87 9.79 21.87 21.87z" fill="#13bf6c"/><path d="m224.036 163.459h-176.806c-1.381 0-2.5-1.119-2.5-2.5s1.119-2.5 2.5-2.5h174.306v-95.694c0-1.381 1.119-2.5 2.5-2.5s2.5 1.119 2.5 2.5v98.194c0 1.381-1.119 2.5-2.5 2.5zm-186.806 0h-5.267c-1.381 0-2.5-1.119-2.5-2.5s1.119-2.5 2.5-2.5h5.267c1.381 0 2.5 1.119 2.5 2.5s-1.119 2.5-2.5 2.5z" fill="#fff"/><g fill="#cf9519"><path d="m86.75 137.43c-1.38 0-2.5-1.13-2.5-2.51v-2.021c0-1.38 1.12-2.5 2.5-2.5s2.5 1.12 2.5 2.5v2.021c0 1.38-1.12 2.51-2.5 2.51z"/><path d="m146.81 140.939c-1.38 0-2.5-1.12-2.5-2.5v-2.029c0-1.38 1.12-2.5 2.5-2.5s2.5 1.12 2.5 2.5v2.029c0 1.38-1.121 2.5-2.5 2.5z"/><path d="m112 130.06c-1.38 0-2.5-1.12-2.5-2.5v-2.02c0-1.38 1.12-2.5 2.5-2.5s2.5 1.12 2.5 2.5v2.02c0 1.379-1.12 2.5-2.5 2.5z"/><path d="m125.75 117.859c-1.38 0-2.5-1.119-2.5-2.5v-2.02c0-1.38 1.12-2.5 2.5-2.5s2.5 1.12 2.5 2.5v2.02c0 1.381-1.12 2.5-2.5 2.5z"/></g><path d="m241.04 190.463c6.893 0 12.5-5.607 12.5-12.5v-132.199c0-6.893-5.607-12.5-12.5-12.5h-109.887v-16.934c0-6.843-5.561-12.41-12.396-12.41-6.843 0-12.41 5.567-12.41 12.41v16.934h-91.387c-6.893 0-12.5 5.607-12.5 12.5v132.199c0 6.893 5.607 12.5 12.5 12.5h86.422l-5.527 34.954h-8.795c-7.987 0-14.485 6.498-14.485 14.484v4.679c0 4.136 3.364 7.5 7.5 7.5h95.85c4.136 0 7.5-3.364 7.5-7.5v-4.679c0-7.986-6.498-14.484-14.484-14.484h-8.796l-5.527-34.954zm-85.73-82.18c0-10.77 8.751-19.37 19.37-19.37 10.681 0 19.37 8.689 19.37 19.37 0 10.676-8.689 19.36-19.37 19.36-10.71.001-19.37-8.734-19.37-19.36zm-3.862-7.344h-75.208v-4.43c.01-6.05 4.95-10.99 11.01-11h63.01c3.501 0 6.591 1.626 8.637 4.222-3.503 2.966-6.075 6.838-7.449 11.208zm-32.691-92.019c4.079 0 7.396 3.324 7.396 7.41v64.18h-14.806c0-16.895 0-30.005 0-64.18.001-4.086 3.324-7.41 7.41-7.41zm-111.297 169.043v-132.199c0-4.136 3.365-7.5 7.5-7.5h91.388v11.996h-80.388c-3.58 0-6.5 2.92-6.5 6.5v34.73c0 1.38 1.12 2.5 2.5 2.5s2.5-1.12 2.5-2.5v-34.73c0-.82.67-1.5 1.5-1.5h80.388v25.25h-19.098c-8.83 0-16.01 7.18-16.01 16v39.653c0 6.065-4.935 11-11 11-1.381 0-2.5 1.119-2.5 2.5s1.119 2.5 2.5 2.5c8.822 0 16-7.178 16-16v-30.224h23.586v30.223c0 6.066-4.935 11.001-11.001 11.001-1.381 0-2.5 1.119-2.5 2.5s1.119 2.5 2.5 2.5c8.823 0 16.001-7.178 16.001-16.001v-30.223h28.073v11.44c0 1.38 1.131 2.5 2.5 2.5 1.381 0 2.5-1.12 2.5-2.5v-11.44h12.531c-.076.781-.121 1.564-.121 2.344 0 8.191 4.166 15.847 10.95 20.319v7.558c-.01 6.06-4.95 10.989-11 11-1.38 0-2.5 1.12-2.5 2.5s1.12 2.5 2.5 2.5c8.82 0 16-7.181 16-16v-5.03c2.678.989 5.527 1.513 8.42 1.513 13.438 0 24.37-10.928 24.37-24.36 0-13.438-10.933-24.37-24.37-24.37-4.128 0-8.11 1.041-11.663 2.994-3.161-4.188-7.848-6.397-12.757-6.397h-19.106v-25.25h98.887c.819 0 1.5.68 1.5 1.5v110.2c0 .83-.681 1.5-1.5 1.5h-204.08c-.83 0-1.5-.67-1.5-1.5v-55.47c0-1.381-1.12-2.5-2.5-2.5s-2.5 1.119-2.5 2.5v55.47c0 3.59 2.92 6.5 6.5 6.5h204.08c3.58 0 6.5-2.91 6.5-6.5v-110.2c0-3.58-2.92-6.5-6.5-6.5h-98.887v-11.996h109.887c4.136 0 7.5 3.364 7.5 7.5v132.199c0 4.136-3.364 7.5-7.5 7.5 0 0-208.37 0-226.08 0-4.135 0-7.5-3.364-7.5-7.5zm170.965 61.938v4.679c0 1.379-1.121 2.5-2.5 2.5h-95.85c-1.378 0-2.5-1.121-2.5-2.5v-4.679c0-5.229 4.255-9.484 9.485-9.484h81.881c5.229 0 9.484 4.255 9.484 9.484zm-23.342-14.484h-54.166l5.527-34.954h43.113z"/><circle cx="21.96" cy="101.49" r="2.5"/><path d="m121.9 152.16h.02c8.323 0 15.199-6.398 15.92-14.561.12-1.37-.9-2.59-2.271-2.71-1.39-.13-2.59.891-2.71 2.26-.51 5.71-5.22 10.011-10.959 10.011-1.37 0-2.5 1.12-2.5 2.5s1.13 2.5 2.5 2.5z"/><circle cx="135.399" cy="127.38" r="2.5"/><path d="m185.55 100.439c-.94-.939-2.59-.939-3.53 0l-10.38 10.38-4.3-4.31c-.94-.94-2.59-.94-3.53 0-1.046 1.049-.904 2.635-.01 3.53 0 0 0 0 .01.01l6.07 6.07c.977.977 2.56.968 3.53 0l12.14-12.141c.98-.978.98-2.558 0-3.539z"/><path d="m35.57 120.014c7.044 2.328 7.84 5.759 9.044 10.952.263 1.133 1.272 1.935 2.436 1.935s2.172-.802 2.436-1.935c2-8.624 4.955-9.6 9.044-10.952 2.282-.753 2.28-3.994 0-4.747-3.916-1.293-6.995-2.12-9.045-10.953-.598-2.578-4.273-2.576-4.87 0-2.002 8.625-4.957 9.602-9.045 10.952-2.283.754-2.28 3.996 0 4.748zm11.489-7.636c1.355 2.581 2.935 4.194 4.561 5.29-1.71 1.136-3.229 2.705-4.512 5.106-1.02-1.842-2.492-3.582-4.764-5.071 1.796-1.163 3.384-2.787 4.715-5.325z"/><path d="m207.235 88.966c2-8.624 4.955-9.6 9.044-10.952 2.282-.753 2.28-3.994 0-4.747-3.916-1.293-6.995-2.12-9.045-10.953-.598-2.578-4.273-2.576-4.87 0-2.002 8.625-4.957 9.602-9.045 10.952-2.283.754-2.28 3.996 0 4.748 7.044 2.328 7.84 5.759 9.044 10.952.598 2.567 4.274 2.572 4.872 0zm-7.141-13.264c1.795-1.162 3.384-2.786 4.715-5.324 1.355 2.581 2.935 4.194 4.561 5.29-1.71 1.136-3.229 2.705-4.512 5.106-1.02-1.843-2.492-3.583-4.764-5.072z"/></svg>