<svg id="_x33_0" enable-background="new 0 0 62 62" height="512" viewBox="0 0 62 62" width="512" xmlns="http://www.w3.org/2000/svg"><g><g><g><path d="m41 35h8c1.1 0 2 .9 2 2v6 13c0 2.76-2.24 5-5 5h-1v-10-11.27c0-1.31-.53-2.49-1.39-3.34-.83-.84-1.97-1.36-3.23-1.39v-.02c.21.01.41.02.62.02z" fill="#b27946"/></g><g><path d="m45 51v10h-18v-8h7c.55 0 1-.45 1-1v-1z" fill="#d3a06c"/></g><g><path d="m3 53h24v8h-24z" fill="#dfb28b"/></g><g><path d="m35 51v1c0 .55-.45 1-1 1h-7-24-1c-.55 0-1-.45-1-1v-2c0-.55.45-1 1-1h1 11 10 1 2 7c.55 0 1 .45 1 1z" fill="#cf9e76"/></g><g><path d="m35.73 49c5.12 0 9.27-4.15 9.27-9.27v11.27h-10v-1c0-.55-.45-1-1-1z" fill="#fcd770"/></g><g><path d="m40.27 35h.11c1.26.03 2.4.55 3.23 1.39.86.85 1.39 2.03 1.39 3.34 0 5.12-4.15 9.27-9.27 9.27h-1.73-7v-6h3 4l1.85-4.93c.35-.93.96-1.69 1.73-2.23s1.7-.84 2.69-.84z" fill="#fcd770"/></g><g><path d="m32.51 31.49c1.77 1.76 4.08 2.98 7.87 3.49v.02c-.04 0-.07 0-.11 0-.99 0-1.92.3-2.69.84s-1.38 1.3-1.73 2.23l-1.85 4.93h-4l-3.6-10.81c-.24-.71-.9-1.19-1.65-1.19h-.75l-.94-1.42c-.69-1.03-1.06-2.24-1.06-3.48 0-1.36.44-2.69 1.26-3.78 1.13-1.5 1.74-3.34 1.74-5.22v-.1c0-4.42 1.79-8.42 4.68-11.32 2.9-2.89 6.9-4.68 11.32-4.68s8.42 1.79 11.32 4.68c2.89 2.9 4.68 6.9 4.68 11.32 0 1.96.58 3.87 1.66 5.5l.88 1.3c.95 1.44 1.46 3.12 1.46 4.84 0 2.74-1.29 5.33-3.49 6.98l-.51.38c0 3.46-2.5 6.42-5.92 6.99l-.08.01v-6c0-1.1-.9-2-2-2h-8c6.63 0 12-5.37 12-12v-7l-13.62-.72c-1.87-.1-3.62-.81-4.99-1.97l-3.73 1.86c-1.02.51-1.66 1.55-1.66 2.68v5.15c0 3.32 1.34 6.32 3.51 8.49z" fill="#656d78"/></g><g><path d="m13.57 47.27.43 1.73h-11l.55-4h7.11c1.37 0 2.57.94 2.91 2.27z" fill="#aab2bd"/></g><g><path d="m12.97 38.83c.02.11.03.23.03.34 0 1.01-.82 1.83-1.83 1.83h-1.66c-.88 0-1.63-.62-1.79-1.48l-2.01-10.41-2.68-13.94c-.02-.11-.03-.23-.03-.34 0-1.01.82-1.83 1.83-1.83h1.66c.88 0 1.63.62 1.79 1.48z" fill="#ccd1d9"/></g><g><path d="m26.4 32.19 3.6 10.81h-3-3c-1.66 0-3 1.34-3 3l-3.92-12.75c-.05-.17-.08-.34-.08-.51 0-.96.78-1.74 1.74-1.74h5.26.75c.75 0 1.41.48 1.65 1.19z" fill="#e6e9ed"/></g><g><path d="m27 43v6h-2-1c-.83 0-1.58-.34-2.12-.88s-.88-1.29-.88-2.12c0-1.66 1.34-3 3-3z" fill="#f0d0b4"/></g><g><path d="m53 16v7c0 6.63-5.37 12-12 12-.21 0-.41-.01-.62-.02-3.79-.51-6.1-1.73-7.87-3.49-2.17-2.17-3.51-5.17-3.51-8.49v-5.15c0-1.13.64-2.17 1.66-2.68l3.73-1.86c1.37 1.16 3.12 1.87 4.99 1.97z" fill="#f0d0b4"/></g><g><path d="m45 27-.27 1.09c-.43 1.71-1.97 2.91-3.73 2.91s-3.3-1.2-3.73-2.91l-.27-1.09z" fill="#ff826e"/></g></g><g><path d="m36.303 28.332c.54 2.16 2.471 3.668 4.697 3.668s4.157-1.508 4.697-3.668l.584-2.332h-10.562zm7.412-.332c-.367 1.186-1.462 2-2.715 2s-2.348-.814-2.715-2z"/><path d="m34 21c0-.552.448-1 1-1s1 .448 1 1v1h2v-1c0-1.654-1.346-3-3-3s-3 1.346-3 3v1h2z"/><path d="m46 21c0-.552.448-1 1-1s1 .448 1 1v1h2v-1c0-1.654-1.346-3-3-3s-3 1.346-3 3v1h2z"/><path d="m21 34h4v2h-4z"/><path d="m22 38h4v2h-4z"/><path d="m6 6h2v2h-2z"/><path d="m10 6h2v2h-2z"/><path d="m14 6h2v2h-2z"/><path d="m60.367 23.249-.871-1.308c-.978-1.468-1.496-3.177-1.496-4.941 0-9.374-7.626-17-17-17s-17 7.626-17 17.096c0 1.658-.548 3.302-1.542 4.627-.94 1.253-1.458 2.805-1.458 4.373 0 1.39.401 2.734 1.145 3.904h-3.407c-1.509 0-2.738 1.229-2.738 2.738 0 .271.041.542.121.806l3.902 12.681c.037.646.225 1.246.533 1.775h-5.776l-.242-.97c-.445-1.784-2.042-3.03-3.881-3.03h-5.966l1.189-8.722.852 4.429.001.001c.256 1.328 1.423 2.292 2.776 2.292h1.665c1.558 0 2.826-1.268 2.826-2.826 0-.181-.018-.362-.051-.533l-4.682-24.349c-.256-1.328-1.423-2.292-2.776-2.292h-1.665c-1.558 0-2.826 1.268-2.826 2.826 0 .181.018.362.051.533l2.649 13.775-2.573 18.866h-.127c-1.103 0-2 .897-2 2v2c0 1.103.897 2 2 2v8h44c3.309 0 6-2.691 6-6v-12.192c3.356-.889 5.768-3.811 5.984-7.296l.127-.096c2.436-1.826 3.889-4.733 3.889-7.776 0-1.926-.564-3.789-1.633-5.391zm-56.367-8.423c0-.455.371-.826.826-.826h1.665c.396 0 .737.282.812.67l4.684 24.354c.01.05.014.101.014.15-.001.455-.372.826-.827.826h-1.665c-.396 0-.737-.282-.813-.671l.001.001-4.683-24.353c-.01-.05-.014-.101-.014-.151zm14 17.912c0-.407.331-.738.738-.738h6.009c.318 0 .6.203.701.505l3.165 9.495h-4.613c-1.102 0-2.1.448-2.824 1.17l-3.143-10.213c-.021-.072-.033-.145-.033-.219zm15.586 11.262 1.707 1.707 1.414-1.414-1.544-1.544 1.624-4.332c.542-1.445 1.943-2.417 3.487-2.417 2.055 0 3.726 1.671 3.726 3.726 0 4.562-3.712 8.274-8.274 8.274h-1.726-6v-4zm.692-29.521c1.449 1.056 3.193 1.705 5.047 1.803l12.675.667v6.051c0 6.065-4.935 11-11 11s-11-4.935-11-11v-5.146c0-.763.424-1.448 1.105-1.789zm-.278 39.521c1.103 0 2-.897 2-2h8v8h-16v-6zm10-4h-8c0-.005-.001-.009-.001-.014 3.283-.087 6.18-1.718 8.001-4.196zm-22-4c0-1.103.897-2 2-2h2v4h-1-1c-1.103 0-2-.897-2-2zm-17.581 0h6.239c.92 0 1.718.623 1.941 1.515l.121.485h-8.574zm-2.419 4h22 1 9l.002 2h-32.002zm2 4h22v6h-22zm46 2c0 2.206-1.794 4-4 4v-20.274c0-1.423-.525-2.723-1.387-3.726h4.387c.552 0 1 .448 1 1zm6.912-21.184-.912.684v.5c0 2.605-1.629 4.857-4 5.715v-4.715c0-1.654-1.346-3-3-3h-1.104c3.659-2.303 6.104-6.367 6.104-11v-5.946-1.054c0-2.793-1.987-5.217-4.726-5.765l-1.078-.216-.393 1.961 1.078.216c1.448.29 2.577 1.374 2.969 2.742l-12.42-.654c-2.879-.151-5.432-1.979-6.502-4.655l-1.857.742c.396.989.966 1.873 1.644 2.653l-2.504 1.252c-1.363.682-2.211 2.053-2.211 3.578v5.146c0 5.668 3.653 10.488 8.723 12.262-.796.633-1.438 1.465-1.809 2.453l-1.607 4.285h-2.587l-3.376-10.129c-.373-1.119-1.417-1.871-2.597-1.871h-.212l-.647-.971c-.581-.871-.888-1.885-.888-2.933 0-1.137.376-2.264 1.058-3.173 1.253-1.67 1.942-3.739 1.942-5.923 0-8.271 6.729-15 15-15s15 6.729 15 15c0 2.16.634 4.253 1.832 6.051l.871 1.308c.849 1.271 1.297 2.751 1.297 4.281 0 2.417-1.154 4.725-3.088 6.176z"/></g></g></svg>