<svg xmlns="http://www.w3.org/2000/svg" viewBox="0 0 233.34 69.2"><g id="b97073ce-9c78-4f66-a4aa-80d4c71d3a68" data-name="CHARTERED"><path d="M188.73,71a5.39,5.39,0,0,1-2.22.39,3.87,3.87,0,0,1-2.81-1,3.53,3.53,0,0,1-1-2.65,3.75,3.75,0,0,1,1.15-2.86,4.14,4.14,0,0,1,3-1.1,5.92,5.92,0,0,1,1.92.27v1.6a3.48,3.48,0,0,0-1.78-.44,2.43,2.43,0,0,0-1.76.65,2.35,2.35,0,0,0,1.67,4.1,3.75,3.75,0,0,0,1.87-.48Z" transform="translate(-35.57 -35.91)" fill="#006fb9"/><path d="M197.35,71.3H195.6v-3h-3.22v3h-1.74V64h1.74v2.93h3.22V64h1.75Z" transform="translate(-35.57 -35.91)" fill="#006fb9"/><path d="M206.51,71.3H204.6l-.55-1.64h-2.76l-.55,1.64h-1.89L201.68,64h2.07Zm-2.86-2.91-.83-2.47a2.85,2.85,0,0,1-.13-.66h-.05a2.43,2.43,0,0,1-.13.64l-.84,2.49Z" transform="translate(-35.57 -35.91)" fill="#006fb9"/><path d="M214.55,71.3h-2l-1.21-1.89c-.09-.15-.18-.28-.26-.39a2.49,2.49,0,0,0-.25-.29.91.91,0,0,0-.27-.18.6.6,0,0,0-.3-.07h-.47V71.3H208V64h2.77c1.89,0,2.83.66,2.83,2a2.08,2.08,0,0,1-.12.71,1.94,1.94,0,0,1-.36.58,1.87,1.87,0,0,1-.55.45,2.66,2.66,0,0,1-.71.3v0a1.3,1.3,0,0,1,.33.17,1.58,1.58,0,0,1,.32.27c.1.1.19.21.29.33l.25.34Zm-4.77-6.11v2h.76a1.26,1.26,0,0,0,.9-.31,1,1,0,0,0,.35-.77c0-.64-.41-1-1.22-1Z" transform="translate(-35.57 -35.91)" fill="#006fb9"/><path d="M221.28,65.29h-2.22v6h-1.75v-6h-2.2V64h6.17Z" transform="translate(-35.57 -35.91)" fill="#006fb9"/><path d="M227.53,71.3h-4.66V64h4.48v1.34h-2.73v1.64h2.54v1.34h-2.54V70h2.91Z" transform="translate(-35.57 -35.91)" fill="#006fb9"/><path d="M235.84,71.3h-2l-1.2-1.89c-.09-.15-.18-.28-.26-.39a2.52,2.52,0,0,0-.26-.29.87.87,0,0,0-.26-.18.6.6,0,0,0-.3-.07h-.47V71.3h-1.75V64h2.77c1.88,0,2.83.66,2.83,2a2.08,2.08,0,0,1-.13.71,1.91,1.91,0,0,1-.35.58,1.87,1.87,0,0,1-.55.45,2.6,2.6,0,0,1-.72.3v0a1.2,1.2,0,0,1,.34.17,1.54,1.54,0,0,1,.31.27,3.11,3.11,0,0,1,.29.33c.09.12.18.23.25.34Zm-4.76-6.11v2h.76a1.28,1.28,0,0,0,.9-.31,1,1,0,0,0,.35-.77c0-.64-.41-1-1.22-1Z" transform="translate(-35.57 -35.91)" fill="#006fb9"/><path d="M241.78,71.3h-4.66V64h4.48v1.34h-2.73v1.64h2.54v1.34h-2.54V70h2.91Z" transform="translate(-35.57 -35.91)" fill="#006fb9"/><path d="M243.58,71.3V64h2.75q4.13,0,4.13,3.58a3.53,3.53,0,0,1-1.13,2.74,4.25,4.25,0,0,1-3,1Zm1.74-6V70h.87a2.23,2.23,0,0,0,2.43-2.4A2.14,2.14,0,0,0,248,65.9a2.55,2.55,0,0,0-1.8-.61Z" transform="translate(-35.57 -35.91)" fill="#006fb9"/><path d="M184.91,81.47V84h-1.75V76.65h2.74q2.94,0,2.94,2.34a2.2,2.2,0,0,1-.84,1.79,3.47,3.47,0,0,1-2.25.69Zm0-3.55v2.29h.69c.93,0,1.4-.39,1.4-1.16s-.47-1.13-1.4-1.13Z" transform="translate(-35.57 -35.91)" fill="#006fb9"/><path d="M197,84h-2l-1.21-1.89a3.3,3.3,0,0,0-.26-.39,1.8,1.8,0,0,0-.25-.29.87.87,0,0,0-.26-.18.6.6,0,0,0-.3-.07h-.47V84h-1.75V76.65h2.77c1.88,0,2.83.66,2.83,2a2.08,2.08,0,0,1-.13.71,1.91,1.91,0,0,1-.35.58,2,2,0,0,1-.55.45,2.73,2.73,0,0,1-.72.3v0a1.2,1.2,0,0,1,.34.17,1.93,1.93,0,0,1,.31.27,3.11,3.11,0,0,1,.29.33c.09.12.18.23.25.34Zm-4.76-6.11v2H193a1.29,1.29,0,0,0,.91-.31,1,1,0,0,0,.34-.77c0-.64-.4-1-1.21-1Z" transform="translate(-35.57 -35.91)" fill="#006fb9"/><path d="M201.6,84.13a3.75,3.75,0,0,1-2.72-1,3.59,3.59,0,0,1-1-2.68,3.85,3.85,0,0,1,1.07-2.82,3.78,3.78,0,0,1,2.82-1.08,3.54,3.54,0,0,1,3.72,3.75,3.67,3.67,0,0,1-3.84,3.86Zm.08-6.18a1.82,1.82,0,0,0-1.47.65,2.63,2.63,0,0,0-.54,1.73,2.58,2.58,0,0,0,.54,1.73,1.8,1.8,0,0,0,1.42.64,1.82,1.82,0,0,0,1.44-.62,2.58,2.58,0,0,0,.53-1.72,2.74,2.74,0,0,0-.52-1.78A1.71,1.71,0,0,0,201.68,78Z" transform="translate(-35.57 -35.91)" fill="#006fb9"/><path d="M211.77,78H209V79.8h2.52v1.34H209V84h-1.75V76.65h4.49Z" transform="translate(-35.57 -35.91)" fill="#006fb9"/><path d="M218.25,84H213.6V76.65h4.48V78h-2.73v1.64h2.54V81h-2.54v1.68h2.9Z" transform="translate(-35.57 -35.91)" fill="#006fb9"/><path d="M219.7,83.72V82.08a3.39,3.39,0,0,0,1,.56,3.58,3.58,0,0,0,1.11.18,2.51,2.51,0,0,0,.58,0,1.3,1.3,0,0,0,.41-.16.8.8,0,0,0,.25-.23.64.64,0,0,0,.08-.3.58.58,0,0,0-.13-.38,1.36,1.36,0,0,0-.35-.32,4.51,4.51,0,0,0-.54-.27l-.66-.28a3.37,3.37,0,0,1-1.36-.87,1.85,1.85,0,0,1-.45-1.25,1.9,1.9,0,0,1,.91-1.67,2.9,2.9,0,0,1,1-.39,4.94,4.94,0,0,1,1.17-.13,8.51,8.51,0,0,1,1.08.07,5.15,5.15,0,0,1,.86.21v1.54a2.5,2.5,0,0,0-.43-.23,3.71,3.71,0,0,0-.47-.16,4,4,0,0,0-.48-.09l-.46,0a2.26,2.26,0,0,0-.54,0,1.4,1.4,0,0,0-.41.15.74.74,0,0,0-.26.23.54.54,0,0,0,0,.64,1.11,1.11,0,0,0,.29.28,3.82,3.82,0,0,0,.46.25c.18.09.38.17.61.26a8.32,8.32,0,0,1,.84.39,3.13,3.13,0,0,1,.63.47,1.83,1.83,0,0,1,.41.6,2.05,2.05,0,0,1,.14.78,1.92,1.92,0,0,1-.25,1,1.87,1.87,0,0,1-.66.68,3,3,0,0,1-1,.37,5.55,5.55,0,0,1-1.18.12A6.64,6.64,0,0,1,220.7,84,3.69,3.69,0,0,1,219.7,83.72Z" transform="translate(-35.57 -35.91)" fill="#006fb9"/><path d="M226.46,83.72V82.08a3.42,3.42,0,0,0,2.14.74,2.51,2.51,0,0,0,.58,0,1.4,1.4,0,0,0,.41-.16.8.8,0,0,0,.25-.23.64.64,0,0,0,.08-.3.58.58,0,0,0-.13-.38,1.42,1.42,0,0,0-.36-.32,4.32,4.32,0,0,0-.53-.27l-.66-.28a3.37,3.37,0,0,1-1.36-.87,2,2,0,0,1-.2-2.24,2,2,0,0,1,.66-.68,2.9,2.9,0,0,1,1-.39,4.94,4.94,0,0,1,1.17-.13,8.35,8.35,0,0,1,1.07.07,5.28,5.28,0,0,1,.87.21v1.54a2.5,2.5,0,0,0-.43-.23,3.71,3.71,0,0,0-.47-.16,4,4,0,0,0-.48-.09l-.46,0a2.26,2.26,0,0,0-.54,0,1.3,1.3,0,0,0-.41.15.74.74,0,0,0-.26.23.5.5,0,0,0-.1.31.57.57,0,0,0,.11.33,1,1,0,0,0,.29.28,3.18,3.18,0,0,0,.46.25c.18.09.38.17.61.26a8.32,8.32,0,0,1,.84.39,3.13,3.13,0,0,1,.63.47,2,2,0,0,1,.41.6,2.05,2.05,0,0,1,.14.78,1.92,1.92,0,0,1-.25,1,1.82,1.82,0,0,1-.67.68,2.86,2.86,0,0,1-1,.37,5.62,5.62,0,0,1-1.18.12,6.83,6.83,0,0,1-1.22-.11A3.92,3.92,0,0,1,226.46,83.72Z" transform="translate(-35.57 -35.91)" fill="#006fb9"/><path d="M236,76.65v1.28h-.65v4.79H236V84h-3.05V82.72h.65V77.93h-.65V76.65Z" transform="translate(-35.57 -35.91)" fill="#006fb9"/><path d="M240.94,84.13a3.75,3.75,0,0,1-2.72-1,3.59,3.59,0,0,1-1.05-2.68,3.85,3.85,0,0,1,1.07-2.82,3.78,3.78,0,0,1,2.82-1.08,3.54,3.54,0,0,1,3.72,3.75,3.67,3.67,0,0,1-3.84,3.86ZM241,78a1.82,1.82,0,0,0-1.47.65,2.63,2.63,0,0,0-.54,1.73,2.58,2.58,0,0,0,.54,1.73,1.8,1.8,0,0,0,1.42.64,1.82,1.82,0,0,0,1.44-.62,2.58,2.58,0,0,0,.53-1.72,2.74,2.74,0,0,0-.52-1.78A1.71,1.71,0,0,0,241,78Z" transform="translate(-35.57 -35.91)" fill="#006fb9"/><path d="M253.6,84h-1.76l-3.2-4.62a5.45,5.45,0,0,1-.39-.61h0a11.64,11.64,0,0,1,0,1.19v4h-1.65V76.65h1.88l3.08,4.47q.21.3.39.6h0a9.7,9.7,0,0,1,0-1V76.65h1.65Z" transform="translate(-35.57 -35.91)" fill="#006fb9"/><path d="M262.76,84h-1.91l-.55-1.64h-2.76L257,84H255.1l2.82-7.35H260Zm-2.86-2.91-.83-2.47a2.85,2.85,0,0,1-.13-.66h-.05a2.43,2.43,0,0,1-.13.64l-.85,2.49Z" transform="translate(-35.57 -35.91)" fill="#006fb9"/><path d="M268.9,84h-4.62V76.65H266v6h2.87Z" transform="translate(-35.57 -35.91)" fill="#006fb9"/><path d="M190,96.7h-1.91l-.55-1.64h-2.76l-.54,1.64h-1.9l2.83-7.35h2.07Zm-2.86-2.91-.83-2.47a2.85,2.85,0,0,1-.13-.66h0a2.94,2.94,0,0,1-.14.64l-.84,2.49Z" transform="translate(-35.57 -35.91)" fill="#006fb9"/><path d="M196.8,96.44a5.39,5.39,0,0,1-2.22.39,3.83,3.83,0,0,1-2.81-1,3.52,3.52,0,0,1-1-2.65,3.77,3.77,0,0,1,1.15-2.86,4.15,4.15,0,0,1,3-1.1,5.64,5.64,0,0,1,1.92.28v1.59a3.57,3.57,0,0,0-1.77-.44,2.46,2.46,0,0,0-1.77.65,2.35,2.35,0,0,0,1.67,4.1,3.75,3.75,0,0,0,1.87-.48Z" transform="translate(-35.57 -35.91)" fill="#006fb9"/><path d="M204,96.44a5.39,5.39,0,0,1-2.22.39,3.83,3.83,0,0,1-2.81-1,3.52,3.52,0,0,1-1-2.65,3.8,3.8,0,0,1,1.15-2.86,4.18,4.18,0,0,1,3-1.1,5.64,5.64,0,0,1,1.92.28v1.59a3.61,3.61,0,0,0-1.78-.44,2.42,2.42,0,0,0-1.76.65,2.35,2.35,0,0,0,1.66,4.1,3.78,3.78,0,0,0,1.88-.48Z" transform="translate(-35.57 -35.91)" fill="#006fb9"/><path d="M208.91,96.83a3.75,3.75,0,0,1-2.72-1,3.59,3.59,0,0,1-1.05-2.68,3.69,3.69,0,0,1,3.89-3.9,3.65,3.65,0,0,1,2.69,1,3.85,3.85,0,0,1-2.81,6.58Zm.07-6.18a1.81,1.81,0,0,0-1.46.65A2.63,2.63,0,0,0,207,93a2.58,2.58,0,0,0,.54,1.73,1.93,1.93,0,0,0,2.85,0,2.53,2.53,0,0,0,.53-1.72,2.79,2.79,0,0,0-.51-1.78A1.71,1.71,0,0,0,209,90.65Z" transform="translate(-35.57 -35.91)" fill="#006fb9"/><path d="M220.64,93.51q0,3.31-3.26,3.32t-3.16-3.24V89.35H216v4.26c0,1.19.49,1.79,1.47,1.79s1.45-.58,1.45-1.73V89.35h1.75Z" transform="translate(-35.57 -35.91)" fill="#006fb9"/><path d="M229.59,96.7h-1.77l-3.2-4.62c-.18-.27-.31-.47-.39-.61h0a11.64,11.64,0,0,1,0,1.19v4H222.6V89.35h1.89l3.08,4.47q.21.3.39.6h0a7.45,7.45,0,0,1,0-1V89.35h1.65Z" transform="translate(-35.57 -35.91)" fill="#006fb9"/><path d="M237.09,90.69h-2.21v6h-1.76v-6h-2.2V89.35h6.17Z" transform="translate(-35.57 -35.91)" fill="#006fb9"/><path d="M245.24,96.7h-1.91l-.55-1.64H240l-.55,1.64h-1.89l2.82-7.35h2.08Zm-2.86-2.91-.83-2.47a2.41,2.41,0,0,1-.13-.66h0a2.43,2.43,0,0,1-.13.64l-.85,2.49Z" transform="translate(-35.57 -35.91)" fill="#006fb9"/><path d="M253.47,96.7H251.7l-3.2-4.62a5.45,5.45,0,0,1-.39-.61h0a11.64,11.64,0,0,1,0,1.19v4h-1.65V89.35h1.89l3.08,4.47q.21.3.39.6h0a7.45,7.45,0,0,1,0-1V89.35h1.65Z" transform="translate(-35.57 -35.91)" fill="#006fb9"/><path d="M261,90.69h-2.21v6H257v-6h-2.2V89.35H261Z" transform="translate(-35.57 -35.91)" fill="#006fb9"/></g><g id="b593e669-5f3c-4b86-83d0-7bd8ae1627da" data-name="leaf"><g id="b768b59f-7665-41f9-b5bd-ed0a111e4e16" data-name="blue"><g id="bf188be7-58e4-4248-9114-4459bf2d2528" data-name="CIRCLE"><path d="M55.39,72.75A1.62,1.62,0,1,1,57,74.37a1.61,1.61,0,0,1-1.62-1.62Z" transform="translate(-35.57 -35.91)" fill="#006fb9"/></g><g id="bcbd9524-bdef-4a91-92e8-d2699d7cff59" data-name="CIRCLE"><path d="M55.75,77.2A1.26,1.26,0,1,1,57,78.46a1.26,1.26,0,0,1-1.26-1.26Z" transform="translate(-35.57 -35.91)" fill="#006fb9"/></g><g id="b9e7740b-44cf-4c8c-9244-eac158e849a3" data-name="CIRCLE"><path d="M56.05,81.65a1,1,0,1,1,1,1,1,1,0,0,1-1-1Z" transform="translate(-35.57 -35.91)" fill="#006fb9"/></g><g id="b0d90070-84da-4437-84b4-86533d18b89c" data-name="CIRCLE"><path d="M56.31,86.11a.7.7,0,1,1,.7.69.7.7,0,0,1-.7-.69Z" transform="translate(-35.57 -35.91)" fill="#006fb9"/></g><g id="bc98f3e2-1abc-4a05-84be-b8464126cb67" data-name="CIRCLE"><path d="M54.85,68.29A2.16,2.16,0,1,1,57,70.45a2.16,2.16,0,0,1-2.16-2.16Z" transform="translate(-35.57 -35.91)" fill="#006fb9"/></g><g id="a973b6fe-5c9c-4b48-b383-170b82a1779b" data-name="CIRCLE"><path d="M54.22,63.84A2.79,2.79,0,1,1,57,66.62a2.78,2.78,0,0,1-2.79-2.78Z" transform="translate(-35.57 -35.91)" fill="#006fb9"/></g><g id="bed875ce-2502-4ac1-b756-2692d3188671" data-name="CIRCLE"><path d="M54.44,59.39A2.57,2.57,0,1,1,57,62a2.57,2.57,0,0,1-2.57-2.57Z" transform="translate(-35.57 -35.91)" fill="#006fb9"/></g><g id="bec1274d-c04d-4302-a584-a229971b3d10" data-name="CIRCLE"><path d="M55,54.93a2,2,0,1,1,2,2,2,2,0,0,1-2-2Z" transform="translate(-35.57 -35.91)" fill="#006fb9"/></g><g id="bc9f3f77-bb67-425d-acce-039185964d96" data-name="CIRCLE"><path d="M55.42,50.48A1.59,1.59,0,1,1,57,52.07a1.59,1.59,0,0,1-1.59-1.59Z" transform="translate(-35.57 -35.91)" fill="#006fb9"/></g><g id="e3aee2cd-8de4-44d8-872c-d8d2efa917cd" data-name="CIRCLE"><path d="M55.56,46A1.45,1.45,0,1,1,57,47.48,1.45,1.45,0,0,1,55.56,46Z" transform="translate(-35.57 -35.91)" fill="#006fb9"/></g><g id="b4bf1795-519f-44d1-94f2-8fef20df13a9" data-name="CIRCLE"><path d="M50.56,68.36a1.88,1.88,0,1,1,1.88,1.87,1.88,1.88,0,0,1-1.88-1.87Z" transform="translate(-35.57 -35.91)" fill="#006fb9"/></g><g id="bb14173b-78ab-45b8-b95f-0812425115b2" data-name="CIRCLE"><path d="M50.31,63.91a2,2,0,1,1,2,2,2,2,0,0,1-2-2Z" transform="translate(-35.57 -35.91)" fill="#006fb9"/></g><g id="b9ea86d5-3383-4425-a5ae-b22489b4d642" data-name="CIRCLE"><path d="M50.32,59.46a1.88,1.88,0,1,1,1.88,1.89,1.88,1.88,0,0,1-1.88-1.89Z" transform="translate(-35.57 -35.91)" fill="#006fb9"/></g><g id="a4c882a5-7432-4210-9ef4-a3a496327853" data-name="CIRCLE"><path d="M50.28,55a1.78,1.78,0,1,1,1.78,1.78A1.78,1.78,0,0,1,50.28,55Z" transform="translate(-35.57 -35.91)" fill="#006fb9"/></g><g id="f99746f6-0f60-4114-8caa-cb9513a05fe7" data-name="CIRCLE"><path d="M50.28,50.56a1.64,1.64,0,1,1,1.64,1.64,1.64,1.64,0,0,1-1.64-1.64Z" transform="translate(-35.57 -35.91)" fill="#006fb9"/></g><g id="bde02708-9b5c-4298-9c3f-d149fa6497cf" data-name="CIRCLE"><path d="M50.57,72.8a2,2,0,1,1,2,2,2,2,0,0,1-2-2Z" transform="translate(-35.57 -35.91)" fill="#006fb9"/></g><g id="f1e5bf5d-21b7-4512-bd52-06e8ebcd7711" data-name="CIRCLE"><path d="M59.7,68.36a1.88,1.88,0,1,1,1.88,1.87,1.88,1.88,0,0,1-1.88-1.87Z" transform="translate(-35.57 -35.91)" fill="#006fb9"/></g><g id="f34ffbb9-60f1-4666-97e4-2233903738ac" data-name="CIRCLE"><path d="M59.65,63.91a2,2,0,1,1,2,2,2,2,0,0,1-2-2Z" transform="translate(-35.57 -35.91)" fill="#006fb9"/></g><g id="f83f166f-8b9b-4907-abf9-88e2eea09fd0" data-name="CIRCLE"><path d="M59.93,59.46a1.89,1.89,0,1,1,1.88,1.89,1.88,1.88,0,0,1-1.88-1.89Z" transform="translate(-35.57 -35.91)" fill="#006fb9"/></g><g id="a631cedd-0522-454c-b12d-3ae4e31ff895" data-name="CIRCLE"><path d="M60.18,55A1.78,1.78,0,1,1,62,56.79,1.78,1.78,0,0,1,60.18,55Z" transform="translate(-35.57 -35.91)" fill="#006fb9"/></g><g id="f001547f-aeac-4430-ac95-18c7be4c4034" data-name="CIRCLE"><path d="M60.46,50.56A1.64,1.64,0,1,1,62.1,52.2a1.64,1.64,0,0,1-1.64-1.64Z" transform="translate(-35.57 -35.91)" fill="#006fb9"/></g><g id="ba900a8e-0e50-4fa5-ad9a-217c12cda4a6" data-name="CIRCLE"><path d="M59.45,72.8a2,2,0,1,1,2,2,2,2,0,0,1-2-2Z" transform="translate(-35.57 -35.91)" fill="#006fb9"/></g><g id="aca9d567-4df0-4b32-bb47-48cdeea22062" data-name="CIRCLE"><path d="M45.28,59.69a2.1,2.1,0,1,1,2.1,2.09,2.1,2.1,0,0,1-2.1-2.09Z" transform="translate(-35.57 -35.91)" fill="#006fb9"/></g><g id="aab5b38e-de21-48ca-9ded-debff656467d" data-name="CIRCLE"><path d="M45.5,64.13a2.09,2.09,0,1,1,2.09,2.09,2.08,2.08,0,0,1-2.09-2.09Z" transform="translate(-35.57 -35.91)" fill="#006fb9"/></g><g id="f1c0ca53-63b9-482d-a8c0-f00cef547633" data-name="CIRCLE"><path d="M45.93,68.56a1.94,1.94,0,1,1,1.94,1.94,1.93,1.93,0,0,1-1.94-1.94Z" transform="translate(-35.57 -35.91)" fill="#006fb9"/></g><g id="a7f99568-0f66-4bf2-8956-dbb291c82496" data-name="CIRCLE"><path d="M40.83,64.49A2.21,2.21,0,1,1,43,66.69a2.21,2.21,0,0,1-2.21-2.2Z" transform="translate(-35.57 -35.91)" fill="#006fb9"/></g><g id="f4d4ff1d-fa95-4674-9ddd-d039fd49cc4f" data-name="CIRCLE"><path d="M64.54,59.69a2.1,2.1,0,1,1,2.1,2.09,2.1,2.1,0,0,1-2.1-2.09Z" transform="translate(-35.57 -35.91)" fill="#006fb9"/></g><g id="a8a395f1-d8ed-4da6-9f65-55e96efc4ba0" data-name="CIRCLE"><path d="M64.34,64.13a2.09,2.09,0,1,1,2.09,2.09,2.09,2.09,0,0,1-2.09-2.09Z" transform="translate(-35.57 -35.91)" fill="#006fb9"/></g><g id="ac93f6f4-0ee6-4825-96f4-022d368e7c68" data-name="CIRCLE"><path d="M64.21,68.56a1.94,1.94,0,1,1,1.93,1.94,1.93,1.93,0,0,1-1.93-1.94Z" transform="translate(-35.57 -35.91)" fill="#006fb9"/></g><g id="fc48de78-b1de-4edc-b021-af4b24ef4e8e" data-name="CIRCLE"><path d="M68.77,64.49a2.21,2.21,0,1,1,2.2,2.2,2.2,2.2,0,0,1-2.2-2.2Z" transform="translate(-35.57 -35.91)" fill="#006fb9"/></g></g><g id="aff99fc4-2ddd-4622-9195-dc43cd65f6f7" data-name="greem"><g id="f1eee7f8-353d-454d-b5e7-53dfacdbce2f" data-name="g"><path d="M55.79,37.12A1.22,1.22,0,1,1,57,38.34a1.22,1.22,0,0,1-1.22-1.22Z" transform="translate(-35.57 -35.91)" fill="#007a11"/></g><g id="b2ac9118-be67-4e61-b2b4-09dde5bcd115" data-name="g"><path d="M50.32,46.14a1.6,1.6,0,1,1,1.6,1.6,1.6,1.6,0,0,1-1.6-1.6Z" transform="translate(-35.57 -35.91)" fill="#007a11"/></g><g id="ee1d33e4-abef-478c-8777-2884d12c8134" data-name="g"><path d="M50.54,42a1.12,1.12,0,1,1,1.12,1.12A1.12,1.12,0,0,1,50.54,42Z" transform="translate(-35.57 -35.91)" fill="#007a11"/></g><g id="a5c4a2a7-df5c-481d-a631-bf3ab8be3712" data-name="g"><path d="M60.5,46.14a1.6,1.6,0,1,1,1.6,1.6,1.6,1.6,0,0,1-1.6-1.6Z" transform="translate(-35.57 -35.91)" fill="#007a11"/></g><g id="f9e6b6c3-dbc9-47cd-8df8-2f69cfc8584b" data-name="g"><path d="M61.23,42a1.12,1.12,0,1,1,1.12,1.12A1.12,1.12,0,0,1,61.23,42Z" transform="translate(-35.57 -35.91)" fill="#007a11"/></g><g id="bf2724b9-28af-4dcb-a7be-51b5fec6b823" data-name="g"><path d="M55.63,41.58A1.38,1.38,0,1,1,57,43a1.38,1.38,0,0,1-1.38-1.37Z" transform="translate(-35.57 -35.91)" fill="#007a11"/></g><g id="fe6ba399-c0f3-45b2-bc01-683be44e9a3f" data-name="g"><path d="M45.4,55.26A1.62,1.62,0,1,1,47,56.88a1.62,1.62,0,0,1-1.62-1.62Z" transform="translate(-35.57 -35.91)" fill="#007a11"/></g><g id="f34b77c2-967a-44c0-bcea-15c451fcbb60" data-name="g"><path d="M40.5,60.07a2.08,2.08,0,1,1,2.08,2.07,2.08,2.08,0,0,1-2.08-2.07Z" transform="translate(-35.57 -35.91)" fill="#007a11"/></g><g id="eb95bf8b-ff3e-448b-a69a-26c80800fc2e" data-name="g"><path d="M40.46,55.65a1.69,1.69,0,1,1,1.69,1.69,1.69,1.69,0,0,1-1.69-1.69Z" transform="translate(-35.57 -35.91)" fill="#007a11"/></g><g id="b26adf85-be81-4aa7-892b-6f1c364bee40" data-name="g"><path d="M36,56.2a1.29,1.29,0,1,1,1.29,1.29A1.29,1.29,0,0,1,36,56.2Z" transform="translate(-35.57 -35.91)" fill="#007a11"/></g><g id="e92285e1-0eea-44e3-aedb-d78225298f25" data-name="g"><path d="M35.57,51.76a1.14,1.14,0,1,1,1.14,1.15,1.14,1.14,0,0,1-1.14-1.15Z" transform="translate(-35.57 -35.91)" fill="#007a11"/></g><g id="a1ce6312-3efe-408e-a927-e4c8d12fa14f" data-name="g"><path d="M40.52,51.2a1.23,1.23,0,1,1,1.23,1.24,1.24,1.24,0,0,1-1.23-1.24Z" transform="translate(-35.57 -35.91)" fill="#007a11"/></g><g id="f6d88f3f-9db0-4196-bc38-aaadd4160541" data-name="g"><path d="M64.29,73a1.57,1.57,0,1,1,1.57,1.57A1.57,1.57,0,0,1,64.29,73Z" transform="translate(-35.57 -35.91)" fill="#007a11"/></g><g id="b2acd4a3-e836-449d-a60e-193f677a9251" data-name="g"><path d="M64.08,77.42a1.5,1.5,0,1,1,1.5,1.5,1.5,1.5,0,0,1-1.5-1.5Z" transform="translate(-35.57 -35.91)" fill="#007a11"/></g><g id="b74587c1-61c8-4ad7-ae77-1af9ba8c3800" data-name="g"><path d="M68.79,77.69a1,1,0,1,1,1,1,1,1,0,0,1-1-1Z" transform="translate(-35.57 -35.91)" fill="#007a11"/></g><g id="a39e052c-8649-4f8f-a729-5cc51fc026e3" data-name="g"><path d="M68.84,68.89a1.73,1.73,0,1,1,1.73,1.72,1.72,1.72,0,0,1-1.73-1.72Z" transform="translate(-35.57 -35.91)" fill="#007a11"/></g><g id="f3e730ad-8050-4614-a966-ca1a9918f087" data-name="g"><path d="M74.4,65a1.24,1.24,0,1,1,1.23,1.23A1.23,1.23,0,0,1,74.4,65Z" transform="translate(-35.57 -35.91)" fill="#007a11"/></g><g id="a71a1212-b94d-4a4a-886d-709cd38112bf" data-name="g"><path d="M69.37,60.07a2.07,2.07,0,1,1,2.07,2.07,2.07,2.07,0,0,1-2.07-2.07Z" transform="translate(-35.57 -35.91)" fill="#007a11"/></g><g id="b80d0ae3-6c03-4385-8cb1-cc1ce8bbd435" data-name="g"><path d="M70.17,55.65a1.7,1.7,0,1,1,1.7,1.69,1.7,1.7,0,0,1-1.7-1.69Z" transform="translate(-35.57 -35.91)" fill="#007a11"/></g><g id="aa454206-c7ff-4957-bf56-ce7aa91dc2b2" data-name="g"><path d="M75.45,56.2a1.29,1.29,0,1,1,1.29,1.29,1.29,1.29,0,0,1-1.29-1.29Z" transform="translate(-35.57 -35.91)" fill="#007a11"/></g><g id="eacb98f0-7119-46fa-9527-da78bbbb77a4" data-name="g"><path d="M76.16,51.76a1.15,1.15,0,1,1,1.15,1.15,1.14,1.14,0,0,1-1.15-1.15Z" transform="translate(-35.57 -35.91)" fill="#007a11"/></g><g id="f761ca88-5b90-4007-b148-1407c22d8c8b" data-name="g"><path d="M71,51.2a1.24,1.24,0,1,1,1.23,1.24A1.24,1.24,0,0,1,71,51.2Z" transform="translate(-35.57 -35.91)" fill="#007a11"/></g><g id="ae3178fe-a066-48e3-9404-2dbde90310f7" data-name="g"><path d="M46.58,73a1.57,1.57,0,1,1,1.57,1.57A1.57,1.57,0,0,1,46.58,73Z" transform="translate(-35.57 -35.91)" fill="#007a11"/></g><g id="f1c4a379-9a46-44e7-9b24-7cec92079a71" data-name="g"><path d="M46.93,77.42a1.51,1.51,0,1,1,1.5,1.5,1.5,1.5,0,0,1-1.5-1.5Z" transform="translate(-35.57 -35.91)" fill="#007a11"/></g><g id="a01a51bf-f6ef-4a72-88ba-9ae6a23d191e" data-name="g"><path d="M43.21,77.69a1,1,0,1,1,1,1,1,1,0,0,1-1-1Z" transform="translate(-35.57 -35.91)" fill="#007a11"/></g><g id="bccd8adf-7602-4127-8ab3-b8a1998bef76" data-name="g"><path d="M41.72,68.89a1.73,1.73,0,1,1,1.73,1.72,1.72,1.72,0,0,1-1.73-1.72Z" transform="translate(-35.57 -35.91)" fill="#007a11"/></g><g id="f622bbb3-6e11-4952-8531-80ee28cce98d" data-name="g"><path d="M37.15,65a1.23,1.23,0,1,1,1.23,1.23A1.23,1.23,0,0,1,37.15,65Z" transform="translate(-35.57 -35.91)" fill="#007a11"/></g><g id="ab598c72-551c-40d3-b0b5-a2c0e8d1871f" data-name="g"><path d="M65.37,55.26A1.62,1.62,0,1,1,67,56.88a1.62,1.62,0,0,1-1.62-1.62Z" transform="translate(-35.57 -35.91)" fill="#007a11"/></g></g></g><g id="beb2e562-4e6c-4723-87bb-191d81a7cdf6" data-name="cpa"><path d="M160.12,63.6h-9.87c-2.71,3.05-9,22-11.2,33.34h9.29a34.07,34.07,0,0,1,.64-4.53c.18-.75.41-1.48.64-2.21h11.14c.23.73.46,1.46.63,2.21a32.51,32.51,0,0,1,.65,4.53h9.29C169.11,85.57,162.84,66.65,160.12,63.6Zm-4.93,19.63h-4.13a53.48,53.48,0,0,1,4.13-11.71,54,54,0,0,1,4.13,11.71Z" transform="translate(-35.57 -35.91)" fill="#006fb9"/><path d="M138.36,78a29.56,29.56,0,0,0-.56-3.85,14,14,0,0,0-1.37-3.67,13,13,0,0,0-2.26-2.92,12.46,12.46,0,0,0-2.48-1.82,14.2,14.2,0,0,0-2.75-1.24,17,17,0,0,0-3.62-.78,33.79,33.79,0,0,0-4.16-.11,28.38,28.38,0,0,0-4.1.3,27,27,0,0,0-5.5,1.61v39.6H121V96.18a21.92,21.92,0,0,0,4.29.41,15.25,15.25,0,0,0,3.64-.43,9.73,9.73,0,0,0,3.55-1.63,13.18,13.18,0,0,0,3.29-3.68A18.25,18.25,0,0,0,137.8,86a21.5,21.5,0,0,0,.67-4.52A24.61,24.61,0,0,0,138.36,78Zm-9.5,7.5a7.4,7.4,0,0,1-1.33,2.57,4.94,4.94,0,0,1-2.1,1.42,6.57,6.57,0,0,1-3,.17c-.51-.08-1-.19-1.5-.3V71.57a14.74,14.74,0,0,1,1.5-.3,6.3,6.3,0,0,1,3,.17,4.92,4.92,0,0,1,2.1,1.41,7.49,7.49,0,0,1,1.33,2.57,16.61,16.61,0,0,1,0,10.06Z" transform="translate(-35.57 -35.91)" fill="#006fb9"/><g id="b16e84ac-9954-4b12-b30f-7cb2c0323ad9" data-name="SPLINE"><path d="M80.26,80.27A15.28,15.28,0,0,1,89.52,65a14.06,14.06,0,0,1,4.55-1.12,22.68,22.68,0,0,1,12.46,2.45v7h-3.29A6.61,6.61,0,0,0,98,70.56a6.44,6.44,0,0,0-3.71.79,7.9,7.9,0,0,0-2.88,2.84,14.37,14.37,0,0,0,0,12.16,7.9,7.9,0,0,0,2.88,2.84A6.44,6.44,0,0,0,98,90a6.61,6.61,0,0,0,5.24-2.78h3.29v7a22.68,22.68,0,0,1-12.46,2.45,14.06,14.06,0,0,1-4.55-1.12A15.28,15.28,0,0,1,80.26,80.27Z" transform="translate(-35.57 -35.91)" fill="#006fb9"/></g></g></svg>