<svg xmlns="http://www.w3.org/2000/svg" viewBox="0 0 233.27 107.19"><g id="a91b7adc-e47d-4450-a221-46353b20390a" data-name="Layer 2"><g id="a9cf72ba-dd92-4049-b118-04d668fe3650" data-name="Layer 1"><path d="M233.27,62.24c-.07.06-.2.12-.2.17a1.42,1.42,0,0,1-.75,1.28c-.53.33-1.19.72-1.8.43s-1.05,0-1.44-.39a21.41,21.41,0,0,1-3.24-.93,12,12,0,0,0-2.53-.56c-.14,0-.33,0-.4-.05-.27-.29-.6-.11-.9-.16s-.63.09-.64.37a.64.64,0,0,0,.42.7c.12,0,.22.15.34.2.6.27,1.19.54,1.8.78a16.87,16.87,0,0,1,3.94,2.3,8.38,8.38,0,0,1,2.48,2.68,4,4,0,0,1,.58,2.2,7.53,7.53,0,0,1-.8,2.12,6.62,6.62,0,0,1-1.73,1.69c-.47.41-1.18.58-1.56,1.05a4.65,4.65,0,0,1-1.52,1,3.24,3.24,0,0,1-1.71.51,4.5,4.5,0,0,0-.76.2c-.27,0-.57-.09-.76.22-.48-.08-1,.15-1.44-.15a.64.64,0,0,0-.39-.06,3.15,3.15,0,0,1-2.33-1,3.49,3.49,0,0,1-.83-1.65c-.11-.37,0-.81-.23-1.18,0,0,.37-1.52.39-1.54a2.64,2.64,0,0,1,1.6-.74c.31-.07.69.19,1,.32a19.78,19.78,0,0,0,2.25,1c.42.11.93-.07,1.19.16s.55,0,.81,0,.22-.27.18-.4a1.67,1.67,0,0,0-.65-1c-.87-.55-1.76-1.06-2.64-1.59-1.54-.92-3.09-1.81-4.6-2.78a3.77,3.77,0,0,1-1.68-3.08,4.66,4.66,0,0,1,.63-3,5.26,5.26,0,0,1,1.75-1.73,22.56,22.56,0,0,1,2.58-1.23,10.07,10.07,0,0,1,1.37-.28,13.29,13.29,0,0,1,4.7-.16,12.65,12.65,0,0,1,5.69,1.65,9.57,9.57,0,0,1,.94.54.94.94,0,0,1,.47.77c0,.2.26.41.4.61Z" fill="#a9a8a9"/><path d="M0,63.73c.29,0,.2-.22.21-.38.08-.93.15-1.85.22-2.78.47-.46,0-1.11.38-1.66s.11-1.07.27-1.58a13.78,13.78,0,0,1,1.75-4.16,3.78,3.78,0,0,1,1.41-.93A3,3,0,0,1,6.06,52a2.1,2.1,0,0,1,1.59,1.31,2.41,2.41,0,0,1,.25,1.18c-.06.67.06,1.35,0,2a82.13,82.13,0,0,0-.19,9.28c0,3.12,0,6.24,0,9.36,0,.47-.16.93-.2,1.4a7.91,7.91,0,0,1,0,1.38,5.74,5.74,0,0,1-1.17,2.58A3.17,3.17,0,0,1,4.6,81.59a2.41,2.41,0,0,1-2.37-.86A17.11,17.11,0,0,1,.43,77a2.87,2.87,0,0,1,0-.42C.35,75.81.27,75,.17,74.25c0,0-.11,0-.17-.08Z" fill="#a9a8a9"/><path d="M182.14,107.19c-.23-.31-.61-.3-.93-.42a3.76,3.76,0,0,1-1.63-1,1.38,1.38,0,0,1-.21-1.77c.17-.32.47-.38.77-.5a1.71,1.71,0,0,1,1.81.15,5.22,5.22,0,0,0,.75.51,4.82,4.82,0,0,0,.79.13,1.72,1.72,0,0,0,1.2-.26,1.63,1.63,0,0,0,.86-1.33c0-.27,0-.55-.06-.83a3.23,3.23,0,0,1-.66.35,4.77,4.77,0,0,1-4.93-1,4.49,4.49,0,0,1-1.38-3.38c0-.32,0-.64,0-1a4.12,4.12,0,0,1,1.35-3.25,5.46,5.46,0,0,1,3.69-1.61,3.66,3.66,0,0,1,2.14.5.59.59,0,0,0,.82,0,2.27,2.27,0,0,1,.75-.23,1.06,1.06,0,0,1,1.48,1.11c0,3,0,5.89,0,8.84a4.39,4.39,0,0,1-.73,2.15,6.83,6.83,0,0,1-3.17,2.56c-.25.14-.65-.2-.79.25Zm3.41-9.76a2.33,2.33,0,0,0-1.73-2.52,1.52,1.52,0,0,0-1.35.15,2.34,2.34,0,0,0-1,1.5,3.09,3.09,0,0,0,1.33,2.7c.16.09.37,0,.4.36,0,.17,1.16.2,1.22,0,.14-.44.65-.46.8-.93A3.09,3.09,0,0,0,185.55,97.43Z" fill="#a9a8a9"/><path d="M86.07,107.19a1.07,1.07,0,0,0-.16-.25,1.3,1.3,0,0,1-.37-1.67c.19-.49.39-1,.6-1.45s.54-1.13.76-1.71c.07-.18.12-.38.18-.56a1,1,0,0,0-.24-.71,10,10,0,0,1-1-2.38A19,19,0,0,1,85,96.19c-.16-.56-.58-1-.71-1.61s-.36-1.29.21-1.86c.31-.32.74-.3,1.1-.42a1.33,1.33,0,0,1,1.18.2.54.54,0,0,1,.18.3c.47,1.29,1.14,2.51,1.5,3.84a1.48,1.48,0,0,0,.21.34l.09.18c.07-.06.18-.11.22-.19.26-.6.5-1.21.76-1.81s.52-1.28.8-1.91a1.55,1.55,0,0,1,1.12-.88,1.66,1.66,0,0,1,1.47.13c.09.06.22.17.22.25,0,.68.14,1.39-.4,2C92.34,96.39,91.48,98,91,99.65c-.17.53-.42,1-.63,1.54-.46,1.09-.92,2.18-1.3,3.3a9.93,9.93,0,0,1-.87,1.76c-.07.14-.27.19-.4.31s-.42.42-.63.63Z" fill="#a9a8a9"/><path d="M118.76,3.45c-1.09-.14-2.24.37-3.44.21-.6.36-1.3.08-1.91.26s-1.17.28-1.76.4a27.59,27.59,0,0,0-3,.95,11.44,11.44,0,0,0-1.9.77c-.47.28-1.17.27-1.42,1-.12.36-.65.58-1,.84a17.28,17.28,0,0,0-3.7,4c-.36.5-.71,1-1,1.59a28.28,28.28,0,0,0-2,4.28A6.4,6.4,0,0,0,97.16,19a4.66,4.66,0,0,1-.4,1.33c-.16.37-.09.78-.22,1.19a12.7,12.7,0,0,0-.25,2.24c-.06.51-.17,1-.2,1.51a10.68,10.68,0,0,0,0,1.6c0,.5.13,1,.2,1.51a5.06,5.06,0,0,0,.17,1.42,9.49,9.49,0,0,1,.23,1.49,17.72,17.72,0,0,0,.75,2.58c.08.21.13.44.23.65a4.76,4.76,0,0,0,1.17,1.64,5,5,0,0,1,1.77,2.13.61.61,0,0,0,.5.27c.65,0,1.32.2,1.94-.18.16-.1.42,0,.63,0,2.1,0,4.19,0,6.29,0a8.25,8.25,0,0,1,1.29.21c.44.07.91-.19,1.32.18.08.07.27,0,.41,0,.54.08,1.11-.15,1.65.12s1-.09,1.47.3c1.3,0,2.49.63,3.78.65.15,0,.29.16.45.2a6,6,0,0,0,2.48.43c.34-.06.36.19.31.39a11.68,11.68,0,0,0-.44,2.27,7.47,7.47,0,0,1-.45,1.73c-.06.2-.25-.27-.45,0s-.33.39-.66.08a4.36,4.36,0,0,0-1.66-.63c-.68-.24-1.48-.2-2.14-.48s-1-.19-1.56-.36a3.17,3.17,0,0,0-1.6-.26c-.39.07-.75-.28-1.19-.22a1.14,1.14,0,0,1-1.08-.19s-.07,0-.11,0c-1-.08-2.07-.19-3.11-.21-1.7,0-3.4,0-5.11,0-.79,0-1.57.13-2.36.21-.27,0-.4.2-.45.48a3.21,3.21,0,0,1-.88,1.55,9.53,9.53,0,0,1-3.58,2.64,7.47,7.47,0,0,1-3.69.87,10.59,10.59,0,0,0-1.38,0A6.59,6.59,0,0,1,87,46.86a.64.64,0,0,0-.56-.15,20.18,20.18,0,0,0-2.48,1.19,12.41,12.41,0,0,0-2.31,1.64c-.53.52-1,.37-1.62,0a12.27,12.27,0,0,1-2.1-2.1c-.2-.3-.12-.43.09-.6a3.67,3.67,0,0,1,.74-.52A25.26,25.26,0,0,0,82.1,44.4a29,29,0,0,1,3-1.51.49.49,0,0,0,.34-.38,9.37,9.37,0,0,1,1.47-3.23c.11-.12.15-.32.28-.41.56-.43.81-1.14,1.42-1.54.32-.2.62-.44.92-.67a13.09,13.09,0,0,1,3.83-1.82A6.6,6.6,0,0,1,95,34.76c.37,0,.56-.2.4-.5-.62-1.17-.58-2.52-1.05-3.72,0,0,0-.07,0-.11,0-1.75-.44-3.49-.18-5.23.12-.83.07-1.66.22-2.46a5,5,0,0,1,.32-1.46,1.51,1.51,0,0,0,.06-.82c-.05-.24-.32-.3-.51-.42a8.81,8.81,0,0,1-1.57-1.35,10.69,10.69,0,0,1-1.1-1.56A6.83,6.83,0,0,1,91,15.27a6.77,6.77,0,0,1-.21-1.09c0-.35,0-.71,0-1.06a10.37,10.37,0,0,1,.77-3.3,8.86,8.86,0,0,1,1.65-2.73A.27.27,0,0,0,93.25,7c.91-1.71,3-2.78,4.86-3.36a7.07,7.07,0,0,1,4.61.25,6.76,6.76,0,0,1,2,1.28c.15.19.29.22.52,0a7.91,7.91,0,0,1,1-.52,31.76,31.76,0,0,1,4.22-1.64,10.91,10.91,0,0,1,1.64-.4c.53-.1,1.06-.22,1.58-.34s1.27,0,1.82-.21,1.19,0,1.73-.2a11.82,11.82,0,0,1,2.58-.2,10.18,10.18,0,0,1,1.83.23,4.69,4.69,0,0,1,1.73.18c.44.19,1-.1,1.5.24a13.58,13.58,0,0,1,2.82.65c.17,0,.27.25.48,0a14.84,14.84,0,0,1,1-1.06,6.4,6.4,0,0,1,2.23-1.3c.28-.1.51-.36.79-.4A4.37,4.37,0,0,1,133.82,0c.31.05.64,0,1,0a5.28,5.28,0,0,1,1.55.12,9.25,9.25,0,0,1,3.46,1.93,13.49,13.49,0,0,1,2.57,3.2,9.26,9.26,0,0,1,.8,2.54c.06.3.17.58.2.87s0,.64,0,1a6.89,6.89,0,0,1-1.08,3.81,12.14,12.14,0,0,1-1.44,1.69,4.34,4.34,0,0,1-.49.35.32.32,0,0,0-.07.52c.54.8.59,1.82,1.13,2.62-.12.81.47,1.47.47,2.26a3.72,3.72,0,0,0,.2.76,8.57,8.57,0,0,1,.21,1,5.34,5.34,0,0,0,0,1.06,12.71,12.71,0,0,1,.18,3.64,13.27,13.27,0,0,1-.2,2.26c-.11.72-.25,1.45-.43,2.16a9.76,9.76,0,0,1-.68,2.06,17.6,17.6,0,0,1-2.92,4.65,1.46,1.46,0,0,0-.22.33c-.25.41-.24.47.18.41.57-.08,1.08.25,1.62.21s.88.46,1.42.47c.26,0,.53.27.76.45a8.55,8.55,0,0,1,2.49,3.1,15.09,15.09,0,0,1,.52,1.7,4.77,4.77,0,0,1,.23,1.92A9.55,9.55,0,0,1,144,51.43a7.23,7.23,0,0,1-1.39,1.43c-.41.36-.4.86.09,1.07s.67.49.15.83a17.14,17.14,0,0,0-2.09,1.9,5.19,5.19,0,0,1-.53.52c-.29.22-.62.55-.93.55s-.24-.54-.37-.83a7.62,7.62,0,0,0-1.53-1.81c-.48,0-.95,0-1.43,0-.12,0-.25.15-.36.13a12.94,12.94,0,0,0-3.11.25,7.24,7.24,0,0,0-2.91.67,3.54,3.54,0,0,1-1.85.13c-.29,0-.59-.26-.88-.41a3,3,0,0,1-1.35-1.35c-.14-.29-.41-.58-.42-.87,0-.49-.19-.94-.23-1.41a6,6,0,0,1,0-1.8,7.41,7.41,0,0,1,1-2.47c.07-.11.21-.19.28-.31.34-.55.33-.62-.32-.94s-1.55-.71-2.33-1a.5.5,0,0,0-.32,0c-.18,0-.36.13-.55.2a2.27,2.27,0,0,1-.08-.8,15.17,15.17,0,0,0,.63-3.05,3.11,3.11,0,0,1,.24-.75.77.77,0,0,0,.22.06c.12,0,.34,0,.35,0,.12-.63.39-.36.59-.09s.57.34.89.46a10.63,10.63,0,0,1,1.79.8,1.15,1.15,0,0,0,1.07.16c.47-.31,1-.06,1.46-.37a7,7,0,0,1,1.4-.45,10.63,10.63,0,0,0,4.19-2.51c.32-.33.63-.67,1-1a11.76,11.76,0,0,0,1.93-2.61A13.86,13.86,0,0,0,139.84,32a5.87,5.87,0,0,0,.35-1.57c0-.46.15-.93.19-1.4s-.09-.9.22-1.29c-.1-.82.21-1.67-.2-2.47a1.67,1.67,0,0,1,0-.74,18.26,18.26,0,0,0-1-4.92,16.71,16.71,0,0,0-1.11-2.84,36.11,36.11,0,0,0-2.87-4.57,36.07,36.07,0,0,0-3.56-3.95,6.91,6.91,0,0,0-1.19-1c-.55-.31-.79-.92-1.38-1.23a16.32,16.32,0,0,0-4.18-1.76c-.69-.14-1.37-.31-2.06-.45a15.76,15.76,0,0,0-2-.18c-.37,0-.72-.16-1.09-.2S119.21,3.45,118.76,3.45Z" fill="#a9a8a9"/><path d="M109.29,58.29c0,1.59,0,3.19,0,4.79,0,.68-.16,1.36-.2,2a12.45,12.45,0,0,1,0,2.12,14.52,14.52,0,0,0-.19,1.73,16,16,0,0,1-.24,1.71,18.42,18.42,0,0,1-1.1,3.9,6.14,6.14,0,0,1-2,2.43,1.58,1.58,0,0,1-1.22.12.78.78,0,0,1-.75-.83c0-.11-.14-.22-.2-.34a9,9,0,0,1-.65-2.39,5.87,5.87,0,0,1-.2-1.72c0-.59-.31-1.12-.23-1.73a9.83,9.83,0,0,0,0-1.8c0-.44-.16-.87-.2-1.3s0-.85,0-1.28a.76.76,0,0,0-.65-.71,3.55,3.55,0,0,0-1.18-.25,12.21,12.21,0,0,1-1.6,0,8.51,8.51,0,0,0-2.18.37c-.52.14-1.1,0-1.52.47a3.31,3.31,0,0,0-2.13,1.28,4.07,4.07,0,0,0-1.39,2.62,1.74,1.74,0,0,0-.17,1.6,5.15,5.15,0,0,0,.57,1.68A2.65,2.65,0,0,0,94,74.17c.57,0,1.14,0,1.7,0a10.49,10.49,0,0,0,2.67-.49,2.9,2.9,0,0,1,.48-.14c.6-.06,1.1-.43,1.73-.46.48,0,.66.37,1,.43s.22.52.38.76c.28.42-.06,1-.61,1.4-.2.13-.48.29-.52.48-.1.46-.62.39-.77.74-.89.11-1.67.58-2.58.72a23.2,23.2,0,0,1-3.43.18c-.39,0-.86.14-1.15,0s-.87-.08-1.28-.26a13.66,13.66,0,0,0-1.75-.66c-.43-.12-.55-.51-.84-.75a7,7,0,0,1-2.36-2.9A17.25,17.25,0,0,1,86,71.11,10,10,0,0,1,85.88,68a9.69,9.69,0,0,1,.82-3.37,9.55,9.55,0,0,1,1.06-2.12,9.28,9.28,0,0,1,2.79-2.58,9.16,9.16,0,0,1,2.5-1.15c.38-.09.75-.26,1.13-.36s.72-.13,1.08-.22a24.4,24.4,0,0,1,6.21-.42c.24,0,.59.06.7-.07a1.72,1.72,0,0,0,.29-.83,6,6,0,0,0,0-.85V54a8.39,8.39,0,0,1,1.09-3.59,1.66,1.66,0,0,1,.67-.67,6.65,6.65,0,0,1,1.63-.69,2.21,2.21,0,0,1,2.2.81,5.17,5.17,0,0,1,1.23,3.32C109.27,54.88,109.29,56.58,109.29,58.29Z" fill="#a9a8a9"/><path d="M187,68.46c0-.39,0-.78,0-1.17a10.88,10.88,0,0,1,1.63-5.07,7.63,7.63,0,0,1,.94-1.31,4.82,4.82,0,0,1,1.24-1.06c.64-.33,1.15-.91,1.91-1a.93.93,0,0,0,.27-.12,12.56,12.56,0,0,1,3.12-1c1.14-.23,2.3-.28,3.44-.44a28,28,0,0,1,3.54-.16c.32,0,.32-.16.32-.39,0-.53,0-1.07,0-1.6.05-1,.11-1.93.22-2.89a4.22,4.22,0,0,1,.35-1.13,4.84,4.84,0,0,1,.84-1.45c1.33-1.25,3.13-1.65,4.56-.09a1.61,1.61,0,0,1,.23.43,6.48,6.48,0,0,1,.79,4,6.17,6.17,0,0,0-.13,2.25,4.19,4.19,0,0,1,.15,1.52c-.41,2.41-.1,4.84-.19,7.25a10.72,10.72,0,0,0-.24,1.62,2.13,2.13,0,0,1-.18,1.52.76.76,0,0,0,0,.52c.13.57-.25,1.06-.22,1.61a8.73,8.73,0,0,1-.35,1.55,9.47,9.47,0,0,1-1.06,3,1.67,1.67,0,0,1-.72.81,2.28,2.28,0,0,0-.63.53,1.14,1.14,0,0,1-2,0,5.31,5.31,0,0,1-1-2.57,17.83,17.83,0,0,1-.43-4.18,9.91,9.91,0,0,1-.21-3.21c0-.34-.15-.68-.18-1-.05-.63-.53-.76-.88-.83a4.4,4.4,0,0,0-1.93-.24,41.92,41.92,0,0,0-4.13.83,5.7,5.7,0,0,0-3.33,2.91c-.4.21-.21.64-.28.94a4.63,4.63,0,0,0,.26,3.29,2.61,2.61,0,0,0,1.85,1.43,4.46,4.46,0,0,0,1.73.17,22.11,22.11,0,0,0,2.87-.5,6.65,6.65,0,0,1,2.44-.56c1.23.07,1.67.89,1.17,2.07-.25.6-.8.7-1.18,1.08s-.63.32-.89.66-.79.06-1,.28-.87,0-1.12.39c-1.26,0-2.5.43-3.75.2A13.86,13.86,0,0,1,192,76.7c-.2-.09-.67,0-.67-.48,0-.07-.25-.16-.4-.23A6.92,6.92,0,0,1,187.25,71a6.14,6.14,0,0,1-.2-.66C187,69.74,187,69.1,187,68.46Z" fill="#a9a8a9"/><path d="M57.09,69.34c0,.84,0,1.52,0,2.19a10.43,10.43,0,0,1-.69,3.56,3.91,3.91,0,0,1-2.17,2.24c-.5.21-1-.15-1.44-.32a.87.87,0,0,1-.65-.67,3.44,3.44,0,0,0-.86-1.23.57.57,0,0,0-.54,0c-.35.55-1.12.65-1.39,1.32-.08.2-.51.24-.77.39a8.07,8.07,0,0,1-3.75,1,12.71,12.71,0,0,0-1.38,0,9.09,9.09,0,0,1-2.32-.33c-.7-.14-1.34-.52-2-.73-.39-.12-.47-.55-.87-.69a2.62,2.62,0,0,1-1-.73,20.45,20.45,0,0,1-1.84-2A8.76,8.76,0,0,1,34.52,71a7,7,0,0,1-.19-3.21,14.84,14.84,0,0,1,1.37-4.74A8.09,8.09,0,0,1,38.63,60,13.06,13.06,0,0,1,42,58.38a11.68,11.68,0,0,1,4.22-.61,4.5,4.5,0,0,1,1.47.55,5.1,5.1,0,0,1,3,2.83,1.48,1.48,0,0,0,.13.21,1.51,1.51,0,0,1,.09-.18A7.43,7.43,0,0,1,51.6,60a2.61,2.61,0,0,1,2.26-.92,2,2,0,0,1,1.55,1.14,11.46,11.46,0,0,1,1.06,3,5.22,5.22,0,0,1,.2,1.41c0,.44.36.83.21,1.29A13.47,13.47,0,0,1,57.09,69.34Zm-13.4-4.12h-1.6a8.23,8.23,0,0,0-2,.66A2.55,2.55,0,0,0,39,67.22a3.48,3.48,0,0,0-.13,2.3,5.39,5.39,0,0,0,1,1.82,2.91,2.91,0,0,0,.68.88,8,8,0,0,0,3.18,1.35,8.76,8.76,0,0,0,3.9-.22c.69-.18,1.24-.59,1.93-.76s.88-.69.67-1a1.88,1.88,0,0,1-.18-1.1c0-.92,0-1.85,0-2.77a18.45,18.45,0,0,1,.2-4.39c0-.12-.07-.28-.1-.42-.15.08-.3.14-.44.23a6.92,6.92,0,0,0-.8.63,5.74,5.74,0,0,1-2,1.05,4.81,4.81,0,0,1-1.84.43c-.46,0-.92,0,5.33-2.53l-.12.1.09.09a1.47,1.47,0,0,0,.1-.13S50.42,62.71,43.69,65.22Z" fill="#a9a8a9"/><path d="M163.25,50.58a11.24,11.24,0,0,1-.44,1.48,18,18,0,0,1-1.71,2.81,64.33,64.33,0,0,1-7.41,8,9.9,9.9,0,0,1-1.9,1.55,5.48,5.48,0,0,0-1.06,1c-.2.2-.14.41,0,.65.28.52.51,1.07.76,1.6.49,1,1,2,1.47,3s.86,1.93,1.19,2.91.77,1.89,1,2.88a1.32,1.32,0,0,1-.35,1.45c-.73.54-1.46,1.08-2.23,1.57a7.1,7.1,0,0,1-1.34.62.48.48,0,0,1-.61-.29,2.36,2.36,0,0,1-.24-.85,7.25,7.25,0,0,0-.65-2.29c-.21-.62-.42-1.25-.64-1.87-.43-1.2-.8-2.43-1.33-3.6a13.38,13.38,0,0,0-.63-1.54c-.3-.52-.44-1.1-.79-1.6a12.28,12.28,0,0,1-.77-1.59A38.25,38.25,0,0,0,143,62.16c-.57-.87-1.17-1.72-1.75-2.57a3.27,3.27,0,0,0-1-.75c-.33-.22-.42-.42-.16-.66s.71-.54,1-.84c.62-.59,1.2-1.21,1.82-1.8a1.34,1.34,0,0,1,.5-.32c.59-.22.7-.16.77.38a1,1,0,0,0,.19.56,24.68,24.68,0,0,1,1.7,2.39c.15.24.35.42.5.64.24.37.5.73.75,1.09a13.66,13.66,0,0,0,.89-1.12c1-1.56,1.94-3.2,3.05-4.69.69-.92,1.2-1.95,1.92-2.84s1.27-1.81,1.92-2.7a5,5,0,0,1,2.93-2.12,3.65,3.65,0,0,1,3.47.66c.39.36.85.6,1,1.17S163,49.94,163.25,50.58Z" fill="#a9a8a9"/><path d="M31.32,70.81c0,1.56,0,3.12,0,4.68A18.44,18.44,0,0,1,31.1,78,4,4,0,0,1,30,79.71a10,10,0,0,1-1.05.8,2.52,2.52,0,0,1-3.41-1.2,4.86,4.86,0,0,1-.34-1.45,29,29,0,0,1,0-4.57,53.76,53.76,0,0,0,.16-5.67c0-1.88,0-3.76,0-5.64a6.15,6.15,0,0,0-.26-1.59,3.18,3.18,0,0,0-1-1.26c-.08-.08-.25-.06-.38-.08a2.89,2.89,0,0,0-2.43.83,28.22,28.22,0,0,0-2.24,2,14.7,14.7,0,0,1-1.65,1.4c-.27.2-.45.54-.79.61s-.53.44-.82.6a2,2,0,0,1-.83.29,6,6,0,0,1-2.76-.53,5.9,5.9,0,0,1-3-3.53,9.65,9.65,0,0,1-.67-4.09,1.11,1.11,0,0,1,.35-.82,2.24,2.24,0,0,1,2-.8,8.38,8.38,0,0,1,2.89,1.26,5.66,5.66,0,0,0,1.54.9c.44.13.93.43,1.32.34a4.82,4.82,0,0,0,1.94-.72c1.1-.83,2.22-1.66,3.33-2.48.19-.14.39-.25.59-.38a3.39,3.39,0,0,0,.94-.64c.24-.34.61-.36.9-.54A4.23,4.23,0,0,1,27,52.25a2.36,2.36,0,0,1,1.29.69c.4.49.81,1,1.19,1.5a5.4,5.4,0,0,1,.81,2,6.89,6.89,0,0,1,.44,2.59c.33.42.09,1,.24,1.39a3.89,3.89,0,0,1,.18,1.3c0,.5,0,1,0,1.49.07,1.25.27,2.49.22,3.75S31.32,69.53,31.32,70.81Z" fill="#a9a8a9"/><path d="M82.66,68.09a9.14,9.14,0,0,1,0,1.17c-.06.47.15.93-.18,1.42-.22.33.17.9-.24,1.28a6.38,6.38,0,0,1-.43,2.37,5.34,5.34,0,0,1-1.7,2.91,3,3,0,0,1-1.16.54,1.93,1.93,0,0,1-2-1.72,7.32,7.32,0,0,1,.38-2.82,10.42,10.42,0,0,0,.21-1.5,14.82,14.82,0,0,0,.22-3.52,6.29,6.29,0,0,0-.81-3.17,2.54,2.54,0,0,0-2.38-1,20.54,20.54,0,0,0-2.7,1,3,3,0,0,1-3.22-.54,19.3,19.3,0,0,1-1.5-1.5,1.07,1.07,0,0,1-.16-.25,1.52,1.52,0,0,0-.26.32c0,.09-.06.25,0,.31.35.4.14.87.21,1.3s-.13,1.15.16,1.74-.12,1.11.26,1.6a.33.33,0,0,1,0,.1c-.13,1.33.27,2.65.18,4A6.44,6.44,0,0,1,66,76a5.67,5.67,0,0,1-1.27,1.27,1.6,1.6,0,0,1-2.56-.59,12.65,12.65,0,0,1-1.05-2.76,20,20,0,0,1-.47-2.59c-.13-1,0-2-.23-2.88a12.43,12.43,0,0,1-.15-2.27,11.33,11.33,0,0,1,0-2.33,7.79,7.79,0,0,0,.18-1.52A5.89,5.89,0,0,1,60.76,61a3.4,3.4,0,0,1,1.34-2.29A3.75,3.75,0,0,1,65,58a1.74,1.74,0,0,1,1.21.66,9.28,9.28,0,0,1,.68,1,2.76,2.76,0,0,1,.07.82s.12,0,.15-.06a3.58,3.58,0,0,1,.46-.65A7.91,7.91,0,0,1,70,58.41a10.78,10.78,0,0,1,4.51-.4,8.17,8.17,0,0,1,1.85.4c.59.19,1.14.49,1.74.67A3.67,3.67,0,0,1,79.4,60a8.8,8.8,0,0,1,2.16,2.4A9.14,9.14,0,0,1,82.44,65c.07.51.17,1,.21,1.51S82.66,67.56,82.66,68.09Z" fill="#a9a8a9"/><path d="M112.48,67a8,8,0,0,0,0-.85c-.11-1.11.46-2.08.64-3.14.65-.69.9-1.65,1.62-2.31a14.4,14.4,0,0,1,2.34-2.08,13.2,13.2,0,0,1,2.43-1.31c.6-.18,1.14-.49,1.76-.64a9.87,9.87,0,0,1,2.06-.4c.54,0,1.07,0,1.6,0a6.82,6.82,0,0,1,3.75,1.2,9.06,9.06,0,0,1,3.82,5.3A22.16,22.16,0,0,1,133,65a12,12,0,0,1,.15,2.8,9.15,9.15,0,0,1-1.16,4.4,6.79,6.79,0,0,1-1.91,2.2c-.78.52-1.5,1.18-2.23,1.78a7.89,7.89,0,0,1-2.75,1.56,14.05,14.05,0,0,1-3.23.45,10.23,10.23,0,0,1-4.59-1.51c-.78-1.07-2-1.72-2.66-2.93a12.6,12.6,0,0,1-1-1.6,34.77,34.77,0,0,1-1.09-3.37A7.28,7.28,0,0,1,112.48,67Zm11.17-5.4a4.56,4.56,0,0,0-3.24.85,5.07,5.07,0,0,0-.87.92,8.15,8.15,0,0,0-1.72,4.5,6.13,6.13,0,0,0,.17,1.94,4.63,4.63,0,0,0,1.72,2.62,4,4,0,0,0,2.72,1.13c.92.44,1.77,0,2.66-.17.74-.17,1.11-.86,1.75-1.17a1.7,1.7,0,0,0,.5-.5c.67-1.24,1.58-2.35,1.79-3.84a6,6,0,0,0,0-2.81,4.27,4.27,0,0,0-1.41-2.16A5.58,5.58,0,0,0,123.65,61.61Z" fill="#a9a8a9"/><path d="M182.57,65.38a14.7,14.7,0,0,0,0,1.52,18.63,18.63,0,0,1-.28,4.16,14.14,14.14,0,0,1-1,4.15,4.88,4.88,0,0,1-2.3,2.38,2.27,2.27,0,0,1-2.28-.25,1.17,1.17,0,0,1-.52-.72c-.19-.84-.58-1.62-.7-2.49a14.82,14.82,0,0,0-.2-1.93,14.14,14.14,0,0,1-.18-3.43c0-1.17,0-2.35,0-3.51,0-.4.16-.79.2-1.19a5,5,0,0,1,.18-1.2c.13-.36.12-.79.24-1.18a8.49,8.49,0,0,1,.24-1.18,6,6,0,0,1,1.28-2,5.44,5.44,0,0,1,1.86-.9c.77-.28,1.31.4,1.93.69a12.29,12.29,0,0,1,1.34,3.08A30.33,30.33,0,0,1,182.57,65.38Z" fill="#a9a8a9"/><path d="M115,25c.22,1.27-.49,2.52-.85,3.83-.53.39-.51,1.08-.88,1.56s-.63.81-1,1.18a8.77,8.77,0,0,1-2.79,1.73,2.07,2.07,0,0,1-.58.15c-.46,0-.93,0-1.38,0a6,6,0,0,1-2.91-.7A5.56,5.56,0,0,1,102,30.67a3.12,3.12,0,0,1-.55-3.09c.21-.44.47-.87.7-1.3a6.88,6.88,0,0,0,.62-1.45c.14-.5.62-.88.59-1.46,1.2-2,1.52-3.07,4.35-3.95a4.08,4.08,0,0,1,2.8-.39,4.41,4.41,0,0,1,2.22,1,5,5,0,0,1,.61.31c.14.12.19.35.32.5s.36.34.51.53a1.5,1.5,0,0,1,.37.59c.13.62.55,1.15.54,1.8C115,24.15,115,24.5,115,25Zm-4.34-2.84c-.44,0-1-.12-1.28.23s-.91.41-1.09,1-.56,1-.5,1.47a3,3,0,0,0,2.87,2.85A2.74,2.74,0,0,0,113.53,25,2.68,2.68,0,0,0,110.7,22.19Z" fill="#a9a8a9"/><path d="M121.44,23.08a4.5,4.5,0,0,1,.43-2.36,3.41,3.41,0,0,1,.66-1,6.65,6.65,0,0,1,2.51-1.9,4.5,4.5,0,0,1,2.12-.53c.32,0,.64,0,1,0a4.23,4.23,0,0,1,3,1.26A25.27,25.27,0,0,1,134,22.06c.07.1.07.26.16.36.37.43.77.84,1.15,1.27.16.18.4.41.4.61,0,.37.34.71.21,1-.32.66-.27,1.44-.73,2A7.05,7.05,0,0,1,133,29.49a.52.52,0,0,0-.22.22c-.54.94-1.59,1.1-2.44,1.54a3.66,3.66,0,0,1-2.31.3,5.13,5.13,0,0,1-1.88-.61,5.62,5.62,0,0,1-1.46-1.09,22.27,22.27,0,0,1-1.88-2.31A7.32,7.32,0,0,1,121.44,23.08Zm7.87.36a2.77,2.77,0,0,0-4.73-2.11,2.86,2.86,0,0,0-.82,2,2.52,2.52,0,0,0,.77,2,2.65,2.65,0,0,0,2,.89,2.82,2.82,0,0,0,2-.82A2.51,2.51,0,0,0,129.31,23.44Z" fill="#a9a8a9"/><path d="M158.33,64.16c.43,0,.86,0,1.28,0a5.55,5.55,0,0,1,1.79.28c.45.22.92,0,1.37.31A1.57,1.57,0,0,0,164,65c1,.41,2,.52,2.91.94a6.44,6.44,0,0,1,2,1,5,5,0,0,1,1.95,3.26c0,.41.46.81,0,1.21a2.2,2.2,0,0,1-1.63,1.7,9.61,9.61,0,0,0-1,.24c-.49-.47-1.12-.13-1.68-.3a44.68,44.68,0,0,1-5-1.81A38,38,0,0,1,156,68.4a7.61,7.61,0,0,1-1.48-1.52,1.45,1.45,0,0,1-.31-1.23,1.33,1.33,0,0,1,.8-1,4.73,4.73,0,0,1,2.11-.55C157.55,64.18,157.94,64.16,158.33,64.16Z" fill="#a9a8a9"/><path d="M49,102.29c-1,0-2.05,0-3.08,0A2.72,2.72,0,0,1,45,102a.42.42,0,0,1-.24-.31c0-1-.59-1.93,0-2.92.1-.19,0-.49,0-.73,0-2.91,0-5.82,0-8.73,0-.47.05-.8.58-.92.25-.06.46-.3.7-.36a6.08,6.08,0,0,1,1.4-.21c1.35,0,2.7,0,4.05,0,.62,0,1.19.37,1.83.23.06,0,.16.11.24.16.47.26.36.71.37,1.12s0,.8-.53.84a2.18,2.18,0,0,1-2,.65c-.95,0-1.91,0-2.87,0-.7,0-.81.1-.81.76s.06,1,.08,1.56l1.49,0h3.19a1.11,1.11,0,0,1,1.2,1.34.84.84,0,0,1-.2.45c-.83,1-.83,1-2.14,1-1,0-2,0-3,0-.46,0-.63.17-.64.61q0,1.06,0,2.13c0,.52.16.66.69.67,1.45,0,2.91.07,4.36,0,.67,0,.79.42,1.06.74s0,1.1-.26,1.43a2.2,2.2,0,0,1-2,.85C50.73,102.25,49.88,102.29,49,102.29Z" fill="#a9a8a9"/><path d="M66.25,97.11c0,1.2,0,2.41,0,3.61a2.06,2.06,0,0,1-.53,1.17c-.3.42-.77.44-1.15.58s-.62-.16-.9-.32-.26-.41-.43-.47-.3.32-.47.34c-1,.14-1.94.87-3,.29-.19-.1-.49,0-.7-.09a4.57,4.57,0,0,1-2.64-2.67,7.05,7.05,0,0,1-.36-3.23,3.12,3.12,0,0,1,.8-2c.16-.15.23-.41.38-.57a3.16,3.16,0,0,1,1.47-1.07,12.52,12.52,0,0,1,1.45-.58,12.77,12.77,0,0,1,2.23,0,1.11,1.11,0,0,1,.55.2,1.39,1.39,0,0,0,1.53,0,1.15,1.15,0,0,1,1.78,1.1C66.27,94.63,66.25,95.87,66.25,97.11Zm-3.2.18A2.27,2.27,0,0,0,61.61,95a1.8,1.8,0,0,0-1.41-.1,2.15,2.15,0,0,0-1,1A2,2,0,0,0,59,96.9a4.17,4.17,0,0,0,.39,1.21,3,3,0,0,0,.53.74c.2.22.39.61.75.44.53-.23.31.51.66.45.15,0,.36.09.43-.18,0-.1.14-.18.23-.25A2,2,0,0,0,63.05,97.29Z" fill="#a9a8a9"/><path d="M136.13,97.25c0,1.2,0,2.41,0,3.61a1.61,1.61,0,0,1-1.83,1.44c-.39-.06-.87.1-1-.52,0,0-.27-.13-.32-.09a3.56,3.56,0,0,1-2.64.78c-2.18-.21-3.69-1.07-4.29-3.62a9.45,9.45,0,0,1-.19-2,4.89,4.89,0,0,1,1-2.68,4.65,4.65,0,0,1,2.17-1.67,6.88,6.88,0,0,1,3-.38,1.35,1.35,0,0,1,.65.21,1.68,1.68,0,0,0,1.64,0c1-.47,1.72,0,1.74,1.13s0,1.92,0,2.87Zm-7-.38a2.33,2.33,0,0,0,1.05,2.3c.17.13.59.13.61.24.13.6.54.27.82.27.08,0,.18-.36.24-.35.52.08.58-.35.79-.64a2.52,2.52,0,0,0,.33-1.46A2.25,2.25,0,0,0,131.48,95a2,2,0,0,0-1.66,0,.82.82,0,0,0-.32.29A2.14,2.14,0,0,0,129.1,96.87Z" fill="#a9a8a9"/><path d="M119.3,97.82h-2.13a1.2,1.2,0,0,0-.47.16.33.33,0,0,0-.11.21c.47.38.52,1.3,1.43,1.13,0,0,.13.18.21.26a1.23,1.23,0,0,0,1.28,0,4.9,4.9,0,0,1,2.34-1.09.89.89,0,0,1,.86.83,1.74,1.74,0,0,1-1,2,9.85,9.85,0,0,1-1.47.8,6,6,0,0,1-2.4.36,5.32,5.32,0,0,1-1.9-.53,5.21,5.21,0,0,1-2.19-2.35,6.42,6.42,0,0,1-.36-3.34,2.52,2.52,0,0,1,.83-2c.7-1.3,2-1.67,3.25-2.14a6,6,0,0,1,1.66-.09,4.42,4.42,0,0,1,4.11,2.79,4.5,4.5,0,0,1,.11,1.76c0,.39-1.26,1.2-1.69,1.2C120.86,97.83,120.08,97.82,119.3,97.82Zm-1-2.35c.46,0,.92,0,1.39,0,.05,0,.11,0,.17-.08a.78.78,0,0,0-.1-.15,2.44,2.44,0,0,0-3-.18.31.31,0,0,0-.1.26.29.29,0,0,0,.22.15C117.43,95.48,117.89,95.47,118.35,95.47Z" fill="#a9a8a9"/><path d="M166.59,97.39c0-1.17.06-2.34,0-3.51a1.18,1.18,0,0,1,.63-1.22,1.71,1.71,0,0,1,1.8-.23c.59.34.67.34,1.44-.08a4.56,4.56,0,0,1,2.65-.24,3.45,3.45,0,0,1,2.85,3.27c.08,1.84,0,3.69,0,5.54a1.11,1.11,0,0,1-.47.87c-.27.26-.48.62-1,.51a2.33,2.33,0,0,0-.53,0c-.75,0-1-.29-1-1.09,0-1.42,0-2.84,0-4.26a4.39,4.39,0,0,0-.22-1.19,1.94,1.94,0,0,0-2.19-1.09,1.3,1.3,0,0,0-.79,1.32c0,1.2,0,2.41,0,3.61a6.45,6.45,0,0,1-.27,1.61c-.08.36-.49.66-.79.94a1.15,1.15,0,0,1-.57.15,4.68,4.68,0,0,1-.53,0c-.72,0-1-.31-1.05-1.07C166.58,100,166.59,98.67,166.59,97.39Z" fill="#a9a8a9"/><path d="M148.48,97.48c0-1.24,0-2.48,0-3.72,0-.79.22-1,.95-1.28a1.75,1.75,0,0,1,1.81.12c.24.19.34,0,.52-.08a5.23,5.23,0,0,1,3.32-.41,5.36,5.36,0,0,1,1.7,1s0,.08,0,.11c.29.38.74.72.82,1.14a9.2,9.2,0,0,1,.27,2c-.07,1.41,0,2.83,0,4.25a1.28,1.28,0,0,1-.42,1.1c-.39.27-.74.75-1.34.59a1.47,1.47,0,0,0-.21,0c-.71,0-1-.3-1-1,0-1.39,0-2.77,0-4.16a4.58,4.58,0,0,0-.28-1.38c-.22-.79-1-1-1.63-1.12s-1.17.46-1.32,1.13a25.66,25.66,0,0,0-.17,5,1.34,1.34,0,0,1-.47,1c-.3.31-.57.62-1.07.51a4.56,4.56,0,0,0-.64,0,.87.87,0,0,1-.82-.87C148.48,100.11,148.48,98.79,148.48,97.48Z" fill="#a9a8a9"/><path d="M72.13,41.58a6.53,6.53,0,0,1,3.05.44c.82.32,1.59.78,2.39,1.17a1,1,0,0,0,.36,0c0-.1,0-.25,0-.28-.29-.22-.13-.52-.17-.78s.12-.64-.19-.89c0,0,0-.21,0-.3.32-1,.09-2.17.8-3.08a.88.88,0,0,0,.22-.44c0-.69.75-.45,1.06-.76,0,0,.25.09.33.18a6.56,6.56,0,0,1,1.2,3c0,.41.3.75.23,1.19-.23,1.35-.28,2.74-1.28,3.84a6.63,6.63,0,0,1-2.21,1.36,10.63,10.63,0,0,1-3.85.17,6.36,6.36,0,0,1-3.42-1.23c-1.29-.33-2-1.42-2.89-2.26-.32-.29-.3-.31.09-.52A6.73,6.73,0,0,1,71,41.58Z" fill="#a9a8a9"/><path d="M103.32,95.15V89.3c0-.7.1-.81.84-1.07a2.39,2.39,0,0,0,.34-.21c1.1-.51,1.8-.07,2,1.21a3.39,3.39,0,0,1,0,.64v8.94c0,.49,0,.5.51.5,1.18,0,2.35,0,3.52,0,.27,0,.36.08.5.35.27.53.56,1,.16,1.57a2,2,0,0,1-1.73,1.08c-1.63,0-3.27,0-4.9,0-.91,0-1.25-.36-1.26-1.28Z" fill="#a9a8a9"/><path d="M176,52.24c-.23-1.53.82-2.38,2-3,.48.08.79-.36,1.21-.42s.85.05,1.27,0a3.57,3.57,0,0,1,2.25.73,2.62,2.62,0,0,1,.84,2.66c-.12.37-.23.75-.35,1.13a3,3,0,0,1-1,1.28c-.3.25-.71.36-1,.61-.8.67-1.73.43-2.6.39a2.81,2.81,0,0,1-1.67-.83A2.85,2.85,0,0,1,176,52.24Z" fill="#a9a8a9"/><path d="M81.59,94.83c0,2,0,4,0,6a1.22,1.22,0,0,1-.46,1,1.45,1.45,0,0,1-1.06.54c-1.16,0-1.52-.21-1.5-1.52,0-3.76,0-7.52,0-11.28,0-.68.05-1.29,1-1.29a1.13,1.13,0,0,1,1.1-.43.93.93,0,0,1,.94,1.07Z" fill="#a9a8a9"/><path d="M138.68,97.31v-3c0-.21-.08-.52,0-.62.31-.28.07-.82.57-1a3.35,3.35,0,0,1,1.85-.41.18.18,0,0,1,.08.07c.41.53.8.14,1.18,0a3.92,3.92,0,0,1,3,.09c.58.33.92.67.82,1.36-.05.27,0,.54-.22.77a2.51,2.51,0,0,1-1.19.74,2.64,2.64,0,0,1-1.71-.49c-.27-.13-.36-.07-.61,0-.49.15-.55.42-.55.84,0,1.6,0,3.19,0,4.79a2.64,2.64,0,0,1-1.26,1.87,1.41,1.41,0,0,1-1.93-1.47C138.65,99.65,138.68,98.48,138.68,97.31Z" fill="#a9a8a9"/><path d="M68.81,97.28c0-1,0-2,0-3,0-.44.27-.77.23-1.19a.34.34,0,0,1,0-.1,2.16,2.16,0,0,1,2.46-.5c.17.13.23.17.39,0s.32,0,.4,0c.57-.52,1.28-.36,2-.43a2.82,2.82,0,0,1,1.59.55c.21.11.5.3.45.65s.15.94-.3,1.38a1.94,1.94,0,0,1-2.41.38c-.11-.06-.28-.09-.34-.18-.31-.48-.62,0-.89,0s-.34.37-.34.69c0,1.56,0,3.12,0,4.68a2.12,2.12,0,0,1-.71,1.62,1.7,1.7,0,0,1-1.73.4c-.55-.16-.67-.84-.73-1.35a22.81,22.81,0,0,1,0-2.34Z" fill="#a9a8a9"/><path d="M163.82,97.18c0,1.13,0,2.27,0,3.4a1.28,1.28,0,0,1-.4,1.1c-.38.28-.72.75-1.33.62-.32-.08-.68.11-1-.24a1.72,1.72,0,0,1-.51-1.17c0-2.27,0-4.54,0-6.8a1.59,1.59,0,0,1,.47-1.28,2.36,2.36,0,0,1,2-.51,1.14,1.14,0,0,1,.73,1.06C163.83,94.63,163.82,95.91,163.82,97.18Z" fill="#a9a8a9"/><path d="M119.85,28.37c.25,0,.5,0,.75,0,.65,0,1,.57.6,1.08s-.46,1.09-1.1,1.27a.27.27,0,0,0-.15.22,10.62,10.62,0,0,0,.15,2.16c.16.52.55.54.83.79,0,0,.34-.1.4-.23s.2-.49.58-.4c.13,0,.3-.11.45-.18l.3-.18a1.55,1.55,0,0,1,0,.31c0,.13,0,.32,0,.4A4.44,4.44,0,0,1,120.78,35a1.2,1.2,0,0,1-1.16-.21c-.36-.29-.58-.23-.9,0a2,2,0,0,1-2.67-.19c-.25-.31-.22-.78.14-.84.19,0,.3.13.4-.19,0-.16.5-.23.56.08s.47.31.7.45.58-.14.59-.41c0-.63,0-1.27,0-1.91a.6.6,0,0,0-.29-.4,5.78,5.78,0,0,0-.72-.31,1.28,1.28,0,0,1-.9-1.53.34.34,0,0,1,.27-.34,7.45,7.45,0,0,0,1-.54.3.3,0,0,1,.19-.07,2.4,2.4,0,0,0,.87-.2A3.76,3.76,0,0,1,119.85,28.37Z" fill="#a9a8a9"/><path d="M162.61,88.6a4.87,4.87,0,0,1,.84.28,1.18,1.18,0,0,1,.49,1.48c-.26.76-1,1.06-1.52,1.46s-1.56-.24-1.79-.81c-.4-1-.22-1.36.74-2A2.53,2.53,0,0,1,162.61,88.6Z" fill="#a9a8a9"/><path d="M111,26.88c-1.34,0-1.91-.61-1.94-2a1.54,1.54,0,0,1,.52-1.38,2,2,0,0,1,1.44-.64,2.12,2.12,0,0,1,2.1,2.09,1.64,1.64,0,0,1-.56,1.35A1.71,1.71,0,0,1,111,26.88Zm1.49-1.73a.6.6,0,0,0-.65-.62c-.41,0-.06.41-.35.5-.07,0,.49.67.64.56s.29-.34-.5-1.64c0,0,0-.32-.08-.42a1.36,1.36,0,0,0-.72-.26c-.29,0-.7.46-.69.76a.91.91,0,0,0,.84.72A1.79,1.79,0,0,1,112.49,25.15Z" fill="#a9a8a9"/><path d="M128.25,23.38a1.92,1.92,0,0,1-2,2,2,2,0,1,1,.11-4.06A2,2,0,0,1,128.25,23.38ZM126,23.26a1,1,0,0,0,1-.71.89.89,0,0,0-.9-.78c-.45,0-.6.19-.59.74s.14.74-.11.75-.61-.12-.54.38c0,.22-.09.5.34.48s.78-.21.65-.38S125.82,23.12,126,23.26Z" fill="#a9a8a9"/></g></g></svg>