<svg id="Layer_1" enable-background="new 0 0 512 512" height="512" viewBox="0 0 512 512" width="512" xmlns="http://www.w3.org/2000/svg"><path d="m146.74 478.759c-13.807 0-25-11.193-25-25v-417c0-13.807 11.193-25 25-25h12.47 166.03c28.544 0 55.919 11.339 76.103 31.523l71.637 71.637c20.182 20.182 31.52 47.555 31.52 76.096v262.744c0 13.807-11.193 25-25 25z" fill="#f6f1f1"/><path d="m504.5 191.019v15.85c0-33.37-27.06-60.43-60.43-60.43h-49.25c-13.807 0-25-11.193-25-25v-49.25c0-33.37-27.06-60.43-60.43-60.43h15.85c28.544 0 55.919 11.339 76.103 31.523l71.634 71.634c20.184 20.184 31.523 47.559 31.523 76.103z" fill="#eadfda"/><circle cx="112.857" cy="394.941" fill="#80e29d" r="105.357"/><path d="m66.438 469.439c16.993 16.993 38.349 26.965 60.454 29.918-31.424 4.207-64.382-5.766-88.533-29.918-41.144-41.144-41.144-107.851 0-148.996 24.152-24.152 57.109-34.124 88.533-29.918-22.105 2.953-43.461 12.925-60.454 29.918-41.144 41.145-41.144 107.852 0 148.996z" fill="#66b49d"/><path d="m103.589 457.79c.395 0 .791-.031 1.188-.095 2.375-.381 4.424-1.878 5.508-4.026l51.801-102.625c1.866-3.698.382-8.208-3.315-10.075-3.697-1.868-8.209-.382-10.075 3.316l-47.131 93.372-36.652-36.653c-2.929-2.929-7.677-2.929-10.607 0-2.929 2.929-2.929 7.678 0 10.606l43.981 43.982c1.416 1.419 3.328 2.198 5.302 2.198z"/><path d="m440.322 217.266h-202.182c-4.143 0-7.5 3.358-7.5 7.5s3.357 7.5 7.5 7.5h202.182c4.143 0 7.5-3.358 7.5-7.5s-3.357-7.5-7.5-7.5z"/><path d="m440.32 264.11h-29.51c-4.143 0-7.5 3.358-7.5 7.5s3.357 7.5 7.5 7.5h29.51c4.143 0 7.5-3.358 7.5-7.5s-3.357-7.5-7.5-7.5z"/><path d="m380.81 264.11h-194.89c-4.143 0-7.5 3.358-7.5 7.5s3.357 7.5 7.5 7.5h194.89c4.143 0 7.5-3.358 7.5-7.5s-3.357-7.5-7.5-7.5z"/><path d="m206.223 141.489c3.864 1.475 8.203-.468 9.678-4.339l4.121-10.821h28.103l4.076 10.799c1.133 3.004 3.987 4.854 7.018 4.854.88 0 1.775-.156 2.647-.485 3.875-1.463 5.831-5.79 4.368-9.665l-23.718-62.846c-.025-.069-.053-.137-.08-.205-1.386-3.368-4.632-5.542-8.272-5.542-.002 0-.005 0-.008 0-3.645.003-6.891 2.185-8.271 5.558-.023.057-.046.114-.067.171l-23.935 62.843c-1.474 3.871.469 8.204 4.34 9.678zm27.915-52.222 8.326 22.062h-16.729z"/><path d="m276.023 140.611c1.313.925 2.82 1.369 4.313 1.369 2.357 0 4.678-1.108 6.139-3.181l17.911-25.425 17.883 25.421c1.46 2.076 3.781 3.185 6.141 3.185 1.49 0 2.996-.443 4.309-1.366 3.388-2.383 4.202-7.062 1.818-10.45l-20.975-29.816 17.817-25.291c2.385-3.386 1.573-8.065-1.813-10.451-3.389-2.386-8.064-1.574-10.451 1.812l-14.721 20.897-14.698-20.893c-2.382-3.387-7.058-4.203-10.449-1.819-3.388 2.383-4.202 7.062-1.818 10.45l17.789 25.288-21.006 29.819c-2.386 3.387-1.574 8.066 1.811 10.451z"/><path d="m189.582 134.48v-56.241h10.172c4.143 0 7.5-3.358 7.5-7.5s-3.357-7.5-7.5-7.5h-35.201c-4.143 0-7.5 3.358-7.5 7.5s3.357 7.5 7.5 7.5h10.029v56.241c0 4.142 3.357 7.5 7.5 7.5s7.5-3.358 7.5-7.5z"/><path d="m478.284 109.615-71.641-71.64c-21.742-21.742-50.652-33.717-81.403-33.717h-178.5c-17.921 0-32.5 14.58-32.5 32.5v245.342c-24.873-.301-49.189 7.584-69.065 22.523-3.312 2.489-3.979 7.19-1.489 10.501 2.489 3.312 7.191 3.978 10.501 1.49 18.646-14.015 41.807-20.876 65.223-19.312 23.63 1.575 45.879 11.675 62.647 28.439 38.15 38.161 38.15 100.244.001 138.393-38.16 38.151-100.245 38.151-138.394.001-16.766-16.766-26.868-39.009-28.445-62.631-1.563-23.407 5.294-46.57 19.308-65.22 2.488-3.312 1.82-8.013-1.491-10.501-3.31-2.488-8.013-1.82-10.501 1.491-16.172 21.522-24.085 48.239-22.283 75.23 1.819 27.249 13.47 52.903 32.805 72.238 22.002 22.002 50.896 33.001 79.8 32.999 23.312-.002 46.629-7.167 66.325-21.483h300.318c17.921 0 32.5-14.58 32.5-32.5v-262.74c0-30.751-11.974-59.66-33.716-81.403zm-10.607 10.607c10.933 10.933 19.019 23.953 23.902 38.158-12.26-12.014-29.031-19.441-47.512-19.441h-49.247c-9.649 0-17.5-7.851-17.5-17.5v-49.246c0-18.481-7.427-35.253-19.442-47.513 14.206 4.882 27.225 12.968 38.158 23.902zm29.323 333.536c0 9.649-7.851 17.5-17.5 17.5h-283.507c13.799-15.016 22.787-32.893 26.957-51.639h142.9c4.143 0 7.5-3.358 7.5-7.5s-3.357-7.5-7.5-7.5h-140.608c.906-10.624.319-21.352-1.765-31.84h216.843c4.143 0 7.5-3.358 7.5-7.5s-3.357-7.5-7.5-7.5h-220.91c-3.909-11.269-9.651-22.037-17.229-31.835h238.141c4.143 0 7.5-3.358 7.5-7.5s-3.357-7.5-7.5-7.5h-252.094c-16.541-14.842-37.06-24.451-58.988-27.661v-246.525c0-9.649 7.851-17.5 17.5-17.5l162.646.001c29.188 0 52.934 23.746 52.934 52.934v49.246c0 17.92 14.579 32.5 32.5 32.5h49.246c29.188 0 52.934 23.746 52.934 52.934z"/></svg>