<svg xmlns="http://www.w3.org/2000/svg" viewBox="0 0 179.39 79.32"><g id="afcb36bc-09b8-4376-8a39-1f49063fdab7" data-name="yum"><g id="f03bc558-32fa-4769-b97e-952854014814" data-name="Layer 7"><path d="M49.58,36.32a3.44,3.44,0,0,1,3.18-1.79,23.78,23.78,0,0,0,2.39,0c3.49-.48,4.8,1.71,5.14,4.73A17,17,0,0,1,60,45.72c-.51,1.86-.15,4-.21,6,0,1.45.41,3-1.13,4.09a6,6,0,0,1-5.12.79c-.88-.23-1.7-.67-2.55-.21-1.73.92-2.83.17-3.74-1.24l-.43-.66-6,1.59c-.19,0-.44.13-.58.06A25.37,25.37,0,0,1,36.42,54a3.69,3.69,0,0,1-1.25-3.21c0-1.5,0-3,0-4.49a13.11,13.11,0,0,0-.44-3.8c-.67-2.11,0-4.35.65-6.39A3.62,3.62,0,0,1,38,33.86c1.17-.31,2.21-.94,3.21.32.16.19.71.15,1.06.09,3.14-.56,3.41-.45,4.91,2-.2,2.43-.49,4.86-.57,7.3a8.24,8.24,0,0,1-1,4.25c0,.05.15.25.24.4l2.48-.9c0-2,.09-4,0-6A8.47,8.47,0,0,1,49.58,36.32Z" transform="translate(-5.87 -9.67)" fill="#a9a8a9"/></g><g id="ef394e03-960e-4012-8258-999a47c4366d" data-name="Layer 6"><path d="M49.58,36.32a3.44,3.44,0,0,1,3.18-1.79,23.78,23.78,0,0,0,2.39,0c3.49-.48,4.8,1.71,5.14,4.73A17,17,0,0,1,60,45.72c-.51,1.86-.15,4-.21,6,0,1.45.41,3-1.13,4.09a6,6,0,0,1-5.12.79c-.88-.23-1.7-.67-2.55-.21-1.73.92-2.83.17-3.74-1.24l-.43-.66-6,1.59c-.19,0-.44.13-.58.06A25.37,25.37,0,0,1,36.42,54a3.69,3.69,0,0,1-1.25-3.21c0-1.5,0-3,0-4.49a13.11,13.11,0,0,0-.44-3.8c-.67-2.11,0-4.35.65-6.39A3.62,3.62,0,0,1,38,33.86c1.17-.31,2.21-.94,3.21.32.16.19.71.15,1.06.09,3.14-.56,3.41-.45,4.91,2-.2,2.43-.49,4.86-.57,7.3a8.24,8.24,0,0,1-1,4.25c0,.05.15.25.24.4l2.48-.9c0-2,.09-4,0-6A8.47,8.47,0,0,1,49.58,36.32Z" transform="translate(-5.87 -9.67)" fill="#a9a8a9"/><path d="M74.17,53.72c-.19.3-.51.58-.57.91-.19,1.09-.84,1.45-1.88,1.51-1.57.08-3.11-.17-4.7.46-1.38.54-3-.9-3-2.42s-.47-3.39.43-5a1,1,0,0,0,.07-.87C63.62,46.62,64,44.8,64,43c.07-2.36.33-4.72.61-7.07a2.08,2.08,0,0,1,2.77-1.8A1.58,1.58,0,0,0,69,34c1.66-1.12,3.31-1.18,4.78.39a2,2,0,0,0,2.13.51,17.55,17.55,0,0,1,5.3-.31,3.61,3.61,0,0,1,3.36,3.49c.37-1,.44-2,1-2.5a4.51,4.51,0,0,1,2.39-1,12.7,12.7,0,0,1,3.59,0,4.75,4.75,0,0,1,3.69,4.47c.22,1.94.62,3.86,1,5.79a4,4,0,0,1,.21.86,46.48,46.48,0,0,1-1.21,9,2.54,2.54,0,0,1-2.61,2,22.27,22.27,0,0,0-2.87.54,2.78,2.78,0,0,1-3.49-1.77c-.09-.78-.17-1.56-.27-2.33-.07-.48-.38-1-.23-1.41,1-2.62.26-5.28.47-7.86l-2.5-1.64a4.79,4.79,0,0,0,.76,2.18A3.2,3.2,0,0,1,85,45.79c-.1,3.05.47,6.14-.57,9.13-2.07,1.9-4.56,1.25-6.92,1-1.09-.11-1.69-1.17-2.08-2.2.28-3.22-.59-6.49.54-9.67.23-.66-.18-1.14-1-1.12-.38,0-.76.06-.89.07C74.27,46.66,74.14,50.19,74.17,53.72Z" transform="translate(-5.87 -9.67)" fill="#a9a8a9"/></g><g id="b9f23030-ce83-40f2-9c6b-3a8723610094" data-name="Layer 5"><path d="M49.58,36.32a3.44,3.44,0,0,1,3.18-1.79,23.78,23.78,0,0,0,2.39,0c3.49-.48,4.8,1.71,5.14,4.73A17,17,0,0,1,60,45.72c-.51,1.86-.15,4-.21,6,0,1.45.41,3-1.13,4.09a6,6,0,0,1-5.12.79c-.88-.23-1.7-.67-2.55-.21-1.73.92-2.83.17-3.74-1.24l-.43-.66-6,1.59c-.19,0-.44.13-.58.06A25.37,25.37,0,0,1,36.42,54a3.69,3.69,0,0,1-1.25-3.21c0-1.5,0-3,0-4.49a13.11,13.11,0,0,0-.44-3.8c-.67-2.11,0-4.35.65-6.39A3.62,3.62,0,0,1,38,33.86c1.17-.31,2.21-.94,3.21.32.16.19.71.15,1.06.09,3.14-.56,3.41-.45,4.91,2-.2,2.43-.49,4.86-.57,7.3a8.24,8.24,0,0,1-1,4.25c0,.05.15.25.24.4l2.48-.9c0-2,.09-4,0-6A8.47,8.47,0,0,1,49.58,36.32Z" transform="translate(-5.87 -9.67)" fill="#a9a8a9"/><path d="M74.17,53.72c-.19.3-.51.58-.57.91-.19,1.09-.84,1.45-1.88,1.51-1.57.08-3.11-.17-4.7.46-1.38.54-3-.9-3-2.42s-.47-3.39.43-5a1,1,0,0,0,.07-.87C63.62,46.62,64,44.8,64,43c.07-2.36.33-4.72.61-7.07a2.08,2.08,0,0,1,2.77-1.8A1.58,1.58,0,0,0,69,34c1.66-1.12,3.31-1.18,4.78.39a2,2,0,0,0,2.13.51,17.55,17.55,0,0,1,5.3-.31,3.61,3.61,0,0,1,3.36,3.49c.37-1,.44-2,1-2.5a4.51,4.51,0,0,1,2.39-1,12.7,12.7,0,0,1,3.59,0,4.75,4.75,0,0,1,3.69,4.47c.22,1.94.62,3.86,1,5.79a4,4,0,0,1,.21.86,46.48,46.48,0,0,1-1.21,9,2.54,2.54,0,0,1-2.61,2,22.27,22.27,0,0,0-2.87.54,2.78,2.78,0,0,1-3.49-1.77c-.09-.78-.17-1.56-.27-2.33-.07-.48-.38-1-.23-1.41,1-2.62.26-5.28.47-7.86l-2.5-1.64a4.79,4.79,0,0,0,.76,2.18A3.2,3.2,0,0,1,85,45.79c-.1,3.05.47,6.14-.57,9.13-2.07,1.9-4.56,1.25-6.92,1-1.09-.11-1.69-1.17-2.08-2.2.28-3.22-.59-6.49.54-9.67.23-.66-.18-1.14-1-1.12-.38,0-.76.06-.89.07C74.27,46.66,74.14,50.19,74.17,53.72Z" transform="translate(-5.87 -9.67)" fill="#a9a8a9"/><path d="M5.87,30.89a6.31,6.31,0,0,0,.53-.63c1.31-2,2.89-3.41,5.56-3,1.16.2,2.46-.22,3.53.15,2.26.76,4.2,2,4.69,4.68l-.91,4.38c.47.66.94,1.37,1.47,2a8.5,8.5,0,0,0,1.1.93c-.68-3.38-.68-3.38.69-6.75a2.28,2.28,0,0,0,0-.59c.13-.54.48-1.13.37-1.61-.47-2,.54-3.39,1.92-4.54s2.81-1.53,4.37-.42c1,.7,2.08.52,3.16.58,1.88.08,2.67.89,2.78,2.72.13,2,.09,4-2.08,5.12a1.85,1.85,0,0,0-.86,1.44c.39,2.64-1.64,4.34-2.38,6.52a6.43,6.43,0,0,0-.65,1.89,10.9,10.9,0,0,1-4.59,9.39,3.08,3.08,0,0,0-1.32,1.57,3,3,0,0,1-1.87,2.48,6.28,6.28,0,0,1-4.34.57C14.73,57.07,12.48,54.77,13,52c.42-2.18,1.23-4.28,1.92-6.61-.69-.57-1.69-1.34-2.63-2.18a7.77,7.77,0,0,1-2-2.09,27,27,0,0,0-4.48-6.54Z" transform="translate(-5.87 -9.67)" fill="#a9a8a9"/></g></g><g id="fd1d9b80-de44-4aac-a73b-900da6a468e4" data-name="Layer 8"><path d="M45.14,21.86v.83H43.38v1.5h1.47V25H43.38v2.12h-.9V21.86Z" transform="translate(-5.87 -9.67)" fill="#a9a8a9"/><path d="M48,25.11v2h-.9V21.86h1.36a2.28,2.28,0,0,1,.78.12,1.46,1.46,0,0,1,.53.31,1.44,1.44,0,0,1,.3.49,2.11,2.11,0,0,1,0,1.11,1.57,1.57,0,0,1-.18.42,1.54,1.54,0,0,1-.28.34,1.47,1.47,0,0,1-.4.24,1.07,1.07,0,0,1,.16.14.72.72,0,0,1,.14.19l1,1.92h-.8a.35.35,0,0,1-.33-.21l-.83-1.65a.36.36,0,0,0-.11-.13.3.3,0,0,0-.18,0Zm0-.74h.45a1.07,1.07,0,0,0,.38-.07.73.73,0,0,0,.26-.19.69.69,0,0,0,.15-.28,1.36,1.36,0,0,0,0-.36.71.71,0,0,0-.83-.8H48Z" transform="translate(-5.87 -9.67)" fill="#a9a8a9"/><path d="M55.17,21.86v.83H53.31v1.4h1.45v.8H53.31v1.42h1.87v.83H52.42V21.86Z" transform="translate(-5.87 -9.67)" fill="#a9a8a9"/><path d="M60,21.86v.83H58.11v1.4h1.44v.8H58.11v1.42H60v.83H57.21V21.86Z" transform="translate(-5.87 -9.67)" fill="#a9a8a9"/><path d="M64.79,21.86v.39a.55.55,0,0,1-.08.31l-1.95,3.75h2v.83H61.68v-.41a.54.54,0,0,1,.08-.28l2-3.76H61.83v-.83Z" transform="translate(-5.87 -9.67)" fill="#a9a8a9"/><path d="M69.45,21.86v.83H67.59v1.4H69v.8H67.59v1.42h1.86v.83H66.69V21.86Z" transform="translate(-5.87 -9.67)" fill="#a9a8a9"/><path d="M78.28,24.5a3.27,3.27,0,0,1-.16,1.06,2.4,2.4,0,0,1-.44.84,2,2,0,0,1-1.59.74H74.44V21.86h1.65a2,2,0,0,1,.9.2,2,2,0,0,1,.69.54,2.49,2.49,0,0,1,.44.84A3.23,3.23,0,0,1,78.28,24.5Zm-.91,0a2.93,2.93,0,0,0-.09-.76,1.65,1.65,0,0,0-.25-.57,1.25,1.25,0,0,0-.4-.36,1.19,1.19,0,0,0-.54-.12h-.75v3.62h.75a1.19,1.19,0,0,0,.54-.12,1.25,1.25,0,0,0,.4-.36,1.65,1.65,0,0,0,.25-.57A3,3,0,0,0,77.37,24.5Z" transform="translate(-5.87 -9.67)" fill="#a9a8a9"/><path d="M81.13,25.11v2h-.89V21.86H81.6a2.18,2.18,0,0,1,.77.12,1.38,1.38,0,0,1,.53.31,1.18,1.18,0,0,1,.3.49,1.72,1.72,0,0,1,.1.62,2,2,0,0,1-.06.49,1.51,1.51,0,0,1-.47.76,1.28,1.28,0,0,1-.39.24,1.07,1.07,0,0,1,.16.14.72.72,0,0,1,.14.19l1,1.92h-.81a.37.37,0,0,1-.33-.21l-.82-1.65a.36.36,0,0,0-.11-.13.34.34,0,0,0-.18,0Zm0-.74h.46A1.07,1.07,0,0,0,82,24.3a.72.72,0,0,0,.41-.47,1.36,1.36,0,0,0,.05-.36.72.72,0,0,0-.83-.8h-.47Z" transform="translate(-5.87 -9.67)" fill="#a9a8a9"/><path d="M86.53,27.14h-.9V21.86h.9Z" transform="translate(-5.87 -9.67)" fill="#a9a8a9"/><path d="M91.56,21.86v.83H89.7v1.4h1.45v.8H89.7v1.42h1.86v.83H88.8V21.86Z" transform="translate(-5.87 -9.67)" fill="#a9a8a9"/><path d="M97.43,24.5a3.57,3.57,0,0,1-.16,1.06,2.41,2.41,0,0,1-.45.84,2,2,0,0,1-1.59.74H93.59V21.86h1.64a2,2,0,0,1,.9.2,2,2,0,0,1,.69.54,2.51,2.51,0,0,1,.45.84A3.52,3.52,0,0,1,97.43,24.5Zm-.91,0a2.93,2.93,0,0,0-.09-.76,1.86,1.86,0,0,0-.25-.57,1.29,1.29,0,0,0-.41-.36,1.19,1.19,0,0,0-.54-.12h-.74v3.62h.74a1.19,1.19,0,0,0,.54-.12,1.29,1.29,0,0,0,.41-.36,1.86,1.86,0,0,0,.25-.57A3,3,0,0,0,96.52,24.5Z" transform="translate(-5.87 -9.67)" fill="#a9a8a9"/></g><g id="ba28601a-acca-4e4f-a067-a5eeb22d0436" data-name="r"><circle cx="173.6" cy="69.21" r="5.3" fill="none" stroke="#a9a8a9" stroke-miterlimit="10"/><path d="M178.6,79.19v2.4h-.89V75.81h1.75a4.27,4.27,0,0,1,1,.11,2.39,2.39,0,0,1,.7.32,1.23,1.23,0,0,1,.4.51,1.6,1.6,0,0,1,.13.67,1.47,1.47,0,0,1-.1.56,1.44,1.44,0,0,1-.28.48,1.84,1.84,0,0,1-.46.36,2.28,2.28,0,0,1-.62.23.91.91,0,0,1,.16.11l.14.14,1.71,2.29h-.78a.43.43,0,0,1-.36-.17l-1.51-2a.42.42,0,0,0-.16-.14.54.54,0,0,0-.25,0Zm0-.59h.83a1.92,1.92,0,0,0,.61-.08,1.2,1.2,0,0,0,.45-.23,1,1,0,0,0,.26-.36,1.14,1.14,0,0,0,.09-.46c0-.69-.46-1-1.38-1h-.86Z" transform="translate(-5.87 -9.67)" fill="#a9a8a9"/></g><g id="a5a5b715-7020-4160-a29c-484d6dbe05fe" data-name="head"><path d="M137.67,76.42a.54.54,0,0,0-.5-.3,6.32,6.32,0,0,1-.71,0,11.11,11.11,0,0,1-3.74-.86l-1.28-.43-1.93-1.48a.47.47,0,0,0-.3-.1.27.27,0,0,0-.13,0,13.68,13.68,0,0,1-3.46.41c-1.12,0-2.22-.1-3.25-.2a2.93,2.93,0,0,1-2.74-2.31,11.26,11.26,0,0,0-.59-1.78c-.09-.23-.19-.46-.27-.69a.49.49,0,0,0-.41-.33l-2.07-.22a37.93,37.93,0,0,1-4.4-.6,11.75,11.75,0,0,1-6-3.61,12.61,12.61,0,0,1-3-12.91,7.08,7.08,0,0,1,5.07-5l.85-.29c.94-.34,1.52-.57,1.73-1.1s-.06-1.08-.48-1.87a9.87,9.87,0,0,1-1.2-4.87,11.83,11.83,0,0,1,4.94-9.51,12.14,12.14,0,0,1,1.65-1.1c2-1.11,3.85-2,6-2a7,7,0,0,1,1,.07,8.12,8.12,0,0,0,1.16.07l1,0,1,0A.49.49,0,0,0,126,25c.1-.57.19-1.12.28-1.67a30,30,0,0,1,.64-3.32,9.31,9.31,0,0,1,4.31-5.68,32.19,32.19,0,0,1,10.71-4.18l7.66.16c4.14.12,7.18,2.36,9.85,4.77a17.92,17.92,0,0,1,6,10.86A2.47,2.47,0,0,0,167,28.09a27.64,27.64,0,0,1,2.87,1.45c1,.64,2,1.36,3.11,2.16.19.15.37.34.57.53a5,5,0,0,0,.76.69c3.81,2.65,5.63,6.43,5.57,11.54a10.54,10.54,0,0,1-.25,1.79,10,10,0,0,0-.28,2,11.49,11.49,0,0,0,.62,3.29c.19.65.43,1.29.67,1.92a11.66,11.66,0,0,1,.93,3.29,8.45,8.45,0,0,1-1.68,6,16.81,16.81,0,0,1-9.63,5.9A16.26,16.26,0,0,1,167,69a22.34,22.34,0,0,1-4.3-.44,11.66,11.66,0,0,0-2.22-.29,4.33,4.33,0,0,0-2.44.7,5.07,5.07,0,0,1-2.62,1,3.26,3.26,0,0,1-1.52-.4,1.2,1.2,0,0,0-.53-.14c-.58,0-1,.49-1.09,1.31a7.12,7.12,0,0,0-2.65,1.53c-.34.27-.68.55-1.05.79a3.56,3.56,0,0,0-1.75,2.33,2.29,2.29,0,0,0-1.54-.6l-.37,0a8.67,8.67,0,0,1-1.21.07c-.35,0-.71,0-1.06,0l-.87,0h-.11A5.06,5.06,0,0,0,137.67,76.42Z" transform="translate(-5.87 -9.67)" fill="#f2f2f2"/><path d="M141.92,10.67l7.64.15c4,.11,6.93,2.3,9.52,4.64A17.44,17.44,0,0,1,164.94,26a3,3,0,0,0,1.83,2.53A24.72,24.72,0,0,1,169.58,30c1,.62,2,1.34,3.07,2.13.16.13.33.3.51.48a5.1,5.1,0,0,0,.83.75c3.67,2.55,5.42,6.19,5.36,11.13a9.81,9.81,0,0,1-.24,1.69,10.64,10.64,0,0,0-.29,2.08,11.93,11.93,0,0,0,.64,3.44,20.61,20.61,0,0,0,.69,2,11.38,11.38,0,0,1,.89,3.15,7.94,7.94,0,0,1-1.57,5.66,16.25,16.25,0,0,1-9.34,5.73,15.34,15.34,0,0,1-3.11.3,22.2,22.2,0,0,1-4.21-.43,11.61,11.61,0,0,0-2.31-.3,4.83,4.83,0,0,0-2.71.78,4.66,4.66,0,0,1-2.35.93,2.7,2.7,0,0,1-1.29-.35,1.64,1.64,0,0,0-.76-.19,1.61,1.61,0,0,0-1.53,1.42,8.2,8.2,0,0,0-2.52,1.53,11.11,11.11,0,0,1-1,.76,4.4,4.4,0,0,0-1.76,2,2.58,2.58,0,0,0-1.26-.31l-.45,0a7.51,7.51,0,0,1-1.13.07c-.35,0-.7,0-1,0l-.89,0h-.11a5.77,5.77,0,0,0-4.05,1.4,1.17,1.17,0,0,0-.47-.1h-.12a5.68,5.68,0,0,1-.59,0,10.88,10.88,0,0,1-3.57-.83l-1.22-.41L131,73.9l-1.17-.9a1,1,0,0,0-.61-.21,1.15,1.15,0,0,0-.26,0,12.67,12.67,0,0,1-3.33.4c-1.1,0-2.18-.1-3.2-.2a2.41,2.41,0,0,1-2.3-1.91,10.4,10.4,0,0,0-.62-1.86c-.09-.23-.18-.46-.26-.68a1,1,0,0,0-.82-.65c-.7-.09-1.39-.16-2.08-.22a36.32,36.32,0,0,1-4.34-.6,11.3,11.3,0,0,1-5.75-3.46,12.13,12.13,0,0,1-2.9-12.43,6.61,6.61,0,0,1,4.73-4.64c.3-.09.59-.19.88-.3.93-.33,1.72-.62,2-1.39a2.79,2.79,0,0,0-.49-2.28A9.4,9.4,0,0,1,109.34,38a11.35,11.35,0,0,1,4.75-9.13,11.71,11.71,0,0,1,1.58-1.05c2-1.08,3.72-2,5.73-2a6.08,6.08,0,0,1,.95.07,9.08,9.08,0,0,0,1.23.07l1,0,.93,0a1,1,0,0,0,1-.82c.11-.58.19-1.14.28-1.68a31.07,31.07,0,0,1,.63-3.27,8.84,8.84,0,0,1,4.09-5.38,31.67,31.67,0,0,1,10.46-4.1m-.07-1h0a32.52,32.52,0,0,0-10.87,4.25,9.77,9.77,0,0,0-4.53,6c-.43,1.59-.61,3.24-.93,5-.64,0-1.28,0-1.9,0a7.88,7.88,0,0,1-1.09-.06,8.11,8.11,0,0,0-1.09-.08,13,13,0,0,0-6.21,2.09,12.27,12.27,0,0,0-1.72,1.15,12.33,12.33,0,0,0-5.13,9.9,10.34,10.34,0,0,0,1.26,5.1c.8,1.52.69,1.67-1,2.27-.27.1-.55.2-.83.28a7.61,7.61,0,0,0-5.4,5.32,13.06,13.06,0,0,0,3.13,13.39,12.12,12.12,0,0,0,6.27,3.75c2.09.47,4.27.57,6.51.84a19.37,19.37,0,0,1,.84,2.4A3.4,3.4,0,0,0,122.32,74c1.09.1,2.19.2,3.3.2a13.93,13.93,0,0,0,3.59-.43l2,1.53c1.74.53,3.4,1.34,5.26,1.34a5.74,5.74,0,0,0,.71,0h0c.16,0,.1.67.31,1a4.23,4.23,0,0,1,4.21-2.35h.1c.64,0,1.29.05,1.94.05a9.07,9.07,0,0,0,1.28-.08,1.56,1.56,0,0,1,.3,0c1,0,1.43.72,2,1.27a2.83,2.83,0,0,1,1.53-3.08c1.27-.83,2.28-2.07,3.89-2.33,0-.53.16-1.22.62-1.22a.61.61,0,0,1,.3.08,3.78,3.78,0,0,0,1.75.46,5.42,5.42,0,0,0,2.89-1.09,3.83,3.83,0,0,1,2.17-.62,11.25,11.25,0,0,1,2.12.28,22.88,22.88,0,0,0,4.4.45,16.51,16.51,0,0,0,3.31-.32,17.28,17.28,0,0,0,9.91-6.07,9,9,0,0,0,1.8-6.37c-.13-1.8-1.1-3.53-1.62-5.32a11.18,11.18,0,0,1-.6-3.15c0-1.26.52-2.51.53-3.77.06-4.92-1.61-9-5.78-12-.49-.34-.85-.85-1.33-1.21-1-.76-2.06-1.52-3.14-2.19a28.55,28.55,0,0,0-2.92-1.48,2,2,0,0,1-1.26-1.76,18.45,18.45,0,0,0-6.17-11.15c-2.95-2.67-6-4.78-10.16-4.9-.13,0-7.17-.15-7.74-.15Z" transform="translate(-5.87 -9.67)" fill="#a9a8a9"/></g><g id="ac8374de-a141-48ed-a26e-49f1ac9b634f" data-name="Ice"><path id="af2105d8-5f80-45f3-9d80-933132255405" data-name="e" d="M89.72,82.31A3.82,3.82,0,0,0,85,79.7c-2,.43-4,.25-5.9.93a4,4,0,0,1-1.34,0,1.42,1.42,0,0,1-.29-2,1.54,1.54,0,0,1,1.43-.39c3,.35,5.64-1.12,8.41-1.89a2.4,2.4,0,0,0,1.81-2.47A21,21,0,0,0,89,70c-.71-4.19-3.34-6.46-7.61-6.68a22.19,22.19,0,0,0-9.93,1.78,9.92,9.92,0,0,0-6.1,7.63,16.58,16.58,0,0,0,1,9.7,8.3,8.3,0,0,0,6.17,5.17,12.84,12.84,0,0,1,3.74,1.17,22.32,22.32,0,0,0,5.58,0,18.76,18.76,0,0,0,5.67-1.89C89.62,85.72,90.33,84.27,89.72,82.31ZM76.14,73.25c.61-1.26,1.53-2.26,1.69-3.51a4.56,4.56,0,0,1,2.94-.31,5.82,5.82,0,0,0,2.72,3A12.05,12.05,0,0,0,76.14,73.25Z" transform="translate(-5.87 -9.67)" fill="#a9a8a9"/><path id="ec2f8d22-7965-4c49-8fe6-bc42679a4bc7" data-name="c" d="M63,72.61a4,4,0,0,1-2.71.88c-1.7,0-3.4.05-5.09.05a4.61,4.61,0,0,1-4.44-2.49,1.2,1.2,0,0,0-1.05-.8c.18,2.31,2.87,3.44,2.54,6.26-.23.95-2,1.24-2.55,2.54.37.1.63.25.71.18,2.4-2,5.25-1.61,8-1.47A6.75,6.75,0,0,1,63,80.32a4.13,4.13,0,0,1-1.53,6.33,14.86,14.86,0,0,1-9.85,1.61,13.93,13.93,0,0,0-3-.37,6.33,6.33,0,0,1-6.12-4,18.6,18.6,0,0,1-1.15-12.51,8.74,8.74,0,0,1,6.83-6.8c1.65-.38,3.29-.83,5-1.08a12.08,12.08,0,0,1,8.49,2.22C64,67.25,64.27,69.2,63,72.61Z" transform="translate(-5.87 -9.67)" fill="#a9a8a9"/><path id="fcd38486-fad0-42f1-838c-55364d5709a1" data-name="I" d="M29.45,60a27.06,27.06,0,0,1,2.24-1.87,5,5,0,0,1,5.88.18,4.7,4.7,0,0,1,1.13,5.44,13,13,0,0,0-.7,3.78c-.21,1.47-.66,2.91-1,4.48a11.06,11.06,0,0,1,.5,4A11.59,11.59,0,0,1,37,80.17l1.53,2.17c-.35,5-2,6.68-5.64,5.73-.28-.9,1-1.25.77-2.12-.18-.07-.46-.24-.5-.2a7.3,7.3,0,0,1-4.81,2.54c-.19-.06-.58-.14-.95-.27-3.55-1.17-4.33-2.73-3.14-6.34a8.24,8.24,0,0,0,.63-2.9,13.46,13.46,0,0,1,.19-3,18.57,18.57,0,0,1,1-2.57c-.93-2.48-.54-5.09-.55-7.66-1.53-3.36-1.42-5.86.5-7.68a3.19,3.19,0,0,1,4.37-.47C30.77,58.52,28.79,58.69,29.45,60Z" transform="translate(-5.87 -9.67)" fill="#a9a8a9"/></g><g id="bc34da22-3d89-4510-bf4d-f5ac55d113b5" data-name="eyes and legs"><path d="M148.9,87.24c-.81-4.14-1.83-7.92-1.72-11.71.22-1.75,2.14-3.38,5.43-5.07.57,2.93.57,6.19,2,9,2.31-.43,3.59-.52,5.35-.73a12.4,12.4,0,0,1,5,.08c2.2.62,3.25,1.74,3.44,3.62a4.74,4.74,0,0,1-2.63,5,5.32,5.32,0,0,1-1.11.43C159.42,89.25,154.27,88.46,148.9,87.24Z" transform="translate(-5.87 -9.67)" fill="#a9a8a9"/><path d="M130.73,79.45a10.88,10.88,0,0,0,1.83-4c1.6.38,2.92,1,4.92,1a33,33,0,0,1-1,10.12c-1.72,1.31-5.52,1.48-5.52,1.48s-6.76.51-10.07-.46c-2-.59-3.63-1.65-4-4a4.06,4.06,0,0,1,2.89-4.89,10.2,10.2,0,0,1,5.31-.26c1,.17,2,.37,2.93.56A9.65,9.65,0,0,0,130.73,79.45Z" transform="translate(-5.87 -9.67)" fill="#a9a8a9"/><path d="M137.79,43.22c-.71,2-1.45,2.63-3.06,2.66A3.57,3.57,0,0,1,131,43.3,14.24,14.24,0,0,1,137.79,43.22Z" transform="translate(-5.87 -9.67)" fill="#a9a8a9"/><path d="M141.26,39.53c-.81,0-1.36-.38-1.42-1.17a1.29,1.29,0,0,1,1.38-1.51,1.15,1.15,0,0,1,1.25,1.3A1.32,1.32,0,0,1,141.26,39.53Z" transform="translate(-5.87 -9.67)" fill="#a9a8a9"/><path d="M129.23,38.26a1.25,1.25,0,0,1-1.34,1.26A1.3,1.3,0,0,1,126.56,38a1.08,1.08,0,0,1,1.13-1.09A1.39,1.39,0,0,1,129.23,38.26Z" transform="translate(-5.87 -9.67)" fill="#a9a8a9"/></g></svg>